<svg xmlns="http://www.w3.org/2000/svg" viewBox="0 0 17.4 841.9"><path fill="#E4C590" d="M-.1 285.8v-1.1c.2.1.3.2.5.3l7.7-7.7-3.5-3.5L.4 278c-.2-.1-.3-.2-.5-.3v-1.2c.2.1.3.3.5.3l3.6-3.6-3.5-3.5-.5.5v-2.1c.1.1.2.1.4.2v-6.7c0-.3-.1-.5-.4-.7v-1.1c.1 0 .2.1.4.2v-6.5c0-.3 0-.6-.4-.8v-1.1c.1 0 .2.1.4.2v-6.6c0-.3 0-.7-.4-.8v-1.1c.1 0 .2.1.3.2v-6.6c-.2 0-.2.1-.3.2v-2c.2.2.4.4.6.5l3.5-3.5c-1.3-1.3-2.7-2.7-4-4.2v-1.1c.1.1.3.2.4.3l4 4 .3.3 3.6-3.6c-.3-.3-.7-.6-1-.9l-7.3-7.3v-1.1c.2.1.3.2.4.3l8.2 8.2.3.3c1.2-1.2 2.4-2.4 3.6-3.5L.1 211.3v-1.1c.2.1.3.2.5.4l12.3 12.3c.1.1.3.2.3.3l3.5-3.5L.6 203.6c-.1.1-.3.2-.4.3v-1.1c0-.1.1-.3.1-.4v-6.5c0-.1 0-.3-.1-.4v-2.1c.2.2.3.3.5.4l11.9-11.9c-1.1-1.2-2.3-2.3-3.5-3.5-2.7 2.7-5.5 5.5-8.3 8.4-.2-.2-.3-.3-.5-.4v-1.1c.2.1.3.2.5.3l7.7-7.7-3.5-3.5-4.2 4.2c-.2-.1-.3-.2-.5-.3v-1.2c.2.1.3.3.5.3l3.6-3.6-3.5-3.5-.5.5v-2.1c.1.1.2.1.4.2v-6.7c0-.3-.1-.5-.4-.7v-1.1c.1 0 .2.1.4.2v-6.5c0-.3 0-.6-.4-.8v-1.1c.1 0 .2.1.4.2v-6.6c0-.3 0-.7-.4-.8v-1.1c.1 0 .2.1.3.2v-6.6c-.2 0-.2.1-.3.2v-2c.2.2.4.4.6.5l3.5-3.5c-1.3-1.3-2.7-2.7-4-4.2v-1.1c.1.1.3.2.4.3l4 4 .3.3 3.6-3.6c-.3-.3-.7-.6-1-.9l-7.3-7.3v-1.1c.2.1.3.2.4.3l8.2 8.2.3.3 3.6-3.6c-4.2-4.2-8.4-8.4-12.6-12.5v-1.1c.2.1.3.2.5.4l12.3 12.3c.1.1.3.2.3.3l3.5-3.5c-5.4-5.3-10.7-10.7-16.1-16-.1.1-.3.2-.4.3v-1.1c0-.1.1-.3.1-.4v-6.5c0-.1 0-.3-.1-.4V94c.2.2.3.3.5.4l11.9-11.9c-1.1-1.2-2.3-2.3-3.5-3.5-2.7 2.7-5.5 5.5-8.3 8.4-.2-.2-.3-.3-.5-.4v-1.1c.2.1.3.2.5.3l7.7-7.7L5.3 75l-4.2 4.2c-.2-.1-.3-.2-.5-.3v-1.2c.2.1.3.3.5.3l3.6-3.6-3.5-3.5-.5.5v-2.1c.1.1.2.1.4.2v-6.7c0-.3-.1-.5-.4-.7V61c.1 0 .2.1.4.2v-6.5c0-.3 0-.6-.4-.8v-1.1c.1 0 .2.1.4.2v-6.6c0-.3 0-.7-.4-.8v-1.1c.1 0 .2.1.3.2v-6.6c-.2 0-.2.1-.3.2v-2c.2.2.4.4.6.5l3.5-3.5c-1.3-1.3-2.7-2.7-4-4.2V28c.1.1.3.2.4.3l4 4 .3.3L9.1 29c-.3-.3-.7-.6-1-.9-2.5-2.5-4.9-4.9-7.3-7.4v-1.1c-.8-.7-.6-.6-.5-.5 2.7 2.7 5.4 5.4 8.2 8.1l.3.3c1.2-1.2 2.4-2.4 3.6-3.5C8.2 19.8 4 15.7-.1 11.6v-1.1c.2.1.3.2.5.4l12.3 12.3c.1.1.3.2.3.3l3.5-3.5C11 14.6 5.7 9.2.3 3.9c-.1 0-.3.1-.4.3V1h.9v1.6c0 .2.1.5.3.7.8.9 1.8 1.8 2.7 2.7 0 0 .1.1.3.2V1h.8v5.8l.3.6c.9.9 1.8 1.8 2.8 2.7.1.1.2.1.3.2V1h.8v10c0 .2.1.4.2.5l2.7 2.7c.1.1.2.1.3.2V.8h.7v14c0 .2 0 .5.2.7l3.3 3.3v2.1c-1 1-1.9 2-2.9 3.1l2.9 2.9V28c-.7-.7-1.4-1.3-2.1-2L13 24.6l-3.5 3.5.2.2 6.6 6.6c.1.1.2.1.3.2v1.2c-.1-.1-.3-.2-.4-.3l-6.9-6.9c-.2-.2-.2-.3-.3-.4-1.3 1.3-2.4 2.5-3.6 3.6l.2.2 10.7 10.7c.1.1.2.2.3.2v1.2l-.4-.4-11-11c-.1-.2-.2-.3-.3-.4l-3.5 3.5.3.3 11 11 4 4v1.1c-.1-.1-.3-.2-.4-.3l-6.5-6.5c-.1-.1-.2-.3-.2-.5l-.2.2v14.3s.1 0 .1.1c.1-.1.2-.3.3-.4l6.4-6.4c.1-.1.3-.2.4-.3V54l-.4.4-7.5 7.5L1.6 69c-.1.1-.2.3-.3.3l3.6 3.6c.1-.2.2-.3.3-.5 3.7-3.7 7.3-7.4 11-11 .1-.1.3-.2.4-.3v1.2l-.3.3L5.7 73.2l-.3.3L8.9 77c.1-.1.2-.2.4-.3l6.9-6.9c.1-.1.3-.2.4-.3v1.2c-.1.1-.2.2-.3.2l-6.6 6.6-.2.2 3.5 3.5 2.7-2.7c.3-.3.5-.5.8-.7v1.1l-2.9 2.9c1 1 2 2 2.9 3v1.1c-.1-.1-.3-.2-.4-.3l-2.7-2.7c-.1-.1-.2-.2-.4-.3v32c0 .2 0 .5.2.7l3.3 3.3v2.1c-1 1-1.9 2-2.9 3.1l2.9 2.9v1.1c-.7-.7-1.4-1.3-2.1-2l-1.4-1.4-3.5 3.5.2.2 6.6 6.6c.1.1.2.1.3.2v1.2c-.1-.1-.3-.2-.4-.3l-6.9-6.9c-.2-.2-.2-.3-.3-.4-1.3 1.3-2.4 2.5-3.6 3.6l.2.2L16.3 143c.1.1.2.2.3.2v1.2l-.4-.4-11-11-.3-.3-3.5 3.5.3.3 11 11 4 4v1.1c-.1-.1-.3-.2-.4-.3l-6.5-6.5c-.1-.1-.2-.3-.2-.5l-.2.2v14.3h.1l.3-.3 6.4-6.4c.1-.1.3-.2.4-.3v1.1l-.4.4-7.5 7.5-7.1 7.1c-.1.1-.2.3-.3.3l3.6 3.6c.1-.2.2-.3.3-.5 3.7-3.7 7.3-7.4 11-11 .1-.1.3-.2.4-.3v1.2l-.3.3-10.6 10.6-.3.3 3.5 3.5c.1-.1.2-.2.4-.3l6.9-6.9c.1-.1.3-.2.4-.3v1.2c-.1.1-.2.2-.3.2l-6.6 6.6-.2.2 3.5 3.5 2.7-2.7c.3-.3.5-.5.8-.7v1.1l-2.9 2.9c1 1 2 2 2.9 3v1.1c-.1-.1-.3-.2-.4-.3l-2.7-2.7c-.1-.1-.2-.2-.4-.3v32c0 .2 0 .5.2.7l3.3 3.3v2.1c-1 1-1.9 2-2.9 3.1l2.9 2.9v1.1c-.7-.7-1.4-1.3-2.1-2l-1.4-1.4-3.5 3.5.2.2 6.6 6.6c.1.1.2.1.3.2v1.2c-.1-.1-.3-.2-.4-.3l-6.9-6.9c-.2-.2-.2-.3-.3-.4-1.3 1.3-2.4 2.5-3.6 3.6l.2.2 10.7 10.7c.1.1.2.2.3.2v1.2l-.4-.4-11-11-.3-.3-3.5 3.5.3.3 11 11 4 4v1.1c-.1-.1-.3-.2-.4-.3l-6.5-6.5c-.1-.1-.2-.3-.2-.5l-.2.2v14.4l.4-.4 6.4-6.4c.1-.1.3-.2.4-.3v1.1l-.4.4-7.5 7.5-7.1 7.1c-.1.1-.2.3-.3.3l3.6 3.6c.1-.2.2-.3.3-.5 3.7-3.7 7.3-7.4 11-11 .1-.1.3-.2.4-.3v1.2l-.3.3L5.7 273l-.3.3 3.5 3.5c.1-.1.2-.2.4-.3l6.9-6.9c.1-.1.3-.2.4-.3v1.2c-.1.1-.2.2-.3.2l-6.6 6.6-.2.2L13 281l2.7-2.7c.3-.3.5-.5.8-.7v1.1l-2.9 2.9c1 1 2 2 2.9 3v1.1c-.1-.1-.3-.2-.4-.3l-2.7-2.7c-.1-.1-.2-.2-.4-.3v32c0 .2 0 .5.2.7l3.3 3.3v2.1c-1 1-1.9 2-2.9 3.1l2.9 2.9v1.1c-.7-.7-1.4-1.3-2.1-2l-1.4-1.4-3.5 3.5.2.2 6.6 6.6c.1.1.2.1.3.2v1.2c-.1-.1-.3-.2-.4-.3l-6.9-6.9c-.2-.2-.2-.3-.3-.4-1.3 1.3-2.4 2.5-3.6 3.6l.2.2 10.7 10.7c.1.1.2.2.3.2v1.2l-.4-.4-11-11-.3-.3-3.5 3.5.3.3 11 11 4 4v1.1c-.1-.1-.3-.2-.4-.3l-6.5-6.5c-.1-.1-.2-.3-.2-.5l-.2.2v14.3s.1 0 .1.1c.1-.1.2-.3.3-.4l6.4-6.4c.1-.1.3-.2.4-.3v1.1l-.4.4-7.5 7.5-7.1 7.1c-.1.1-.2.3-.3.3l3.6 3.6c.1-.2.2-.3.3-.5 3.7-3.7 7.3-7.4 11-11 .1-.1.3-.2.4-.3v1.2l-.3.3-10.6 10.6-.3.3 3.5 3.5c.1-.1.2-.2.4-.3l6.9-6.9c.1-.1.3-.2.4-.3v1.2c-.1.1-.2.2-.3.2l-6.6 6.6-.2.2 3.5 3.5 2.7-2.7c.3-.3.5-.5.8-.7v1.1l-2.9 2.9c1 1 2 2 2.9 3v1.1c-.1-.1-.3-.2-.4-.3l-2.7-2.7c-.1-.1-.2-.2-.4-.3v32c0 .2 0 .5.2.7l3.3 3.3v2.1c-1 1-1.9 2-2.9 3.1l2.9 2.9v1.1c-.7-.7-1.4-1.3-2.1-2l-1.4-1.4-3.5 3.5.2.2 6.6 6.6c.1.1.2.1.3.2v1.2c-.1-.1-.3-.2-.4-.3l-6.9-6.9c-.2-.2-.2-.3-.3-.4-1.3 1.3-2.4 2.5-3.6 3.6l.2.2 10.7 10.7c.1.1.2.2.3.2v1.2l-.4-.4-11-11c-.2-.2-.2-.3-.3-.4L1.2 436l.3.3 7.7 7.7c.1.1.2.3.3.4H8.3c-.1-.1-.2-.3-.3-.4l-2.4-2.4c-.1-.2-.2-.3-.3-.5-.1 0-.2.1-.2.2v3.2h-.8v-3.8c0-.2-.1-.5-.2-.6-1-1-1.9-2-2.9-2.9-.1-.1-.1-.1-.3-.2v7.5H-.3v-1.3c.1 0 .2.1.3.2v-6.6c-.2 0-.2.1-.3.2v-2c.2.2.4.4.6.5l3.5-3.5c-1.3-1.3-2.7-2.7-4-4.2v-1.1c.1.1.3.2.4.3l4 4 .3.3 3.6-3.6c-.3-.3-.7-.6-1-.9l-7.3-7.3v-1.1c.2.1.3.2.4.3l8.2 8.2.3.3 3.6-3.6c-4.1-4.1-8.3-8.2-12.4-12.4v-1.1c.2.1.3.2.5.4l12.3 12.3c.1.1.3.2.3.3l3.5-3.5L.4 403.5c-.1.1-.3.2-.4.3v-1.1c0-.1.1-.3.1-.4v-6.5c0-.1 0-.3-.1-.4v-2.1c.2.2.3.3.5.4l11.9-11.9c-1.1-1.2-2.3-2.3-3.5-3.5-2.7 2.7-5.5 5.5-8.3 8.4-.2-.2-.3-.3-.5-.4v-1.1c.2.1.3.2.5.3l7.7-7.7-3.5-3.5-4.2 4.2c-.2-.1-.3-.2-.5-.3V377c.2.1.3.3.5.3l3.6-3.6-3.5-3.5-.5.5v-2.1c.1.1.2.1.4.2v-6.7c0-.3-.1-.5-.4-.7v-1.1c.1 0 .2.1.4.2V354c0-.3 0-.6-.4-.8v-1.1c.1 0 .2.1.4.2v-6.6c0-.3 0-.7-.4-.8v-1.1c.1 0 .2.1.3.2v-6.6c-.2 0-.2.1-.3.2v-2c.2.2.4.4.6.5l3.5-3.5c-1.3-1.3-2.7-2.7-4-4.2v-1.1c.1.1.3.2.4.3l4 4 .3.3 3.6-3.6c-.3-.3-.7-.6-1-.9l-7.3-7.3V319c.2.1.3.2.4.3l8.2 8.2.3.3c1.2-1.2 2.4-2.4 3.6-3.5-4.8-4-9-8.2-13.1-12.3v-1.1c.2.1.3.2.5.4l12.3 12.3c.1.1.3.2.3.3l3.5-3.5C11 315 5.6 309.7.2 304.3c-.1.1-.3.2-.4.3v-1.1c0-.1.1-.3.1-.4v-6.5c0-.1 0-.3-.1-.4v-2.1c.2.2.3.3.5.4l11.9-11.9-3.5-3.5c-2.7 2.7-5.5 5.5-8.3 8.4-.2-1.4-.4-1.5-.5-1.7zm1.2 82c.1 0 .1 0 .2-.1l3-3c.1-.1.2-.3.2-.5v-23.8c0-.2-.1-.4-.2-.5l-3-3s-.1 0-.2-.1v31zm0-330.4v31.1c.1 0 .2-.1.2-.1l3-3c.1-.1.2-.3.2-.5V41.2c0-.2 0-.3-.1-.5-1.1-1.1-2.1-2.2-3.3-3.3zm0 230.6c.1 0 .2-.1.2-.1l3-3c.1-.1.2-.3.2-.5v-23.7c0-.2-.1-.5-.3-.7-.9-1-1.8-1.9-2.8-2.8-.1-.1-.2-.2-.3-.2v31zm0-130.8v31.1c.1 0 .1 0 .2-.1l3.1-3.1c.1-.1.2-.3.2-.5v-23.7c0-.2 0-.3-.1-.5-1.2-1-2.2-2.1-3.4-3.2zm11.3 245.2l-3 3c-.2.2-.3.5-.3.7V410c0 .2.1.5.3.7l2.7 2.7.3.3v-31.3zm0-268V83.1L9.5 86c-.3.3-.4.6-.4 1v23.2c0 .7.2 1.2.7 1.7.9.7 1.7 1.5 2.6 2.5zm-.1 99.8v-31.3l-2.9 2.9c-.3.3-.4.6-.4 1v22c0 .7-.2 1.5.1 2.1.3.6.9 1 1.4 1.5.7.5 1.2 1.1 1.8 1.8zm.1 68.4c-1 1-1.8 1.9-2.8 2.8-.4.3-.5.7-.5 1.2V310c0 .4.1.7.4.9l2.2 2.2c.2.2.4.5.6.7l.1-.1v-31.1zM8.1 210l.1-.1v-22.8c-.1 0-.1 0-.2.1l-2.9 2.9c-.1.1-.1.3-.1.5v15.7c0 .2.1.5.3.7.7.8 1.5 1.5 2.2 2.2.2.3.4.5.6.8zm.1-99.8v-23c-.2.2-.3.2-.4.3-.8.9-1.5 1.7-2.4 2.5-.3.3-.5.7-.5 1.1v14.5c0 1 .2 1.7 1 2.3.8.7 1.5 1.5 2.3 2.3zm-.1 199.6s.1-.1.2-.1v-22.8c-.1 0-.1 0-.2.1l-2.9 2.9c-.2.1-.2.3-.2.5v15.8c0 .2.1.4.3.6.6.7 1.2 1.2 1.8 1.9.3.3.7.7 1 1.1zm.1 76.8c-.1 0-.1 0-.2.1l-2.9 2.9c-.1.2-.1.4-.1.6v15.7c0 .2.1.5.3.7.7.8 1.5 1.5 2.2 2.2.2.2.4.5.7.8l.1-.1c-.1-7.6-.1-15.2-.1-22.9zM5.4 241.2v22.7l3-3c.1-.1.2-.3.2-.5v-15.6c0-.2 0-.3-.2-.5-1-1-1.9-2-3-3.1zm0-99.8V164l3-3c.1-.1.2-.3.2-.5v-15.6c0-.2 0-.3-.2-.5-1-.9-2-1.9-3-3zm-.1 222.2c.1-.1.2-.1.2-.2.9-.9 1.9-1.8 2.8-2.8.1-.1.2-.4.2-.6v-15.5c0-.2-.1-.5-.3-.7-.8-.9-1.7-1.7-2.6-2.6-.1-.1-.2-.2-.3-.2v22.6zm.1-299.3c1.1-1.1 2.1-2 3-3 .1-.1.2-.3.2-.5V45.3c0-.2-.1-.5-.3-.7l-2.2-2.2c-.2-.2-.4-.5-.6-.7l-.1.1v22.5zM4.1 291c-.2.2-.3.2-.3.3-.9.9-1.8 1.7-2.6 2.7-.2.2-.3.5-.3.7v7.4c0 .2.1.5.3.7.8.9 1.8 1.8 2.6 2.7l.3.3V291zm0-85.2v-14.6c-.1.1-.2.1-.2.2L1 194.3c-.1.1-.2.3-.2.5v7.4c0 .2.1.5.3.6.8.9 1.7 1.7 2.6 2.6l.4.4zm0-114.4c-.1 0-.2.1-.2.1L1 94.4c-.1.1-.2.3-.2.5v7.4c0 .2.1.5.3.7l2.7 2.7c.1.1.2.2.3.2V91.4zm0 314v-14.6c-.1.1-.2.1-.2.2L1 393.9c-.1.1-.2.3-.2.5v7.4c0 .2.1.5.3.6.8.9 1.7 1.7 2.6 2.6l.4.4z"/><path fill="#E4C590" d="M-.1 685.1V684c.2.1.3.2.5.3l7.7-7.7-3.5-3.5-4.2 4.2c-.2-.1-.3-.2-.5-.3v-1.2c.2.1.3.3.5.3l3.6-3.6L.5 669l-.5.5v-2.1c.1.1.2.1.4.2v-6.7c0-.3-.1-.5-.4-.7v-1.1c.1 0 .2.1.4.2v-6.5c0-.3 0-.6-.4-.8v-1.1c.1 0 .2.1.4.2v-6.6c0-.3 0-.7-.4-.8v-1.1c.1 0 .2.1.3.2v-6.6c-.2 0-.2.1-.3.2v-2c.2.2.4.4.6.5l3.5-3.5c-1.3-1.3-2.7-2.7-4-4.2v-1.1c.1.1.3.2.4.3l4 4 .3.3 3.6-3.6c-.3-.3-.7-.6-1-.9l-7.3-7.3v-1.1c.2.1.3.2.4.3l8.2 8.2.3.3c1.2-1.2 2.4-2.4 3.6-3.5-4.1-4.1-8.3-8.2-12.4-12.4v-1.1c.2.1.3.2.5.4L13 622.3c.1.1.3.2.3.3l3.5-3.5L.7 603c-.1.1-.3.2-.4.3v-1.1c0-.1.1-.3.1-.4v-6.5c0-.1 0-.3-.1-.4v-2.1c.2.2.3.3.5.4l11.9-11.9c-1.1-1.2-2.3-2.3-3.5-3.5-2.7 2.7-5.5 5.5-8.3 8.4-.2-.2-.3-.3-.5-.4v-1.1c.2.1.3.2.5.3l7.7-7.7-3.5-3.5L.9 578c-.2-.1-.3-.2-.5-.3v-1.2c.2.1.3.3.5.3l3.6-3.6-3.5-3.5-.5.5v-2.1c.1.1.2.1.4.2v-6.7c0-.3-.1-.5-.4-.7v-1.1c.1 0 .2.1.4.2v-6.5c0-.3 0-.6-.4-.8v-1.1c.1 0 .2.1.4.2v-6.6c0-.3 0-.7-.4-.8v-1.1c.1 0 .2.1.3.2v-6.6c-.2 0-.2.1-.3.2v-2c.2.2.4.4.6.5l3.5-3.5c-1.3-1.3-2.7-2.7-4-4.2v-1.1c.1.1.3.2.4.3l4 4 .3.3 3.6-3.6c-.3-.3-.7-.6-1-.9l-7.3-7.3v-1.1c.2.1.3.2.4.3l8.2 8.2.3.3 3.6-3.6C9 519.6 4.8 515.5.7 511.3v-1.1c.2.1.3.2.5.4l12.3 12.3c.1.1.3.2.3.3l3.5-3.5-16.1-16.1c-.1.1-.3.2-.4.3v-1.1c0-.1.1-.3.1-.4v-6.5c0-.1 0-.3-.1-.4v-2.1c.2.2.3.3.5.4l11.9-11.9c-1.1-1.2-2.3-2.3-3.5-3.5-2.7 2.7-5.5 5.5-8.3 8.4-.2-.2-.3-.3-.5-.4v-1.1c.2.1.3.2.5.3l7.7-7.7-3.5-3.5-4.2 4.2c-.2-.1-.3-.2-.5-.3v-1.2c.2.1.3.3.5.3l3.6-3.6-3.5-3.5-.5.5v-2.1c.1.1.2.1.4.2v-6.7c0-.3-.1-.5-.4-.7v-1.1c.1 0 .2.1.4.2v-6.5c0-.3 0-.6-.4-.8v-1.1c.1 0 .2.1.4.2v-6.6c0-.3 0-.7-.4-.8v-1.1c.1 0 .2.1.3.2v-6.6c-.2 0-.2.1-.3.2v-2c.2.2.4.4.6.5l3.5-3.5c-1.3-1.3-2.7-2.7-4-4.2v-1.1c.1.1.3.2.4.3l4 4 .3.3 3.6-3.6c-.3-.3-.7-.6-1-.9l-7.3-7.3v-1.1c.2.1.3.2.4.3l8.2 8.2.3.3c1.2-1.2 2.4-2.4 3.6-3.5-4.1-4.1-8.3-8.2-12.4-12.4v-1.1c.2.1.3.2.5.4L14 423.6c.1.1.3.2.3.3l3.5-3.5-16.1-16.1c-.1.1-.3.2-.4.3v-3.2h.9v1.6c0 .2.1.5.3.7l2.7 2.7.3.3v-5.2h.8v5.8c0 .2.1.5.2.6l2.7 2.7c.1.1.2.1.3.2v-9.3h.8v10c0 .2.1.4.2.5l2.7 2.7c.1.1.2.1.3.2v-13.6h.7v14c0 .2 0 .5.2.7l3.3 3.3v2.1c-1 1-1.9 2-2.9 3.1l2.9 2.9v1.1c-.7-.7-1.4-1.3-2.1-2l-1.4-1.4-3.5 3.5.2.2 6.6 6.6c.1.1.2.1.3.2v1.2c-.1-.1-.3-.2-.4-.3l-6.9-6.9c-.2-.2-.2-.3-.3-.4-1.3 1.3-2.4 2.5-3.6 3.6l.2.2 10.7 10.7c.1.1.2.2.3.2v1.2l-.4-.4-11-11-.3-.3-3.5 3.5.3.3 11 11 4 4v1.1c-.1-.1-.3-.2-.4-.3l-6.5-6.5c-.1-.1-.2-.3-.2-.5l-.2.2v14.3s.1 0 .1.1c.1-.1.2-.3.3-.4l6.4-6.4c.1-.1.3-.2.4-.3v1.1l-.4.4-7.5 7.5-7.1 7.1c-.1.1-.2.3-.3.3l3.6 3.6c.1-.2.2-.3.3-.5 3.7-3.7 7.3-7.4 11-11 .1-.1.3-.2.4-.3v1.2l-.3.3-10.6 10.6-.3.3 3.5 3.5c.1-.1.2-.2.4-.3l6.9-6.9c.1-.1.3-.2.4-.3v1.2c-.1.1-.2.2-.3.2l-6.6 6.6-.2.2 3.5 3.5 2.7-2.7c.3-.3.5-.5.8-.7v1.1l-2.9 2.9c1 1 2 2 2.9 3v1.1c-.1-.1-.3-.2-.4-.3l-2.7-2.7c-.1-.1-.2-.2-.4-.3v32c0 .2 0 .5.2.7l3.3 3.3v2.1c-1 1-1.9 2-2.9 3.1l2.9 2.9v1.1c-.7-.7-1.4-1.3-2.1-2l-1.4-1.4-3.5 3.5.2.2 6.6 6.6c.1.1.2.1.3.2v1.2c-.1-.1-.3-.2-.4-.3l-6.9-6.9c-.2-.2-.2-.3-.3-.4-1.3 1.3-2.4 2.5-3.6 3.6l.2.2 10.7 10.7c.1.1.2.2.3.2v1.2l-.4-.4-11-11-.3-.3-3.5 3.5.3.3 11 11 4 4v1.1c-.1-.1-.3-.2-.4-.3l-6.5-6.5c-.1-.1-.2-.3-.2-.5l-.2.2v14.3h.1l.3-.3 6.4-6.4c.1-.1.3-.2.4-.3v1.1l-.4.4-7.5 7.5-7.1 7.1c-.1.1-.2.3-.3.3l3.6 3.6c.1-.2.2-.3.3-.5 3.7-3.7 7.3-7.4 11-11 .1-.1.3-.2.4-.3v1.2l-.3.3-10.6 10.6-.3.3 3.5 3.5c.1-.1.2-.2.4-.3l6.9-6.9c.1-.1.3-.2.4-.3v1.2c-.1.1-.2.2-.3.2l-6.6 6.6-.2.2 3.5 3.5 2.7-2.7c.3-.3.5-.5.8-.7v1.1l-2.9 2.9c1 1 2 2 2.9 3v1.1c-.1-.1-.3-.2-.4-.3l-2.7-2.7c-.1-.1-.2-.2-.4-.3v32c0 .2 0 .5.2.7l3.3 3.3v2.1c-1 1-1.9 2-2.9 3.1l2.9 2.9v1.1c-.7-.7-1.4-1.3-2.1-2l-1.4-1.4-3.5 3.5.2.2 6.6 6.6c.1.1.2.1.3.2v1.2c-.1-.1-.3-.2-.4-.3l-6.9-6.9c-.2-.2-.2-.3-.3-.4-1.3 1.3-2.4 2.5-3.6 3.6l.2.2 10.7 10.7c.1.1.2.2.3.2v1.2l-.4-.4-11-11-.3-.3-3.5 3.5.3.3 11 11 4 4v1.1c-.1-.1-.3-.2-.4-.3l-6.5-6.5c-.1-.1-.2-.3-.2-.5l-.2.2v14.4l.4-.4 6.4-6.4c.1-.1.3-.2.4-.3v1.1l-.4.4-7.5 7.5-7.1 7.1c-.1.1-.2.3-.3.3l3.6 3.6c.1-.2.2-.3.3-.5 3.7-3.7 7.3-7.4 11-11 .1-.1.3-.2.4-.3v1.2l-.3.3-10.6 10.6-.3.3 3.5 3.5c.1-.1.2-.2.4-.3l6.9-6.9c.1-.1.3-.2.4-.3v1.2c-.1.1-.2.2-.3.2l-6.6 6.6-.2.2 3.5 3.5 2.7-2.7c.3-.3.5-.5.8-.7v1.1l-2.9 2.9c1 1 2 2 2.9 3v1.1c-.1-.1-.3-.2-.4-.3l-2.7-2.7c-.1-.1-.2-.2-.4-.3v32c0 .2 0 .5.2.7l3.3 3.3v2.1c-1 1-1.9 2-2.9 3.1l2.9 2.9v1.1c-.7-.7-1.4-1.3-2.1-2l-1.4-1.4-3.5 3.5.2.2 6.6 6.6c.1.1.2.1.3.2v1.2c-.1-.1-.3-.2-.4-.3l-6.9-6.9c-.2-.2-.2-.3-.3-.4-1.3 1.3-2.4 2.5-3.6 3.6l.2.2 10.7 10.7c.1.1.2.2.3.2v1.2l-.4-.4-11-11-.3-.3-3.5 3.5.3.3 11 11 4 4v1.1c-.1-.1-.3-.2-.4-.3l-6.5-6.5c-.1-.1-.2-.3-.2-.5l-.2.2v14.3s.1 0 .1.1c.1-.1.2-.3.3-.4l6.4-6.4c.1-.1.3-.2.4-.3v1.1l-.4.4-7.5 7.5-7.1 7.1c-.1.1-.2.3-.3.3l3.6 3.6c.1-.2.2-.3.3-.5 3.7-3.7 7.3-7.4 11-11 .1-.1.3-.2.4-.3v1.2l-.3.3-10.6 10.6-.3.3 3.5 3.5c.1-.1.2-.2.4-.3l6.9-6.9c.1-.1.3-.2.4-.3v1.2c-.1.1-.2.2-.3.2l-6.6 6.6-.2.2 3.5 3.5 2.7-2.7c.3-.3.5-.5.8-.7v1.1l-2.9 2.9c1 1 2 2 2.9 3v1.1c-.1-.1-.3-.2-.4-.3l-2.7-2.7c-.1-.1-.2-.2-.4-.3v32c0 .2 0 .5.2.7l3.3 3.3v2.1c-1 1-1.9 2-2.9 3.1l2.9 2.9v1.1c-.7-.7-1.4-1.3-2.1-2l-1.4-1.4-3.5 3.5.2.2 6.6 6.6c.1.1.2.1.3.2v1.2c-.1-.1-.3-.2-.4-.3l-6.9-6.9c-.2-.2-.2-.3-.3-.4-1.3 1.3-2.4 2.5-3.6 3.6l.2.2 10.7 10.7c.1.1.2.2.3.2v1.2l-.4-.4-11-11c-.2-.2-.2-.3-.3-.4l-3.7 3.7.3.3 7.7 7.7c.1.1.2.3.3.4H9.5c-.1-.1-.2-.3-.3-.4l-2.4-2.4c-.1-.2-.2-.3-.3-.5-.1 0-.2.1-.2.2v3.2h-.8v-3.8c0-.2-.1-.5-.2-.6-1-1-1.9-2-2.9-2.9-.2-1.8-.2-1.8-.4-1.9v7.5H.8v-1.3c.1 0 .2.1.3.2v-6.6c-.2 0-.2.1-.3.2v-2c.2.2.4.4.6.5l3.5-3.5c-1.3-1.3-2.7-2.7-4-4.2v-1.1c.1.1.3.2.4.3l4 4 .3.3 3.6-3.6c-.3-.3-.7-.6-1-.9l-7.3-7.3v-1.1c.2.1.3.2.4.3l8.2 8.2.3.3 3.6-3.6c-4.1-4.1-8.3-8.2-12.4-12.4V809c.2.1.3.2.5.4l12.3 12.3c.1.1.3.2.3.3l3.5-3.5-16.1-16.1c-.1.1-.3.2-.4.3v-1.1c0-.1.1-.3.1-.4v-6.5c0-.1 0-.3-.1-.4v-2.1c.2.2.3.3.5.4l11.9-11.9c-1.1-1.2-2.3-2.3-3.5-3.5-2.7 2.7-5.5 5.5-8.3 8.4-.2-.2-.3-.3-.5-.4v-1.1c.2.1.3.2.5.3l7.7-7.7-3.5-3.5-4.2 4.2c-.2-.1-.3-.2-.5-.3v-1.2c.2.1.3.3.5.3l3.6-3.6-3.5-3.5-.5.5v-2.1c.1.1.2.1.4.2V761c0-.3-.1-.5-.4-.7v-1.1c.1 0 .2.1.4.2v-6.5c0-.3 0-.6-.4-.8V751c.1 0 .2.1.4.2v-6.6c0-.3 0-.7-.4-.8v-1.1c.1 0 .2.1.3.2v-6.6c-.2 0-.2.1-.3.2v-2c.2.2.4.4.6.5l3.5-3.5c-1.3-1.3-2.7-2.7-4-4.2v-1.1c.1.1.3.2.4.3l4 4 .3.3 3.6-3.6c-.3-.3-.7-.6-1-.9L1.4 719v-1.1c.2.1.3.2.4.3l8.2 8.2.3.3c1.2-1.2 2.4-2.4 3.6-3.5-4.1-4.1-8.3-8.2-12.4-12.4v-1.1c.2.1.3.2.5.4l12.3 12.3c.1.1.3.2.3.3l3.5-3.5C12 713.4 6.6 708 1.2 702.7c-.1.1-.3.2-.4.3v-1.1c0-.1.1-.3.1-.4V695c0-.1 0-.3-.1-.4v-2.1c.2.2.3.3.5.4L13.2 681l-3.5-3.5c-2.7 2.7-5.5 5.5-8.3 8.4-1.2-.5-1.4-.7-1.5-.8zm1.2 82c.1 0 .1 0 .2-.1l3-3c.1-.1.2-.3.2-.5v-23.8c0-.2-.1-.4-.2-.5l-3-3s-.1 0-.2-.1v31zm0-330.5v31.1c.1 0 .2-.1.2-.1l3-3c.1-.1.2-.3.2-.5v-23.7c0-.2 0-.3-.1-.5l-3.3-3.3zm0 230.7c.1 0 .2-.1.2-.1l3-3c.1-.1.2-.3.2-.5V640c0-.2-.1-.5-.3-.7-.9-1-1.8-1.9-2.8-2.8-.1-.1-.2-.2-.3-.2v31zm0-130.9v31.1c.1 0 .1 0 .2-.1l3.1-3.1c.1-.1.2-.3.2-.5v-23.7c0-.2 0-.3-.1-.5-1.2-1-2.2-2-3.4-3.2zm11.3 245.3l-3 3c-.2.2-.3.5-.3.7v23.9c0 .2.1.5.3.7l2.7 2.7.3.3v-31.3zm0-268.1v-31.3l-2.9 2.9c-.3.3-.4.6-.4 1v23.2c0 .7.2 1.2.7 1.7.9.7 1.7 1.6 2.6 2.5zm-.1 99.8v-31.3L9.4 585c-.3.3-.4.6-.4 1v22c0 .7-.2 1.5.1 2.1.3.6.9 1 1.4 1.5.7.6 1.2 1.2 1.8 1.8zm.1 68.5c-1 1-1.8 1.9-2.8 2.8-.4.3-.5.7-.5 1.2v23.4c0 .4.1.7.4.9l2.2 2.2c.2.2.4.5.6.7l.1-.1v-31.1zm-4.3-72.7l.1-.1v-22.8c-.1 0-.1 0-.2.1l-2.9 2.9c-.1.1-.1.4-.1.5v15.7c0 .2.1.5.3.7.7.8 1.5 1.5 2.2 2.2.2.3.4.6.6.8zm.1-99.7v-23c-.2.2-.3.2-.4.3l-2.4 2.4c-.3.3-.5.7-.5 1.1v14.5c0 1 .2 1.7 1 2.3.8.8 1.5 1.5 2.3 2.4zM8.1 709s.1-.1.2-.1v-22.8c-.1 0-.1 0-.2.1l-2.9 2.9c-.2.2-.2.4-.2.5v15.8c0 .2.1.4.3.6.6.7 1.2 1.2 1.8 1.9.3.4.7.7 1 1.1zm.1 76.9c-.1 0-.1 0-.2.1l-2.9 2.9c-.1.1-.1.4-.1.5v15.7c0 .2.1.5.3.7.7.8 1.5 1.5 2.2 2.2.2.2.4.5.7.8l.1-.1c-.1-7.6-.1-15.2-.1-22.8zM5.4 640.4v22.7l3-3c.1-.1.2-.3.2-.5V644c0-.2 0-.3-.2-.5-1-1-1.9-2-3-3.1zm0-99.7v22.6l3-3c.1-.1.2-.3.2-.5v-15.6c0-.2 0-.3-.2-.5l-3-3zm-.1 222.2c.1-.1.2-.1.2-.2.9-.9 1.9-1.8 2.8-2.8.1-.1.2-.4.2-.6v-15.5c0-.2-.1-.5-.3-.7-.8-.9-1.7-1.7-2.6-2.6-.1-.1-.2-.2-.3-.2v22.6zm.1-299.4c1.1-1.1 2.1-2 3-3 .1-.1.2-.3.2-.5v-15.5c0-.2-.1-.5-.3-.7l-2.2-2.2c-.2-.2-.4-.5-.6-.7l-.1.1v22.5zM4.1 690.2c-.2.2-.3.2-.3.3-.9.9-1.8 1.7-2.6 2.7-.2.2-.3.5-.3.7v7.4c0 .2.1.5.3.7.8.9 1.8 1.8 2.6 2.7l.3.3v-14.8zm0-85.1v-14.6c-.1.1-.2.1-.2.2L1 593.6c-.1.1-.2.3-.2.5v7.4c0 .2.1.5.3.6.8.9 1.7 1.7 2.6 2.6l.4.4zm0-114.4c-.1 0-.2.1-.2.1L1 493.7c-.1.1-.2.3-.2.5v7.4c0 .2.1.5.3.7l2.7 2.7c.1.1.2.2.3.2v-14.5zm0 313.9V790c-.1.1-.2.1-.2.2L1 793.1c-.1.1-.2.3-.2.5v7.4c0 .2.1.5.3.6.8.9 1.7 1.7 2.6 2.6l.4.4z"/></svg>