<svg xmlns="http://www.w3.org/2000/svg" viewBox="0 0 412.3 1150.1"><path d="M0 589.9v-3.4c.8.6 1.6 1.1 2.2 1.7l18.3 18.3c.6.6 1.3 1.1 1.6 1.4l9-9s-.2-.3-.4-.5L1.6 569.3c-.4-.4-1-.7-1.6-1v-3.4c.8.6 1.7 1.2 2.4 1.9 9.6 9.5 19.1 19.1 28.7 28.6.7.7 1.4 1.3 2 1.9 2.4-1.8 8-7.6 8.9-9.1-.4-.4-.7-.8-1.1-1.2l-39-39c-.5-.5-1.3-.9-1.9-1.4v-3.4c.6-.4 1.2-.7 1.7-1.2 6-6 12-12 18-17.9.9-.8 1.3-1.7 1.2-2.9v-14.6c0-.5-.1-1-.3-2-.9.8-1.5 1.4-2.1 2-5.4 5.4-10.8 10.8-16.3 16.2-.7.6-1.5 1.1-2.3 1.6V521c.6-.4 1.3-.6 1.8-1.1 5.8-5.7 11.6-11.5 17.3-17.3.4-.4.7-1 .9-1.2l-9-9c-.5.4-1.1.9-1.6 1.5L2 501.2c-.6.6-1.4 1.1-2.1 1.6v-3.4c.6-.4 1.3-.8 1.9-1.4 1.7-1.6 3.3-3.2 4.9-4.9.9-.9 1.7-1.8 2.8-2.8-2.9-2.9-5.7-5.7-8.5-8.4-.1.1-.6.1-1 0v-3.4c.8.5 1.6.9 2.3 1.5 6 5.9 11.9 11.9 17.8 17.8.6.6 1.3 1.2 1.6 1.5C32 489 42.3 478.8 52.3 468.7l-8.7-8.7c-7.1 7-14.3 14.3-21.6 21.5-.9-.8-1.5-1.4-2.1-2-5.9-5.9-11.8-11.8-17.7-17.6-.7-.6-1.5-1.1-2.3-1.6v-3.4c.5-.4 1.1-.7 1.5-1.1 5.9-5.9 11.8-11.7 17.6-17.6.4-.4.7-.8.8-1.1-3.1-3-6-5.9-9-8.9-.4.4-1 .9-1.5 1.4-2.5 2.5-4.9 5-7.5 7.4-.5.5-1.3.8-1.9 1.1v-2.9c3.1-3 6.1-6 9.2-8.9.1-.1 0-.3 0-.6-2.7-2.7-5.4-5.5-8.2-8.2-.3-.3-.7-.4-1-.5v-3.4c.8.6 1.6 1.1 2.2 1.7 5.8 5.7 11.5 11.5 17.3 17.3.5.5 1.1 1 1.7 1.6.2-.4.3-.6.3-.7 0-5.4 0-10.7.1-16.1 0-.9-.5-1.4-1.1-2C14.2 409.2 8 403 1.7 396.8c-.5-.5-1.3-.9-1.9-1.4V392c.7.6 1.6 1.1 2.2 1.8l17.3 17.3c.5.5 1.1 1 1.7 1.6.2-.4.3-.6.3-.7 0-5.4 0-10.7.1-16.1 0-.9-.5-1.4-1.1-2L2 375.6c-.7-.7-1.5-1.2-2.2-1.8v-3.4c.6-.4 1.3-.7 1.7-1.2 5.8-5.7 11.5-11.5 17.3-17.3.4-.4.8-.9.9-1.2-3.1-3-6-5.9-9.1-8.9-2.7 2.7-5.6 5.7-8.6 8.6-.7.6-1.5 1.1-2.3 1.7v-3.4c.9-.7 1.8-1.2 2.6-2 2.3-2.2 4.6-4.6 7-7-1.9-1.9-3.6-3.7-5.4-5.4l-4.2-3.9v-2.9c.8.5 1.6.9 2.3 1.5 6.1 6 12.1 12.1 18.2 18.1.6.6 1.3 1.2 1.9 1.8 2.2-1.5 8-7.5 8.9-9.1-.3-.4-.7-.8-1.1-1.2L1.4 310.1c-.5-.5-1.1-.9-1.7-1.4v-2.9c.8.5 1.6.9 2.3 1.6 9.6 9.6 19.2 19.2 28.9 28.8.7.7 1.4 1.3 1.8 1.7 3.1-3.1 6.1-5.9 9.1-8.9-.5-.5-1-1.1-1.6-1.7-12.5-12.3-25.3-25.1-38-37.9-.7-.7-1.4-1.3-2.2-1.9v-2.9c.3-.2.7-.4 1-.7l19-19c.7-.7 1-1.6.9-2.6v-14.6c0-.5-.2-1-.4-1.8-.8.8-1.4 1.3-2 1.8-5.4 5.4-10.8 10.9-16.3 16.3-.6.6-1.1 1.7-2.3 1.4v-2.9c.6-.5 1.3-.9 1.9-1.4L18.9 244c.4-.4.8-.9 1.1-1.3-3.1-3-6.1-6-9.1-9-.4.3-1 .9-1.5 1.4-2.5 2.5-4.9 5-7.5 7.4-.5.5-1.3.8-1.9 1.2v-2.9c3.4-2.8 6.4-6.1 9.4-9.3-2.9-2.9-5.6-5.7-8.4-8.5-.3-.3-.7-.3-1.1-.5v-3.4c.8.6 1.6 1 2.3 1.7l18 18c.6.6 1.3 1.1 1.8 1.7 3.7-3 29.8-29.4 30.4-30.5-3-3-5.9-5.9-9-8.9L22 222.5c-.8-.8-1.5-1.3-2.1-1.9L2.1 202.8c-.7-.7-1.5-1.2-2.2-1.8v-3.4c.6-.4 1.3-.7 1.7-1.1 5.8-5.7 11.5-11.5 17.3-17.3.4-.4.8-1 .9-1.2-3.1-3.1-6-6-9-8.9-.4.4-1 .9-1.6 1.5-2.4 2.4-4.8 4.9-7.3 7.3-.6.6-1.4 1-2.1 1.5V176c.9-.6 1.8-1.2 2.6-2 2.3-2.2 4.6-4.6 7.1-7.1-3.4-3.2-6.5-6.2-9.7-9.2v-2.9c.8.5 1.6.9 2.3 1.5l17.1 17.1c.6.6 1 1.4 2.2 1.4v-16.6c0-.6-.5-1.3-1-1.8-6.2-6.3-12.5-12.6-18.8-18.8-.6-.6-1.2-1-1.8-1.5v-2.9c.8.5 1.6.9 2.3 1.6 5.7 5.6 11.3 11.3 17 16.9.6.6 1.2 1.2 2 1.9.2-.7.3-.9.3-1.2v-15.6c0-.6-.4-1.4-.8-1.8-6.3-6.4-12.6-12.7-19-19-.5-.5-1.2-.7-1.8-1.1v-3.4c.5-.4 1.1-.7 1.5-1.2 5.9-5.9 11.8-11.7 17.6-17.6.4-.4.7-.8.8-1.1-3.1-3-6-5.9-9-8.9-.4.4-1 .9-1.5 1.4-2.5 2.5-4.9 5-7.5 7.4-.5.5-1.3.8-1.9 1.1v-2.9c3.1-3 6.1-6 9.2-9 .1-.1 0-.3.1-.6C6.6 78 3.8 75.2 1 72.5c-.3-.3-.7-.3-1-.5v-3.4c.8.6 1.6 1.1 2.2 1.7l18.3 18.3c.6.6 1.3 1.1 1.6 1.4l9-9c0-.1-.2-.3-.4-.6-9.7-9.6-19.4-19.3-29.1-29-.4-.4-1-.7-1.6-1V47c.8.6 1.7 1.2 2.4 1.9C12 58.4 21.5 68 31.1 77.5c.7.7 1.4 1.3 2 1.9 2.4-1.8 8-7.6 8.9-9.1-.4-.4-.7-.8-1.1-1.2l-39-39c-.5-.5-1.3-.9-1.9-1.4v-3.4c.8-.6 1.6-1 2.2-1.7C7.5 18.5 12.7 13.2 18.1 8c2.1-2 3.3-4 2.9-6.9-.1-.4.1-.8.2-1.2h1.9c.1 1 .2 2.1.1 3.1-.1 1.4.3 2.4 1.4 3.4 1.9 1.8 3.7 3.7 5.6 5.6.3.3.8.6 1.5 1V-.1h2.4V14c0 1 0 1.9.8 2.7 2.2 2.2 4.4 4.4 6.7 6.6.1.1.4.1 1 .2V2.8c0-.9.1-1.9.2-2.8h1.9c0 1 .1 1.9.1 2.9v21.8c0 1.4.3 2.4 1.4 3.4 1.9 1.8 3.7 3.7 5.6 5.6.3.3.8.6 1.5 1v-5.4c0-9.7.1-19.5.1-29.2h2.4c0 12.1-.1 24.1-.1 36.2 0 1.1.5 1.8 1.2 2.5 2.2 2.1 4.3 4.3 6.5 6.4.4.3.8.6 1.5 1V.1h2.4c.1.5.1 1 .3 1.8.6-.9 1.1-1.4 1.5-1.9h3.4c-1.3 1.4-2.6 2.8-4 4.1-1 .9-1.4 1.9-1.3 3.2.1 4.6 0 9.3 0 13.9 0 .6.1 1.2.2 2.2.8-.7 1.3-1.1 1.8-1.5C76 15 82.8 8.3 89.5 1.5c.5-.5.8-1 1.2-1.5h3.4c-.6.7-1.1 1.4-1.7 2-7.8 7.9-15.7 15.7-23.6 23.6-1.2 1.2-1.7 2.3-1.6 4 .1 4.4 0 8.8 0 13.2 0 .8.1 1.5.2 2.8 1-1 1.7-1.6 2.4-2.3C81.4 31.7 93 20 104.8 8.4c2.2-2.2 3.8-4.2 3.2-7.4-.2-.4 0-.7 0-1h1.9c.1.9.3 1.9.2 2.8-.1 1.6.4 2.8 1.6 3.8 1.2 1 2.3 2.2 3.4 3.4l3.2 3.2c.2-.7.4-.9.4-1.2 0-4-.1-8-.1-12h2.4c0 .9.1 1.8.1 2.6v11.5c0 1.3.3 2.3 1.3 3.2 1.9 1.7 3.6 3.6 5.5 5.4.4.3.8.6 1.5 1.1.1-1.1.1-1.9.1-2.7V8.6c0-2.9.1-5.7.1-8.6h1.9c.1.9.2 1.7.2 2.6v22c0 1.4.3 2.4 1.4 3.4 1.9 1.8 3.7 3.7 5.6 5.6.3.3.8.5 1.5 1V0h2.4v35c0 1.8.5 3.2 1.9 4.4 2 1.8 3.9 3.8 5.8 5.7.3.3.8.6 1.4.9.1-.7.1-1.1.1-1.5V-.1h2.4c.1.5.2 1 .3 2 .7-.9 1.2-1.4 1.6-2h3.4c-1.4 1.4-2.7 2.9-4.1 4.3-.7.7-1.2 1.4-1.2 2.5v15.5c0 .3.1.6.2 1.3 8.1-8 15.9-15.8 23.7-23.6h2.9c-.6.7-1.1 1.5-1.8 2.2l-23.6 23.6c-1 1-1.5 1.9-1.5 3.3.1 4.8 0 9.6 0 14.4 0 .5.1 1 .2 2 1-.9 1.7-1.6 2.3-2.2C168 31.8 179.4 20.3 191 9c2.7-2.6 4.5-5.2 3.9-9.1h2.4c-.6 3.6.5 6.5 3.5 8.7 1.1.8 1.9 1.9 2.9 2.9.5.5 1 .9 1.9 1.7.1-1.2.1-2 .2-2.7.1-3.5.1-7 .2-10.5h1.9c.1.9.2 1.7.2 2.6v11.3c0 1.4.3 2.4 1.3 3.4 1.9 1.7 3.6 3.6 5.5 5.4.4.4.8.6 1.7 1.2V0h2.4c0 8.4 0 16.8-.1 25.1 0 1.1.3 2 1.1 2.8l5.4 5.4c.4.4.8.6 1.6 1.2.1-1.2.2-2 .2-2.9V2.4c0-.8-.1-1.6-.2-2.4h2.4c0 .9.1 1.8.1 2.6v32.6c0 1.5.4 2.7 1.5 3.8 2.1 2 4.1 4 6.1 6.1.4.4.8.6 1.7 1.3V3.2c0-1 .1-2.1.2-3.1h1.9c.1.5.3 1 .5 1.7.8-.7 1.4-1.2 1.9-1.7h2.9c-1.3 1.4-2.5 2.9-3.9 4.2-.9.9-1.3 1.9-1.3 3.2.1 4.8 0 9.6 0 14.4 0 .5.1 1 .2 1.6 8-7.9 15.8-15.6 23.6-23.3h2.9c-.5.7-1 1.4-1.5 2-7.8 7.9-15.7 15.7-23.6 23.5-1.2 1.2-1.7 2.4-1.6 4 .1 4.6 0 9.1 0 13.7 0 .6.1 1.2.3 2.3.9-.9 1.6-1.4 2.2-2l34.9-34.9C282 5 282 5 281.8 0h2.4c0 1 .1 2.1 0 3.1-.2 1.5.4 2.6 1.5 3.5 1.8 1.7 3.5 3.5 5.2 5.2.4.4.9.7 1.9 1.5V0h2.4c0 4.9-.1 9.7-.1 14.6 0 1 .3 1.8 1.1 2.5 1.9 1.8 3.7 3.7 5.6 5.6.4.3.8.6 1.6 1.1V0h2.4c0 7.2.2 14.4-.1 21.5-.2 3.8.8 6.6 3.7 8.9 1.5 1.2 2.8 2.7 4.7 4.5 0-1.5.1-2.3.1-3.1v-29c0-1 .1-1.9.2-2.9h1.9c.1 1 .2 2.1.2 3.1v32.1c0 1.6.4 2.7 1.5 3.8 2 1.9 4 3.9 6 5.9.4.4.9.8 1.8 1.5V3.1c0-1 .1-2.1.1-3.1h1.9c.2.5.3 1 .6 1.8l1.8-1.8h2.9c-1.3 1.4-2.4 2.9-3.8 4.2-.9.9-1.3 1.9-1.3 3.2v13.7c0 .7.1 1.3.3 2.4.7-.6 1.2-.9 1.6-1.3C337 15.1 344 8 351.1.9c.3-.3.5-.6.7-.9h3.4c-.6.6-1.2 1.3-1.8 1.9L330 25.3c-1.3 1.3-2 2.7-2 4.6.1 4.3 0 8.6 0 12.9 0 .7.1 1.5.2 2.7 1-.9 1.6-1.4 2.1-2C342.2 31.6 354 19.7 366 8c2-2 3.3-4 2.9-6.9-.1-.4.1-.8.2-1.2h1.9c.1 1 .2 2.1.1 3.1-.1 1.4.3 2.4 1.4 3.4 1.9 1.8 3.7 3.7 5.6 5.6.3.3.8.6 1.5 1V-.1h2.4V14c0 1 0 1.9.8 2.7 2.2 2.2 4.4 4.4 6.7 6.6.1.1.4.1 1 .2V2.8c0-.9.1-1.9.2-2.8h1.9c0 1 .1 1.9.1 2.9v21.8c0 1.4.3 2.4 1.4 3.4 1.9 1.8 3.7 3.7 5.6 5.6.3.3.8.6 1.5 1v-5.4c0-9.7.1-19.5.1-29.2h2.4c0 3.3-.1 6.6-.1 9.8v25.4c0 1.1-.1 2.2.9 3.1 2.7 2.5 5.3 5.1 7.9 7.7v5.8c-2.4 2.5-4.8 5-7.3 7.6 2.6 2.7 4.9 5.2 7.3 7.8v2.9c-3-2.9-6-5.8-8.9-8.6l-9 9c.3.4.8 1 1.4 1.5 2.5 2.5 4.9 5 7.4 7.4 3 3 6 5.9 9 8.8v3.4c-6.6-6.5-13.2-13.1-19.6-19.4-3.1 3.1-6 6.1-9 9.1.4.5 1.1 1.2 1.7 1.8l24.9 24.9c.6.6 1.3 1.2 1.9 1.8v3.4C402.2 103.2 392 93 382 83.1c-3.1 3.1-6 6-9 9.1.4.4.9 1 1.6 1.6l27.1 27.1c3.6 3.6 7.1 7.1 10.7 10.6v6.7c-.1.1-.3.2-.4.3l-37.6 37.6c-.5.6-1.1 1.1-1.4 1.5 3 3 5.9 6 9 9 .5-.5 1.2-1.1 1.9-1.7 9.5-9.5 19-18.9 28.5-28.4v3.4c-9.4 9.4-18.8 18.7-28.1 28.1-.3.3-.4.6-.4.6 3.1 3.1 6 5.9 9 8.9.5-.5 1.2-1.1 1.9-1.8 5.9-5.8 11.8-11.7 17.6-17.6v3.4c-5.9 5.9-11.8 11.7-17.7 17.6-.1.1-.2.4-.3.6 2.1 2.7 7.4 7.8 9 8.7.6-.6 1.2-1.2 1.9-1.8 2.3-2.3 4.7-4.6 7-6.8v2.9c-2.4 2.6-4.9 5.1-7.3 7.8 2.6 2.7 5 5.1 7.3 7.6v2.9c-2.2-2.1-4.4-4.2-6.5-6.2-.5-.5-1.1-1-1.7-1.5-.2.1-.3.1-.5.2v64.1c0 5.5.1 11 0 16.5 0 1.8.6 3.2 1.9 4.4 2.4 2.2 4.6 4.6 6.9 7v5.8c-2.5 2.4-4.9 4.8-7.4 7.4 2.6 2.7 5 5.1 7.4 7.5v3.4c-3-3-6-6.1-8.8-8.9-3.1 3.2-6 6.1-9.1 9.2 5.8 5.9 11.8 11.9 17.8 17.9v2.9c-.6-.5-1.3-.9-1.8-1.5l-16.1-16.1c-.6-.6-1.2-1.2-1.7-1.6-3.1 3-6 5.9-9.1 9 .5.6 1.2 1.2 1.8 1.9 9 9 17.9 18 26.9 27v2.9c-.6-.5-1.3-.9-1.8-1.5L383.7 344c-.7-.7-1.4-1.3-1.8-1.7-3.1 3.1-6 6-9 9.1.5.5 1.1 1.2 1.8 1.8l26.8 26.8c3.6 3.6 7.2 7.3 10.8 10.9v2.9c-.4-.3-.9-.6-1.3-1-5-5-10.1-10-15.1-15.1-.6-.6-1.2-1.2-2.2-2.1v36.8c1-.9 1.6-1.5 2.2-2.1 5-5 10-10.1 15.1-15.1.4-.4.8-.7 1.3-1v2.9c-.8.8-1.5 1.7-2.3 2.4-11.8 11.8-23.6 23.6-35.4 35.5-.7.7-1.3 1.4-1.5 1.7 3.1 3.2 5.9 6.1 9.2 9.5.5-.7 1-1.5 1.7-2.2 8.9-8.9 17.7-17.8 26.6-26.6.5-.5 1.2-1 1.8-1.5v2.9c-.8.8-1.5 1.6-2.3 2.4l-24.6 24.6c-.7.7-1.3 1.4-1.8 1.9 3.1 3.1 6 6 9.1 9 .5-.4 1.1-1 1.7-1.6l16.1-16.1c.5-.5 1.2-1 1.8-1.5v2.9c-6 6.1-12.1 12.2-17.8 17.9 3.1 3.1 6.1 6 8.9 8.9 2.8-2.7 5.8-5.7 8.8-8.6v3.4l-7.3 7.3c2.6 2.7 4.9 5.1 7.3 7.6v3.4c-2.8-2.6-5.4-5.5-8.3-8.1-.2.1-.3.2-.5.2v80c0 .6-.1 1.3 0 1.9.2.7.4 1.6.9 2.1 2.6 2.6 5.2 5.2 7.8 7.7v5.8c-2.4 2.5-4.8 5-7.3 7.6 2.6 2.7 4.9 5.2 7.3 7.8v2.9c-3-2.9-6-5.8-8.9-8.6l-9 9c.4.4.9 1 1.4 1.5 2.5 2.5 4.9 5 7.4 7.4 3 3 6 5.9 9 8.8v3.4c-6.6-6.5-13.2-13.1-19.6-19.3-3.1 3.1-6 6-9 9.1.4.5 1.1 1.2 1.7 1.8l24.9 24.9c.6.6 1.3 1.2 1.9 1.8v3.4c-10.2-10.1-20.3-20.2-31-30.8-3.1 3.1-5.9 6.1-8.9 9.2.9.9 1.5 1.6 2.1 2.2l27.1 27.1c3.6 3.6 7.1 7.1 10.7 10.6v6.7c-.1.1-.3.2-.4.3L374 694.3c-.5.6-1.1 1.1-1.4 1.5 3 3 5.9 6 9 9 .5-.5 1.2-1.1 1.9-1.7 9.5-9.5 19-18.9 28.5-28.4v3.4c-9.4 9.4-18.8 18.7-28.1 28.1-.3.3-.4.6-.4.6 3.1 3.1 6 5.9 9 8.9.5-.5 1.2-1.1 1.9-1.8 5.9-5.8 11.8-11.7 17.6-17.6v3.4c-5.9 5.9-11.8 11.7-17.7 17.6-.1.1-.2.4-.3.6 2.1 2.7 7.4 7.8 9 8.7.6-.6 1.2-1.2 1.9-1.8 2.3-2.3 4.7-4.6 7-6.8v2.9c-2.4 2.6-4.9 5.1-7.3 7.8 2.6 2.7 5 5.1 7.3 7.6v2.9c-2.2-2.1-4.4-4.2-6.5-6.2-.5-.5-1.1-1-1.7-1.5-.2.1-.3.1-.5.2v64.1c0 5.5.1 11 0 16.5 0 1.8.6 3.2 1.9 4.4 2.4 2.2 4.6 4.6 6.9 7v5.8c-2.5 2.4-4.9 4.8-7.4 7.4 2.6 2.7 5 5.1 7.4 7.5v3.4c-3-3-6-6.1-8.8-8.9-3.1 3.2-6 6.1-9.1 9.2 5.8 5.9 11.8 11.9 17.8 17.9v2.9c-.6-.5-1.3-.9-1.8-1.5L394 851.3c-.6-.6-1.2-1.2-1.7-1.6l-9 9c.5.5 1.1 1.2 1.8 1.9 9 9 17.9 18 26.9 27v2.9c-.6-.5-1.3-.9-1.8-1.5l-26.8-26.8c-.7-.7-1.4-1.3-1.8-1.7-3.1 3.1-6 6-9 9.1.5.5 1.1 1.2 1.8 1.8l26.8 26.8c3.6 3.6 7.2 7.3 10.8 10.9v2.9c-.4-.3-.9-.6-1.3-1-5-5-10.1-10-15.1-15.1-.6-.6-1.2-1.2-2.2-2.1v36.8c1-.9 1.6-1.5 2.2-2.1 5-5 10-10.1 15.1-15.1.4-.4.8-.7 1.3-1v2.9c-.8.8-1.5 1.7-2.3 2.4-11.8 11.8-23.6 23.6-35.4 35.5-.7.7-1.3 1.4-1.6 1.7l9.3 9.3c.4-.5.9-1.4 1.6-2.1 8.9-8.9 17.7-17.8 26.6-26.6.5-.5 1.2-1 1.8-1.5v2.9c-.8.8-1.5 1.6-2.3 2.4l-24.6 24.6c-.7.7-1.3 1.4-1.8 1.9 3.1 3.1 6 6 9.1 9 .4-.4 1.1-1 1.7-1.6l16.1-16.1c.5-.5 1.2-1 1.8-1.5v2.9c-6 6.1-12.1 12.2-17.8 17.9 3.1 3.1 6.1 6 9 8.9 2.8-2.7 5.8-5.7 8.8-8.6v3.4l-7.3 7.3c2.6 2.7 4.9 5.1 7.3 7.6v3.4c-2.8-2.6-5.4-5.5-8.3-8.1-.2.1-.3.2-.5.2v80c0 .6-.1 1.3 0 1.9.2.7.4 1.6.9 2.1 2.6 2.6 5.2 5.2 7.8 7.7v5.8c-2.4 2.5-4.8 5-7.4 7.6 1.4 1.4 2.6 2.6 3.8 3.9 1.2 1.3 2.4 2.5 3.6 3.8v2.9c-3-2.9-6-5.8-8.9-8.6l-9 9c.3.4.8.9 1.4 1.5 2.5 2.5 4.9 5 7.4 7.4 3 3 6 5.9 9 8.8v3.4c-6.6-6.5-13.2-13.1-19.6-19.4-3.1 3.1-6 6.1-9 9.1.4.5 1.1 1.2 1.7 1.8l24.9 24.9c.6.6 1.3 1.2 1.9 1.8v3.4c-.1-.1-.3-.1-.4-.3-9.5-9.5-18.9-19-28.4-28.5-.6-.6-1.3-1.1-1.8-1.6-3 2.4-8 7.5-9 9.5.5.4 1.3.8 1.8 1.3l18.3 18.3c.7.7 1.2 1.5 1.8 2.2h-3.4c-.4-.6-.8-1.2-1.3-1.7l-5.4-5.4c-.4-.4-.8-.6-1.5-1.1v8.2H380c0-3-.1-5.9 0-8.9.1-1.6-.5-2.7-1.6-3.8-1.8-1.7-3.5-3.5-5.3-5.2-.4-.4-.9-.8-1.8-1.5v19.4h-2.9c-3.3-3.2-6.6-6.4-10.1-9.8l-8.2 8.2c-.3.3-.3 1-.5 1.5h-3.8c.5-.7.9-1.5 1.5-2.1 6.1-6.2 12.3-12.3 18.4-18.5.6-.6 1.1-1.2 1.5-1.6-3.1-3.1-6.1-6-9.1-8.9 0 0-.3.2-.5.4l-29.1 29.1c-.4.4-.7 1-1 1.6h-2.4c-.5-.5-.9-1.1-1.4-1.6l-28.3-28.3c-.5-.5-1.1-.9-1.4-1.2-3.1 3-6 5.9-9.1 8.9.5.5 1.1 1.2 1.7 1.8l18.3 18.3c.7.7 1.3 1.4 1.9 2.2h-3.4c-1.9-2.6-6.5-7-8.2-7.6v7.6h-2.4c0-3.1-.1-6.2-.1-9.4 0-1.1-.3-2-1.1-2.8-2-1.9-4-4-6-5.9-.3-.3-.7-.5-1.5-1v19h-3.4c-.6-.7-1.1-1.6-1.7-2.2-2.5-2.6-5.1-5.1-7.8-7.8-2.9 2.9-5.7 5.7-8.4 8.5-.3.3-.3 1-.4 1.6h-3.8c.5-.7.8-1.5 1.4-2.1 6.1-6.2 12.3-12.3 18.5-18.5.6-.6 1.1-1.2 2-2.2-1.7-1.6-3.2-3-4.8-4.4-1.5-1.4-2.7-3.1-4.5-4.2-.6.6-1.2 1-1.7 1.6-9.3 9.3-18.7 18.6-28 28-.6.6-1 1.2-1.6 1.8h-2.4c-.4-.6-.8-1.4-1.3-1.9-9.4-9.4-18.8-18.9-28.3-28.3-.4-.4-.9-.8-1-.8-3.1 3.1-6 5.9-9 8.9.4.4 1 1.1 1.6 1.7l18.1 18.1c.6.6 1.1 1.5 1.6 2.2h-2.9c-2.8-3.4-6.8-7.2-8.3-7.8l-.3 7.8h-1.9c-.1-3-.1-6-.2-9.1 0-.8-.1-1.9-.6-2.4-2.4-2.6-5-5.1-7.9-8-.1 1.3-.2 2.1-.2 2.8v12.9c0 1.3-.1 2.5-.2 3.8h-2.9c-.2-.3-.3-.7-.6-1-2.7-2.8-5.5-5.5-8.3-8.3-.2-.2-.5-.3-1-.5-2.8 2.8-5.5 5.5-8.2 8.3-.3.3-.1 1-.2 1.5h-4.3c.6-.7 1.1-1.4 1.7-2 6.1-6.2 12.3-12.3 18.5-18.5.6-.6 1.2-1.2 1.9-2-3-3.1-5.9-6-8.9-9-.7.6-1.2 1-1.7 1.5l-28.3 28.3c-.5.5-.9 1.1-1.3 1.7h-2.4c-.5-.6-.9-1.3-1.4-1.9-9.4-9.4-18.8-18.9-28.3-28.3-.4-.4-.9-.8-1-.8-3.1 3-6.1 5.9-9.1 8.9.4.4 1 1 1.5 1.6l18.3 18.3c.7.7 1.2 1.5 1.7 2.2H129c-.4-.6-.7-1.2-1.2-1.7l-5.4-5.4c-.4-.3-.8-.6-1.6-1.1v8.3h-2.4c0-3.2.1-6.4.1-9.6 0-1-.4-1.8-1.1-2.5-2-1.9-4-4-5.9-5.9-.4-.4-.8-.6-1.6-1.2v3c0 5.4-.1 10.9-.1 16.3h-2.9c-2.9-3.6-6.4-6.6-9.8-10l-8.3 8.3c-.6.6-.6 1.1-.2 1.7h-4.3c.6-.7 1.1-1.6 1.7-2.2l18.3-18.3c.6-.6 1.1-1.2 1.5-1.6l-9-9c-.2.2-.6.4-.9.8l-28.6 28.6c-.5.5-.8 1.1-1.2 1.7h-2.4c-.4-.6-.8-1.2-1.3-1.7l-28.3-28.3c-.5-.5-1.1-.9-1.7-1.4-3.1 3-6 5.9-9.3 9.3 1 .7 1.7 1 2.3 1.6l18.3 18.3c.7.7 1.2 1.5 1.8 2.2h-3.4c-.4-.6-.8-1.2-1.3-1.7l-5.4-5.4c-.4-.4-.8-.6-1.5-1.1v8.2h-2.4c0-3-.1-5.9 0-8.9.1-1.6-.5-2.7-1.6-3.8-1.8-1.7-3.5-3.5-5.3-5.2-.4-.4-.9-.8-1.8-1.5v19.4h-2.9c-3.3-3.2-6.6-6.4-10.1-9.8-2.7 2.7-5.4 5.4-8.1 8.2-.3.3-.3 1-.5 1.5h-2.4v-2.4c.5-.4 1.1-.7 1.5-1.2 5.9-5.9 11.8-11.7 17.6-17.6.4-.4.7-.8.8-1.1-3.1-3-6-5.9-9-8.9-.4.4-1 .9-1.5 1.4-2.5 2.5-4.9 5-7.5 7.4-.5.5-1.3.8-1.9 1.1v-2.9c3.1-3 6.1-6 9.2-9 .1-.1 0-.3.1-.6-2.7-2.7-5.4-5.5-8.2-8.2-.3-.3-.7-.3-1-.5v-3.4c.8.6 1.6 1.1 2.2 1.7l18.3 18.3c.6.6 1.3 1.1 1.6 1.4l9-9s-.2-.3-.4-.5L.5 1087.1c-.4-.4-1-.7-1.6-1v-3.4c.8.6 1.7 1.2 2.4 1.9 9.6 9.5 19.1 19.1 28.7 28.6.7.7 1.4 1.3 2 1.9 2.4-1.8 8-7.6 8.9-9.1-.4-.4-.7-.8-1.1-1.2l-39-39c-.5-.5-1.3-.9-1.9-1.4v-3.4c.6-.4 1.2-.7 1.7-1.2 6-6 12-12 18-17.9.9-.8 1.3-1.7 1.2-2.9v-14.6c0-.5-.1-1-.3-2-.9.8-1.5 1.4-2.1 2-5.4 5.4-10.8 10.8-16.3 16.2-.7.6-1.5 1.1-2.3 1.6v-3.4c.6-.4 1.3-.6 1.8-1.1 5.8-5.7 11.6-11.5 17.3-17.3.4-.4.7-1 .9-1.2l-9-9c-.5.4-1.1.9-1.6 1.5L.9 1019c-.6.6-1.4 1.1-2.1 1.6v-3.4c.6-.4 1.3-.8 1.9-1.4 1.7-1.6 3.3-3.2 4.9-4.9.9-.9 1.7-1.8 2.8-2.8-2.9-2.9-5.7-5.7-8.5-8.4-.2-.2-.7-.2-1.1-.3V996c.8.5 1.6.9 2.3 1.5 6 5.9 11.9 11.9 17.8 17.8.6.6 1.3 1.2 1.6 1.5 10.4-10.3 20.6-20.5 30.7-30.6-2.7-2.7-5.7-5.6-8.7-8.7-2.3 2.2-4.7 4.7-7.1 7.1-2.4 2.4-4.7 4.8-7.1 7.1L21 999c-.9-.8-1.5-1.4-2.1-2-5.9-5.9-11.8-11.8-17.7-17.6-.7-.6-1.5-1.1-2.3-1.6v-3.4c.5-.4 1.1-.7 1.5-1.1 5.9-5.9 11.8-11.7 17.6-17.6.4-.4.7-.8.8-1.1-3.1-3-6-5.9-9-8.9-.4.3-1 .9-1.5 1.4-2.5 2.5-4.9 5-7.5 7.4-.5.5-1.3.8-1.9 1.1v-2.9c3.1-3 6.1-6 9.2-8.9.1-.1 0-.3 0-.6-2.7-2.7-5.4-5.5-8.2-8.2-.3-.3-.7-.4-1-.5v-3.4c.8.6 1.6 1.1 2.2 1.7 5.8 5.7 11.5 11.5 17.3 17.3.5.5 1.1 1 1.7 1.6.2-.4.3-.6.3-.7 0-5.4 0-10.7.1-16.1 0-.9-.5-1.4-1.1-2C13.2 926.7 7 920.5.7 914.3c-.5-.5-1.3-.9-1.9-1.4v-3.4c.7.6 1.6 1.1 2.2 1.8l17.3 17.3c.5.5 1.1 1 1.7 1.6.2-.4.3-.6.3-.7 0-5.4 0-10.7.1-16.1 0-.9-.5-1.4-1.1-2L1 893.1c-.7-.7-1.5-1.2-2.2-1.8v-3.4c.6-.4 1.3-.7 1.7-1.2 5.8-5.7 11.5-11.5 17.3-17.3.4-.4.8-.9.9-1.2-3.1-3-6-5.9-9.1-8.9L1 867.9c-.7.6-1.5 1.1-2.3 1.7v-3.4c.9-.7 1.8-1.2 2.6-2 2.3-2.2 4.6-4.6 7-7-1.9-1.9-3.6-3.7-5.4-5.4l-4.2-3.9V845c.8.5 1.6.9 2.3 1.5 6.1 6 12.1 12.1 18.2 18.1.6.6 1.3 1.2 1.9 1.8 2.2-1.5 8-7.5 8.9-9.1-.3-.4-.7-.8-1.1-1.2L.4 827.6c-.5-.5-1.1-.9-1.7-1.4v-2.9c.8.5 1.6.9 2.3 1.6 9.6 9.6 19.2 19.2 28.9 28.8.7.7 1.4 1.3 1.8 1.7 3.1-3.1 6-6 9.1-9-.4-.4-.9-1-1.5-1.6L1 806.5c-.7-.7-1.4-1.3-2.2-1.9v-2.9c.3-.2.7-.4 1-.7l19-19c.7-.7 1-1.6.9-2.6v-14.6c0-.5-.2-1-.4-1.8-.8.8-1.4 1.3-2 1.8-5.5 5.5-11 11-16.5 16.4-.6.6-1 1.5-2.1 1.3v-2.9c.6-.5 1.3-.9 1.9-1.4l17.1-17.1c.4-.4.8-.9 1.1-1.3-3.1-3-6.1-6-9.1-9-.4.3-1 .9-1.5 1.4-2.5 2.5-4.9 5-7.5 7.4-.5.5-1.3.8-1.9 1.2v-2.9c3.4-2.8 6.4-6.1 9.5-9.3l-8.4-8.4c-.3-.3-.7-.3-1.1-.5v-3.4c.8.6 1.6 1 2.3 1.7l18 18c.6.6 1.3 1.1 1.8 1.7 3.7-3 29.8-29.4 30.4-30.5-3-3-5.9-6-8.9-9L21 739.6c-.9-.8-1.6-1.5-2.3-2.1-5.9-5.9-11.8-11.8-17.7-17.6-.7-.7-1.5-1.2-2.2-1.8v-3.4c.6-.4 1.3-.7 1.7-1.1 5.8-5.7 11.5-11.5 17.3-17.3.4-.4.8-1 .9-1.2-3.1-3.1-6-6-9-8.9-.4.4-1 .9-1.6 1.5-2.4 2.4-4.8 4.9-7.3 7.3-.6.6-1.4 1-2.1 1.5v-3.4c.9-.6 1.8-1.2 2.6-2 2.3-2.2 4.6-4.6 7.1-7.1-3.4-3.2-6.5-6.2-9.7-9.2v-2.9c.8.5 1.6.9 2.3 1.5l17.1 17.1c.6.6 1 1.4 2.2 1.4v-16.6c0-.6-.5-1.3-1-1.8-6.2-6.3-12.5-12.6-18.8-18.8-.6-.6-1.2-1-1.8-1.5v-2.9c.8.5 1.6.9 2.3 1.6 5.7 5.6 11.3 11.3 17 16.9.6.6 1.2 1.2 2 1.9.2-.7.3-.9.3-1.2v-15.6c0-.6-.4-1.4-.8-1.8-6.3-6.4-12.6-12.7-19-19-.5-.5-1.2-.7-1.8-1.1v-3.4c.5-.4 1.1-.7 1.5-1.2 5.9-5.9 11.8-11.7 17.6-17.6.4-.4.7-.8.9-1.1-3.1-3-6-5.9-9-8.9-.4.4-1 .9-1.5 1.4-2.5 2.5-4.9 5-7.5 7.4-.5.5-1.3.8-1.9 1.1v-2.9c3.1-3 6.1-6 9.2-9 .1-.1 0-.3.1-.6-2.7-2.7-5.4-5.5-8.2-8.2.9 1.2.5 1.1.1.9zm370-349.7l30.3-30.3c-2.7-2.7-5.6-5.6-8.6-8.7l-7.1 7.1c-2.4 2.4-4.7 4.8-7.1 7.1-2.4 2.4-4.8 4.8-7.4 7.3l-21.5-21.5c-3.1 3.2-6.1 6-8.7 8.8 10.2 10.3 20.2 20.3 30.1 30.2zm.5 518.1c3.2-2.6 29.4-29.1 30.1-30.3-3-3-5.9-5.9-9-8.9l-5.2 5.2-5.4 5.4-5.4 5.4c-1.8 1.8-3.4 3.7-5.6 5.3l-5.4-5.4-5.3-5.3-5.4-5.4c-1.8-1.7-3.3-3.6-4.9-4.8-3.1 3-6 5.8-8.7 8.4 9.9 10.1 20 20.2 30.2 30.4zM217.7 460.1c-7.1 7-14.3 14.2-21.6 21.6l-21.2-21.2c-3.1 3.1-6 6.1-8.6 8.7 9.9 9.9 20 20 29.8 29.9l30.3-30.3c-2.7-2.7-5.7-5.6-8.7-8.7zM166.2 987c10 10 20 20.1 29.9 30l30.5-30.5c-1.6-2.2-7.3-7.7-8.9-8.6l-21.6 21.6-21.2-21.2-8.7 8.7zm29.7-746.9c10.1-10.1 20.4-20.4 30.8-30.7l-8.6-8.6-21.9 21.9c-7.3-7.2-14.3-14.4-21.8-21.7-1.6 1.8-3.1 3.3-4.5 4.8s-3.1 2.7-4 4.2c10.2 10.3 20.2 20.4 30 30.1zm87.4.4c3.1-2.5 29.6-29.2 30.3-30.4-3-3-5.9-5.8-9-8.9l-21.5 21.5c-7.3-7.2-14.3-14.4-21.4-21.4-3.2 2.6-8 7.6-8.7 8.9 10 10.1 20.1 20.2 30.3 30.3zm-87.2 517.6c10-10 20.2-20.3 30.3-30.3-2.8-2.7-5.7-5.6-8.8-8.7L196 740.7c-7.3-7.3-14.4-14.3-21.1-21.1l-8.7 8.7c10 9.8 20 19.9 29.9 29.8zm117.7-30.8c-1.4-1.3-2.9-2.7-4.4-4.2-1.5-1.4-2.9-2.9-4.4-4.4l-21.9 21.9-4.4-4.4-4.2-4.2-4.4-4.4c-1.4-1.4-2.8-2.9-4.3-4.2-1.4-1.3-2.6-3-4-3.8-3.1 3-5.9 5.9-8.6 8.6l30 30c9.9-10.1 20.1-20.4 30.6-30.9zM108.9 499.2l30.4-30.4c-2.7-2.7-5.6-5.7-8.7-8.8L109 481.6l-21.2-21.2c-3.1 3.1-6 6.1-8.8 8.9l29.9 29.9zm21.9 478.6l-5.4 5.4-5.4 5.4-5.4 5.4c-1.8 1.8-3.5 3.7-5.6 5.4l-21.3-21.3c-2.8 2.2-8 7.6-8.9 9.2l29.9 29.9 30.8-30.8c-2.7-2.5-5.6-5.4-8.7-8.6zm260.9.1l-21.6 21.6-5.4-5.4-5.4-5.4-5.3-5.3c-1.8-1.8-3.5-3.6-5.2-5.1l-8.9 8.9c1.7 2.3 28.9 29.3 30.4 30.1 4.1-3.4 29.6-29.2 30.3-30.6-2.9-2.8-5.8-5.7-8.9-8.8zM370 481.7l-10.8-10.8-10.5-10.5-9 9 30.3 30.3c3.6-2.9 29.9-29.4 30.6-30.7-3-3-5.9-5.9-9-8.9L370 481.7zm-230.1-272c-2.9-2.9-5.8-5.9-8.9-8.9-7.4 7.4-14.6 14.5-21.9 21.9L98.4 212l-10.5-10.5c-3 3-6 5.9-8.9 8.9 1.4 2 28.8 29.3 30.2 30 10.1-10.2 20.3-20.3 30.7-30.7zm-30.7 548.4l30.3-30.3c-2.8-2.7-5.7-5.6-8.8-8.8-7.1 7-14.2 14.2-21.6 21.6l-21.5-21.5-8.7 8.7 30.3 30.3zm143.9-289c10 10 20.1 20.2 29.9 30l30.3-30.3c-2.7-2.7-5.6-5.7-8.7-8.8l-21.7 21.7-21.2-21.2-8.6 8.6zm0 517.9c10 10 20 20.1 29.9 30 10.1-10 20.3-20.3 30.3-30.3-2.7-2.7-5.6-5.7-8.7-8.8L283 999.5l-21.2-21.2c-3.1 3.2-6 6.1-8.7 8.7zm72.7-163.6v-83c0-.5-.1-1-.4-1.3-2.7-2.7-5.5-5.3-8.2-8 0 0-.1 0-.5.1 0 .8-.1 1.6-.1 2.4v78.2c0 1.7.5 3 1.8 4.2 2 1.8 3.7 3.7 5.6 5.6.3.5.9.9 1.8 1.8zm0-518v-83c-.1-.5-.1-1-.4-1.3-2.7-2.7-5.5-5.3-8.2-8 0 0-.1 0-.5.1 0 .8-.1 1.6-.1 2.4v78.2c0 1.7.5 3 1.8 4.2 2 1.8 3.7 3.7 5.6 5.6.3.6.9 1 1.8 1.8zM229.6 731c0 .7-.1 1.2-.1 1.7v79.9c0 1.2.3 2.1 1.2 3 2.2 2.1 4.3 4.3 6.5 6.4.3.3.8.6 1.7 1.1v-80.5c0-.6.1-1.3 0-1.9-.1-.7-.3-1.4-.8-1.9-2.4-2.5-5-5-7.5-7.5-.2-.1-.5-.1-1-.3zm8.6-426c.2-.1.5-.2.7-.3v-81.4c.1-1.1-.3-2-1.1-2.8l-6.6-6.6c-.3-.3-.8-.5-1.5-.9v3.2c0 25 .1 50-.1 75.1 0 3.8.8 6.6 3.8 8.9 1.6 1.4 3.1 3.2 4.8 4.8zm78.9 166.8l-.6.3v81.3c0 1.3.4 2.3 1.3 3.2 2.2 2.1 4.3 4.3 6.5 6.4.3.3.8.6 1.5 1v-3.2c0-25-.1-50.1.1-75.1 0-3.7-.7-6.6-3.7-8.9-1.9-1.4-3.4-3.3-5.1-5zm-87 518c-.2.1-.4.1-.6.2v80.8c0 1.7.4 3 1.7 4.2 2.1 1.9 4 3.9 6 5.9.4.4.8.6 1.7 1.2v-80.5c0-.6.1-1.3 0-1.9-.1-.7-.3-1.5-.8-1.9-2.6-2.7-5.3-5.3-8-8zm8.6-425.3c.1-1.5.1-2.4.1-3.4v-78.9c.1-1.1-.4-2-1.2-2.8l-6.6-6.6c-.4-.3-.8-.6-1.5-1v77.1c0 2.2-.4 4.5.3 6.4.8 1.9 2.8 3.2 4.3 4.7 1.4 1.4 2.8 2.7 4.6 4.5zm77.9 425.1c-.1 1.1-.1 1.9-.1 2.7v78.5c0 1.7.4 3 1.7 4.2 2 1.8 3.7 3.7 5.6 5.6.5.5 1 .9 1.8 1.6.1-.9.2-1.4.2-2v-79.9c0-1.3-.4-2.3-1.4-3.2-2.1-2-4.1-4.1-6.1-6.1-.4-.4-.9-.8-1.7-1.4zM204.8 340.5c-13.7-13.8-27.5-27.6-41-41.2l-8.4 8.4 41.1 41.1 8.3-8.3zM339.9 556c1.2 1.8 40 40.4 41.1 41l8.5-8.5-41.1-41.1c-2.7 2.8-5.6 5.7-8.5 8.6zm49.7 550.6l-41.1-41.1-8.3 8.3c13.6 13.6 27.4 27.5 41.1 41.2 2.7-2.8 5.6-5.7 8.3-8.4zM226.9 836.3c-13.6-13.7-27.4-27.6-41-41.2-3.4 3.3-6.3 6.3-9.5 9.5 13.6 13.7 27.4 27.5 41.1 41.2 3.3-3.4 6.2-6.3 9.4-9.5zm-63-19.3c-3 3-5.8 5.9-8.8 8.8 1.2 1.8 39.9 40.4 41 41l8.7-8.7c-13.5-13.6-27.2-27.4-40.9-41.1zm13-530.9l41.2 41.2c2.7-2.7 5.6-5.7 8.3-8.3l-41.1-41.1c-2.7 2.5-5.6 5.4-8.4 8.2zM340 37.8l41.6 41.6c2.8-2.8 5.8-5.7 8.3-8.3l-41.6-41.6c-2.7 2.6-5.5 5.5-8.3 8.3zM68.4 825.5c13.7 13.7 27.6 27.5 41.1 41.1l8.3-8.3-41.1-41.1-8.3 8.3zm49.5-484.9c-13.8-13.8-27.6-27.7-41.2-41.2-2.7 2.7-5.6 5.6-8.5 8.6 1.7 2.4 40.1 40.4 41.3 41.1 2.8-3 5.7-5.9 8.4-8.5zM241.8 1085c13.7 13.8 27.5 27.6 41.3 41.4 2.5-1.7 8.3-7.7 9.1-9.2-2.5-3.1-40-40.4-41.4-41.2-2.9 2.8-5.8 5.7-9 9zm158.6 10.7l-41.1-41.1-8.4 8.4 41.2 41.2c2.7-2.8 5.6-5.7 8.3-8.5zM2.9 27.1l41.2 41.2 8.4-8.4C38.8 46.2 24.9 32.4 11.3 18.7l-8.4 8.4zm49.5 1068.8l-41.2-41.2c-2.7 2.7-5.6 5.6-8.3 8.2l41.2 41.2c2.7-2.6 5.6-5.5 8.3-8.2zM358.8 18.2c-1.4 1.5-2.9 3-4.2 4.5-1.4 1.5-3.1 2.7-4 4.3l41.7 41.7c2.8-2.8 5.8-5.8 8.5-8.6-14-14-27.8-27.8-42-41.9zM242.4 48.6c13.7 13.7 27.5 27.5 41.1 41 2.7-2.6 5.7-5.5 8.4-8.2l-41.2-41.2c-2.7 2.8-5.7 5.7-8.3 8.4zM2.9 544.9l41.2 41.2c2.7-2.7 5.6-5.6 8.3-8.2l-41.2-41.2c-2.7 2.6-5.6 5.5-8.3 8.2zm171.8 260.6c-3.3 3.3-6.3 6.2-8.9 8.9l41.5 41.5c2.7-2.7 5.7-5.6 8.9-8.9l-41.5-41.5zm117.5-206.3c-2.8-3.4-40-40.4-41.3-41.1-3 3-5.8 5.9-8.6 8.7l41.1 41.1c2.8-2.8 5.7-5.7 8.8-8.7zm108.3-21.3l-41.2-41.2c-2.8 2.7-5.7 5.7-8.4 8.4l41.2 41.2c2.7-2.8 5.6-5.7 8.4-8.4zM215.8 329.7l-41.6-41.6c-2.8 2.8-5.8 5.7-8.3 8.3l41.6 41.6 8.3-8.3zM338 1076.1l-8.8 8.8c2.1 2.7 39.9 40.2 41.1 40.9l8.6-8.6c-13.6-13.7-27.4-27.5-40.9-41.1zm32.4-986.2l8.4-8.4-41-41.3-8.5 8.5c13.6 13.7 27.4 27.5 41.1 41.2zm-.1 517.9c2.9-2.9 5.8-5.8 8.8-8.9-13.6-13.6-27.5-27.4-41-41-3.1 3.2-6.1 6.1-8.8 8.9 13.6 13.6 27.4 27.3 41 41zM107.7 245.9c-.8.6-1.3.9-1.6 1.3-12.6 12.5-25.1 25.1-37.7 37.6-.8.8-1.3 1.7-1.3 2.9v14.9c0 .5.2 1 .3 1.6.4-.3.6-.4.8-.5l38.5-38.5c.9-.9 1.1-1.8 1.1-3v-14.1c.1-.6 0-1.1-.1-2.2zM67.2 822.4c.8-.6 1.1-.8 1.4-1.1 12.7-12.7 25.4-25.4 38.2-38.1.9-.9 1.2-1.8 1.2-3v-14.4c0-.5-.1-1-.2-1.9-.7.5-1.1.7-1.5 1.1l-37.8 37.8c-.9.9-1.2 1.8-1.2 3v12.7c-.1 1.1-.1 2.3-.1 3.9zm214.4 200.5c-.5.4-.9.6-1.1.8l-38.3 38.3c-.8.8-1.1 1.7-1.1 2.8v14.6c0 .5.2 1 .3 1.7.7-.6 1.2-1 1.6-1.4l37.3-37.3c1-1 1.4-2 1.4-3.4-.1-4.7 0-9.4 0-14.1.1-.6 0-1.2-.1-2zm0-518.1c-.9.8-1.4 1.3-1.9 1.8l-12 12-24.9 24.9c-.9.9-1.7 1.8-1.6 3.3.1 5 0 9.9 0 14.9 0 .4.2.9.3 1.5.6-.5 1.1-.8 1.5-1.2 12.6-12.5 25.1-25.1 37.7-37.6.9-.9 1.3-1.9 1.3-3.2v-14.4c-.2-.5-.3-1-.4-2zm-7-229.6l41.2 41.2c2.7-2.7 5.6-5.7 8.3-8.4L283 266.9c-2.7 2.8-5.7 5.7-8.4 8.3zm-124.3 809.9l-41.5-41.5c-1.9 1.3-7.7 7.2-8.3 8.3l41.4 41.4c2.7-2.6 5.6-5.4 8.4-8.2zm124.3-291.8l41.3 41.3c1.9-1.3 7.7-7.2 8.4-8.5L283 784.8c-2.7 2.8-5.6 5.7-8.4 8.5zM150.1 49.2C136.4 35.5 122.5 21.7 109 8.1l-8.4 8.4 41.1 41.1 8.4-8.4zm-8.4 526.2l8.4-8.4-41.1-41.1c-2.7 2.7-5.7 5.6-8.4 8.3 13.7 13.7 27.5 27.6 41.1 41.2zM66 477.7l41.1-41.1c-2.8-2.8-5.8-5.8-8.6-8.5l-41.1 41.1c2.8 2.8 5.8 5.7 8.6 8.5zm40.9 477c-1.5-2.1-7.3-7.7-8.5-8.4C84.6 960 71 973.7 57.3 987.4c1.5 2 7.3 7.8 8.5 8.4l41.1-41.1zm230.4-30.1l-40.7 40.7 9.1 9.1 40.7-40.7c-3.1-3.2-6-6.1-9.1-9.1zm8.9-509.1l-8.4-8.4-40.8 40.8 8.4 8.4 40.8-40.8zM163.8 147.9l-41.2 41.2c2.7 2.8 5.7 5.8 8.7 8.7 3.8-3.1 40.4-39.9 41.1-41.3l-8.6-8.6zm75.9 588.8l40.9-40.9-8.2-8.2-40.9 40.9 8.2 8.2zM163.8 666L123 706.8l8.3 8.3 40.8-40.8c-2.7-2.7-5.7-5.6-8.3-8.3zm67.8-455.9l8.7 8.7c2.7-2.1 39.9-39.5 40.5-40.6l-8.7-8.7c-13.4 13.5-27.1 27.2-40.5 40.6zM153 137.3l-40.8 40.8c2.7 2.7 5.6 5.6 8.9 9 13.6-13.6 27.2-27.4 40.8-40.9-3.2-3.3-6.1-6.2-8.9-8.9zm-.1 517.5c-2.7 2.1-40.1 39.7-40.8 40.8l8.9 8.9 40.8-40.8c-3.1-3-5.9-5.9-8.9-8.9zm133.3 299.9c2.8 2.9 5.7 5.8 8.3 8.4l40.7-40.7c-2.7-2.7-5.6-5.6-8.4-8.3-13.5 13.5-27.1 27.2-40.6 40.6zm41-558.5L286.4 437c2.6 2.7 5.5 5.7 8.1 8.2l40.9-40.9c-2.7-2.6-5.5-5.5-8.2-8.1zm41.5-150.4c-.9.9-1.5 1.3-2 1.8l-7.3 7.3c-9.9 9.9-19.8 19.8-29.7 29.6-.9.9-1.7 1.8-1.7 3.3.1 5 0 10.1 0 15.1 0 .4.2.8.4 1.4.5-.4.8-.7 1.1-.9 12.7-12.7 25.4-25.4 38.2-38.1.9-.9 1.3-1.9 1.2-3.2v-13.9c0-.6-.1-1.2-.2-2.4zm-40.4 835.5c.8-.7 1.3-1.1 1.6-1.4 12.5-12.5 25-25 37.5-37.4.9-.9 1.6-1.7 1.5-3.1-.1-5 0-10.1 0-15.1 0-.4-.2-.8-.4-1.4-.5.4-.8.6-1.1.9-12.7 12.7-25.4 25.4-38.2 38.1-.9.9-1.3 1.9-1.3 3.2v13.9c.2.6.3 1.2.4 2.3zm0-258.8c1-1 1.7-1.6 2.3-2.2l18.5-18.5 18.3-18.3c.9-.9 1.6-1.7 1.6-3.1-.1-5 0-10.1 0-15.1 0-.4-.3-.8-.5-1.4-.5.4-.8.6-1.1.9-12.7 12.7-25.3 25.3-38 37.9-.9.9-1.3 1.9-1.3 3.2v14.4c0 .6.1 1.1.2 2.2zm0-259.2c.7-.5 1.1-.8 1.5-1.2l37.8-37.8c.9-.9 1.3-1.9 1.3-3.2-.1-4.7 0-9.4 0-14.1 0-.6-.1-1.2-.2-2.1-.7.5-1.1.8-1.5 1.2l-37.8 37.8c-.9.9-1.4 1.9-1.4 3.2.1 4.7 0 9.4 0 14.1.1.5.2 1.1.3 2.1zm-177.2 518.6l.6-.3v-81.7c.1-1-.3-1.8-1.1-2.5-2.2-2.1-4.3-4.3-6.5-6.4-.4-.4-.8-.6-1.6-1.3v77.6c0 2-.5 4.2.3 5.9.8 1.8 2.7 3.1 4.1 4.6 1.4 1.3 2.8 2.7 4.2 4.1zM56.2 472c-.2.1-.4.1-.6.2v81.6c-.1 1.2.3 2.1 1.2 3 2.2 2.1 4.3 4.3 6.5 6.4.3.3.8.6 1.5 1v-80.7c0-.6.1-1.3 0-1.9-.1-.5-.2-1.1-.6-1.5-2.7-2.8-5.4-5.5-8-8.1zm87-.1c-.2.1-.4.2-.6.2v80.8c-.2 1.7.3 3 1.7 4.2 2 1.8 3.8 3.7 5.6 5.6.4.4.9.8 1.8 1.6v-80.8c0-.7.1-1.5-.1-2.2-.1-.5-.3-1.1-.6-1.5-2.5-2.6-5.2-5.3-7.8-7.9zm-79 610l.6-.3V1001c0-1.9-.5-3.3-1.9-4.6-1.9-1.7-3.6-3.6-5.5-5.4-.4-.4-.9-.8-1.8-1.5v3.5c0 25.1.1 50.2-.1 75.3 0 3.5.7 6.1 3.5 8.3 1.9 1.7 3.5 3.6 5.2 5.3zM165.9 37.8c13.8 13.9 27.6 27.7 41.5 41.5 2.1-1.5 7.8-7.3 8.3-8.4l-41.5-41.5c-2.6 2.7-5.5 5.6-8.3 8.4zm95.7-8.2c-2.9 2.8-5.8 5.7-8.5 8.3l41.2 41.2c2.7-2.7 5.6-5.6 8.3-8.4-13.6-13.7-27.4-27.5-41-41.1zM63.2 826.1L22 784.9c-2.7 2.7-5.7 5.6-8.4 8.3l41.2 41.2c2.7-2.8 5.7-5.6 8.4-8.3zm65.4-496.4l-41.2-41.2c-2.7 2.7-5.6 5.7-8.3 8.5l41 41c2.9-2.7 5.8-5.6 8.5-8.3zM339.8 297c1.8 2.4 40.1 40.5 41.2 41.1 3-3 6-5.8 8.6-8.4l-41.2-41.2c-2.7 2.7-5.7 5.6-8.6 8.5zm-1.9 2.3c-2.9 2.9-5.8 5.7-8.5 8.4 13.6 13.7 27.4 27.5 41.1 41.2 2.7-2.8 5.6-5.7 8.3-8.4l-40.9-41.2zM54.7 575.4c2.8-2.8 5.7-5.7 8.4-8.3L22 526c-2.7 2.7-5.6 5.6-8.4 8.3 13.7 13.6 27.5 27.4 41.1 41.1zm356.6-8.1L370 526c-2.7 2.7-5.6 5.6-8.6 8.5 1.6 2.2 40 40.4 41.4 41.2 2.9-2.9 5.8-5.8 8.5-8.4zm-226-30.8c-2.9 2.9-5.8 5.8-8.4 8.5l41.1 41.1 8.4-8.4c-13.5-13.6-27.3-27.4-41.1-41.2zm144 289.1c13.7 13.7 27.5 27.5 41.4 41.3 1.8-1.2 7.7-7.2 8.6-8.9-13.7-13.9-27.4-27.8-41-41.5-3.3 3.4-6.3 6.3-9 9.1zm-66-280.1c13.7 13.7 27.5 27.5 41.2 41.1 3.3-3.2 6.2-6.1 9.2-9-1.5-2.2-40.1-40.6-41.3-41.2l-9.1 9.1zm76.3 269.7c13.6 13.7 27.4 27.6 41.4 41.7 3.3-3.4 6.3-6.3 9.2-9.2-2.8-3.5-40.2-40.6-41.5-41.4-3 2.9-5.9 5.8-9.1 8.9zm-174-259.1c13.8 13.8 27.7 27.6 41.2 41.2 3.1-3.2 6-6.1 8.7-8.9l-41.1-41.1c-2.7 2.8-5.6 5.7-8.8 8.8zm-37 291.4L87.1 806c-2.7 2.8-5.7 5.7-8.7 8.7 14 14.2 27.7 28.1 41.2 41.8 3.4-3.3 6.3-6.2 9-9zM252.8 556c1.4 2 40 40.4 41.2 41.1 3-3 5.8-6 8.4-8.6l-41.1-41.1c-2.6 2.7-5.5 5.7-8.5 8.6zm98 248.1l41.3 41.3c1.9-1.3 7.8-7.3 8.5-8.6l-41.2-41.2c-2.8 2.7-5.7 5.7-8.6 8.5zM13.2 1052.5l41.2 41.2 8.7-8.7-41.1-41.1c-2.7 2.7-5.7 5.6-8.8 8.6zm76.7-248.8l41.8 41.8c1.2-1.3 2.5-2.8 4-4.3 1.4-1.5 2.9-2.9 4.3-4.3-2.4-3.1-40.3-40.7-41.7-41.5-2.9 2.9-5.8 5.7-8.4 8.3zm-37.5 33.1l-41.1-41.1c-2.7 2.7-5.6 5.6-8.4 8.3l41.3 41.3c2.6-2.8 5.5-5.8 8.2-8.5zm222 215.6c1.4 2 39.9 40.4 41.2 41.1 3-3 5.8-5.9 8.5-8.6l-41-41c-2.8 2.7-5.7 5.6-8.7 8.5zm87.2-.3l41.2 41.2c2.7-2.7 5.6-5.6 8.6-8.5-1.8-2.5-40.1-40.5-41.3-41.1-2.9 2.8-5.8 5.7-8.5 8.4zm-135.3 43.7l-41.2-41.2c-2.7 2.7-5.6 5.6-8.2 8.3L218 1104c2.8-2.7 5.7-5.6 8.3-8.2zm37-32.3l41.2 41.2c3.3-3.2 6.2-6.1 9.2-9-1.6-2.3-40.1-40.6-41.4-41.2-3 2.8-5.8 5.7-9 9zm-97.2 10.2c13.7 13.7 27.5 27.5 41.5 41.6l8.4-8.4-41.5-41.5c-2.8 2.7-5.7 5.6-8.4 8.3zm95.4-8.5l-8.3 8.3 41.2 41.2c2.6-2.7 5.5-5.6 8.3-8.4-13.7-13.5-27.4-27.3-41.2-41.1zM64.1 305l.6-.3v-80.5c0-.6.1-1.1 0-1.7-.1-.5-.2-1.2-.6-1.5-2.6-2.6-5.2-5.2-7.8-7.7-.1-.1-.3 0-.7.1v80c0 .7-.1 1.4.1 2.2.1.5.2 1.1.6 1.5 2.5 2.6 5.2 5.2 7.8 7.9zm347.4 520.8c-3.4-4.1-40.1-40.4-41.5-41.2l-8.7 8.7c1.5 2.2 40.1 40.6 41.4 41.3 3-2.9 5.8-5.8 8.8-8.8zM143.2 213l-.6.3v81c0 1.5.3 2.6 1.4 3.6 2.1 2 4.1 4.1 6.1 6.1.4.3.8.6 1.6 1.1v-77.3c0-2.1.4-4.3-.3-6.2-.7-1.7-2.6-3-4-4.4l-4.2-4.2zm7.8 609.8c.2-.1.5-.2.7-.3v-80.9c0-1.6-.4-2.7-1.6-3.8-2-1.8-3.9-3.8-5.8-5.7-.4-.4-.9-.7-1.8-1.4v80.7c0 .6-.1 1.3 0 1.9.1.5.2 1.2.5 1.5 2.7 2.8 5.4 5.4 8 8zm173.4-256c-1.4-2-39.9-40.4-41-41-3 3-6 5.9-8.6 8.5l41.1 41.1c2.7-2.7 5.6-5.6 8.5-8.6zM56.3 731c-.2.1-.4.1-.6.2 0 1-.1 2-.1 3v76.7c0 .7-.1 1.5 0 2.2.2.7.4 1.6.9 2.1 2.3 2.4 4.7 4.8 7.1 7.1.2.2.5.3 1.2.6v-80.6c0-.6.1-1.3 0-1.9-.1-.6-.3-1.3-.7-1.7-2.6-2.5-5.2-5.1-7.8-7.7zm6.9-422.7L22 267.1c-2.7 2.7-5.6 5.6-8.6 8.5l40.9 41.5c3.3-3.3 6.2-6.1 8.9-8.8zm78.6 8.2c2.8-2.7 5.7-5.6 8.6-8.5-1.2-1.8-39.8-40.4-41.2-41.2-3 3-5.8 5.9-8.5 8.6l41.1 41.1zm219.8-41.3l41.2 41.2c2.7-2.7 5.7-5.6 8.4-8.2L370 267c-2.8 2.7-5.7 5.6-8.4 8.2zm-348-259C27.5 30 41.3 43.8 54.9 57.4l8.5-8.5c-2-2.6-40.1-40.5-41.3-41.1-2.9 2.9-5.8 5.8-8.5 8.4zm38.8 302.6l-41.1-41.1c-2.7 2.7-5.6 5.6-8.3 8.4l41.2 41.2c2.6-2.8 5.5-5.7 8.2-8.5zM324.3 49.3C310.5 35.4 296.6 21.6 283 8c-2.7 2.7-5.7 5.6-8.6 8.6 1.3 1.9 39.9 40.4 41.4 41.3 2.9-3 5.8-5.9 8.5-8.6zm37.2-33.1l41.3 41.3 8.6-8.6c-1.5-2.1-40-40.5-41.4-41.2-2.9 2.9-5.7 5.8-8.5 8.5zM139.9 318.6l-41.2-41.2c-3.2 3.1-6.1 6-9 8.9 13.5 13.8 27.2 27.8 40.8 41.7l9.4-9.4zm86.8-258.9c-3.4-4.1-40-40.4-41.5-41.2-2.9 2.9-5.8 5.8-8.7 8.6 1.5 2.2 40.1 40.6 41.4 41.3 3-2.8 5.9-5.7 8.8-8.7zm46.1-41.6c-3.3 3.4-6.2 6.3-8.9 9L305 68.2c2.7-2.7 5.7-5.6 8.8-8.8-13.6-13.7-27.4-27.5-41-41.3zM359 277.3l-8.7 8.7c2.4 3.1 40.3 40.7 41.9 41.7 2.9-2.8 5.8-5.8 8.6-8.5-14-14.1-27.8-27.9-41.8-41.9zM100.8 793.1l41.1 41.1c2.7-2.7 5.6-5.6 8.3-8.2L109 784.8c-2.7 2.8-5.6 5.7-8.2 8.3zm86.9-258.8l41.2 41.2 8.3-8.3L196 526c-2.7 2.6-5.6 5.5-8.3 8.3zm17.1 65.2c-13.6-13.7-27.4-27.6-41.1-41.3-2.8 2.8-5.7 5.7-8.3 8.4l41.2 41.2c2.6-2.8 5.6-5.7 8.2-8.3zM187.7 1052l41.6 41.6c2.7-2.6 5.6-5.5 8.1-8.1-14.1-14-27.9-27.9-41.5-41.5-2.7 2.5-5.6 5.4-8.2 8zm-32.4 32.5l41.2 41.2 8.3-8.3c-13.6-13.7-27.4-27.6-41.1-41.3l-8.4 8.4zM237.1 49.3L195.5 7.7l-8.1 8.1c14.1 14.2 27.9 28 41.6 41.7 2.6-2.7 5.5-5.5 8.1-8.2zm-81.8-.7l41.2 41.2 8.3-8.3c-13.6-13.7-27.4-27.6-41.1-41.3-2.8 2.9-5.7 5.8-8.4 8.4zM237.1 826c-13.7-13.7-27.5-27.5-41.2-41.1-2.7 2.7-5.6 5.6-8.4 8.3l41.2 41.2 8.4-8.4zm-49.5-550.8l41.1 41.1c2.7-2.7 5.6-5.6 8.3-8.2l-41.2-41.2c-2.6 2.7-5.5 5.6-8.2 8.3zm53.7 29.2c.6-.5.9-.6 1.1-.9l38.3-38.3c.9-.9 1.2-1.8 1.1-3v-14.1c0-.6-.1-1.2-.2-2.1-.7.6-1.2.9-1.7 1.4-12.5 12.5-25 25-37.5 37.4-1 1-1.4 2-1.3 3.4.1 4.6 0 9.3 0 13.9 0 .7.1 1.3.2 2.3zm-46.6 200.5c-.5.4-.7.5-.9.6-12.9 12.9-25.8 25.7-38.7 38.6-.8.8-1 1.6-1 2.6v14.9c0 .5.2 1 .3 1.7.5-.4.9-.7 1.1-.9 12.7-12.7 25.4-25.4 38.2-38.1.8-.8 1.1-1.6 1.1-2.8v-15.1c0-.4 0-.8-.1-1.5zm0-258.9c-.7.6-1.2.9-1.7 1.3-12.6 12.5-25.1 25.1-37.7 37.6-.9.8-1.3 1.7-1.2 2.9.1 5 0 9.9 0 14.9 0 .4.1.9.1 1.6.6-.5 1.1-.8 1.4-1.2l37.8-37.8c.9-.9 1.3-1.9 1.3-3.2-.1-4.7 0-9.4 0-14.1.1-.4 0-1.1 0-2zm-87 258.7c-.7.7-1.1 1-1.4 1.3l-37.8 37.8c-.9.9-1.3 1.9-1.3 3.2v14.1c0 .6.1 1.2.2 2.1.7-.6 1.2-1 1.7-1.4l37.5-37.5c.9-.9 1.3-1.8 1.3-3.2-.1-4.8 0-9.6 0-14.4 0-.4-.1-.9-.2-2zm0 518c-.7.6-1 .8-1.2 1.1l-38 38c-.9.9-1.3 1.9-1.3 3.2v14.1c0 .6.1 1.2.3 2.1.9-.8 1.4-1.3 2-1.8l36.8-36.8c.9-.9 1.7-1.7 1.7-3.2-.1-5 0-10.1 0-15.1-.1-.4-.2-.8-.3-1.6zm87.1-.1c-.8.6-1.1.9-1.4 1.1-12.7 12.7-25.4 25.4-38.2 38.1-.9.9-1.2 1.8-1.2 3v14.6c0 .5.1 1 .3 1.8.8-.8 1.4-1.3 2-1.8l9.5-9.5c9.1-9.1 18.2-18.2 27.3-27.2 1.2-1.2 1.7-2.3 1.7-4-.1-4.5 0-8.9 0-13.4v-2.7zm46.5-200.3c.6-.5.9-.6 1.1-.9l38.3-38.3c.9-.9 1.1-1.8 1.1-3V766c0-.6-.1-1.2-.3-2.2-.9.8-1.4 1.3-2 1.8-2.6 2.5-5.1 5.1-7.6 7.6l-29.2 29.2c-.9.9-1.7 1.7-1.7 3.2.1 5 0 10.1 0 15.1.1.5.2.9.3 1.6zm-87.2.1c.7-.5 1-.7 1.2-.9 12.8-12.8 25.6-25.6 38.5-38.4.7-.7 1-1.5 1-2.5v-15.1c0-.4-.2-.8-.3-1.6-.9.8-1.5 1.4-2.1 2l-13.9 13.9c-7.6 7.6-15.1 15.2-22.7 22.7-1.2 1.2-1.7 2.4-1.6 4 .1 4.5 0 8.9 0 13.4-.1.6-.1 1.3-.1 2.5zm20.3-663.5l-40.6 40.6c2.8 2.7 5.7 5.6 8.5 8.3 13.5-13.5 27.1-27.2 40.6-40.7-2.7-2.6-5.7-5.5-8.5-8.2zm174 776.4c-3 2.4-40.1 39.7-40.7 40.8 3 3 5.9 5.9 8.8 8.9 2.8-2.2 39.9-39.6 40.7-40.9l-8.8-8.8zm-41-476.5c2.8 2.8 5.7 5.8 8.7 8.7 3.9-3.2 40.4-40 41.3-41.7-1.4-1.4-2.9-2.8-4.4-4.2-1.5-1.4-2.7-3.1-4.2-4-13.9 13.7-27.6 27.3-41.4 41.2zM174.5 676.6l-40.8 40.8c2.8 2.8 5.7 5.7 8.6 8.7 1.8-1.2 40-39.5 40.9-41-2.9-2.9-5.8-5.7-8.7-8.5zm-54.4 438.3c2.8-2.8 5.8-5.7 8.4-8.3L87 1065.1c-2.7 2.6-5.6 5.5-8.3 8.3 14 14.1 27.8 27.9 41.4 41.5zM139.7 59.6c-13.6-13.8-27.3-27.8-40.8-41.5-3.4 3.4-6.3 6.3-9.3 9.2 2 2.6 39.9 40.3 41.4 41.1 2.8-2.8 5.7-5.7 8.7-8.8zm132.5 735.7c-2.3 1.7-7.7 7.3-8.3 8.4l41.2 41.2c2.7-2.7 5.6-5.6 8.4-8.3-13.7-13.6-27.5-27.4-41.3-41.3zM128.6 70.9C114.8 57.1 101 43.2 87.1 29.4c-2.3 1.8-7.4 7.1-8.1 8.2l41.5 41.5c2.6-2.7 5.5-5.5 8.1-8.2zm-29.8 983.2c-3.2 3.2-6.2 6.1-9.2 9 1.5 2.2 40 40.5 41.3 41.1 2.9-2.9 5.8-5.8 9.1-9-13.7-13.6-27.6-27.4-41.2-41.1zM67.9 49l41.2 41.2 9-9c-13.6-13.8-27.3-27.7-40.9-41.6-3.3 3.4-6.2 6.2-9.3 9.4zM129 588.5c-2.2-2.9-40.1-40.5-41.6-41.4-2.9 2.3-7.7 7.3-8.6 8.9 2 2.6 40 40.4 41.4 41.2 2.9-2.9 5.8-5.7 8.8-8.7zm162.9 269.8l-41.4-41.4c-2.2 1.5-7.8 7.3-8.4 8.7 13.9 13.8 27.7 27.6 41.3 41.3 2.8-2.8 5.7-5.8 8.5-8.6zm.1-517.9L250.6 299c-2.1 1.4-7.8 7.3-8.5 8.7l41.3 41.3c2.8-2.8 5.7-5.8 8.6-8.6zM98.2 536.6c-2.7 2.7-5.7 5.6-8.3 8.3l41.2 41.2 8.3-8.3c-13.7-13.6-27.5-27.5-41.2-41.2zm-29.8 547.8l41.2 41.2 8.6-8.6-40.9-41.5-8.9 8.9zm234.6-237c-3.3-4-40.1-40.4-41.8-41.3-2.9 2.9-5.8 5.7-8.7 8.7 3.3 4.1 40.3 40.7 41.7 41.4 2.9-3 5.8-5.9 8.8-8.8zM76.8 558.1c-2.9 2.9-5.8 5.8-8.7 8.8 2.3 2.8 39.9 40.3 41.2 41l8.6-8.6c-13.6-13.7-27.4-27.5-41.1-41.2zm176-261.1c1.9 2.5 40 40.3 41.3 41.1 3-3 5.9-5.9 8.5-8.4l-41.2-41.2c-2.8 2.6-5.6 5.5-8.6 8.5zm52.3 30.2c2.6-2.7 5.6-5.6 8.3-8.3-13.7-13.7-27.5-27.5-41.2-41.1-2.7 2.7-5.7 5.6-8.4 8.3 13.8 13.6 27.7 27.4 41.3 41.1zm-250 398.7l41-41c-1.2-1.8-7.2-7.7-8.4-8.3l-40.9 40.9c2.6 2.7 5.5 5.6 8.3 8.4zM337.7 666l-40.9 40.9c1.2 1.7 7.2 7.7 8.4 8.3l40.9-40.9c-2.7-2.7-5.7-5.6-8.4-8.3zm-119.4 49.1l40.8-40.8-8.3-8.3-40.8 40.8 8.3 8.3zm-174-.1l40.8-40.8-8.2-8.2-40.7 40.7c2.6 2.8 5.5 5.7 8.1 8.3zm282.6-496.3l40.8-40.8-8.4-8.4c-13.5 13.6-27.2 27.3-40.6 40.9 2.6 2.7 5.5 5.6 8.2 8.3zm-.2 435.9c-13.8 13.7-27.5 27.3-41 40.6l9.4 9.4 41-40.7c-3.3-3.2-6.2-6.1-9.4-9.3zm-118.9 50.1c13.8-13.6 27.6-27.2 41-40.5l-9.2-9.2c-2.2 1.6-39.8 39.4-40.7 40.9 3 2.9 5.8 5.8 8.9 8.8zm-54.7-226.9l40.9-40.9c-1.3-2-7.3-7.8-8.8-8.6-13.7 13.7-27.3 27.4-40.8 40.9 2.8 2.8 5.7 5.7 8.7 8.6zm206.1-49.3c-13.4 13.5-27.1 27.2-40.8 41 1.2 1.8 7.1 7.6 8.5 8.3 13.7-13.7 27.4-27.4 40.9-40.8-2.9-2.8-5.8-5.7-8.6-8.5zm-87-.1l-40.9 40.9c1.4 2 7.3 7.8 8.6 8.5l40.9-40.9c-2.8-2.7-5.7-5.6-8.6-8.5zm43.9-220.5c13.5-13.5 27.2-27.2 40.9-41-1.4-2-7.2-7.7-8.5-8.3l-40.9 40.9c2.8 2.8 5.8 5.7 8.5 8.4zm-54.5 209.8l-40.8 40.8c2.7 2.7 5.6 5.7 8.5 8.6 2.1-1.5 40.1-39.6 40.7-40.9-2.8-2.9-5.7-5.8-8.4-8.5zm-87.1.1l-41.1 41.1c2.8 2.7 5.7 5.8 8.4 8.3 13.9-13.9 27.5-27.6 41-41.1-2.6-2.7-5.6-5.6-8.3-8.3zM55 467l40.9-40.9c-2.7-2.7-5.6-5.6-8.2-8.3l-40.9 40.9c2.6 2.7 5.5 5.5 8.2 8.3zm-10.6-10.8l40.8-40.8c-2.8-2.7-5.7-5.6-8.4-8.3L36 447.9c2.7 2.6 5.7 5.6 8.4 8.3zm43.2-297.5l-40.8 40.8 8.6 8.6c2.1-1.4 39.9-39.5 40.7-40.9-2.9-2.9-5.7-5.8-8.5-8.5zm173.7 0c-2 1.4-39.9 39.5-40.8 41 2.1 2.6 7.4 7.7 8.6 8.4l40.9-40.9c-2.8-2.7-5.8-5.6-8.7-8.5zm57.2 569.4c2.9 2.9 5.8 5.8 8.8 8.9 13.5-13.5 27.3-27.2 40.7-40.7-3.2-3.1-6.1-6-8.9-8.9-13.5 13.5-27.1 27.2-40.6 40.7zM207.6 186.3l40.7-40.7c-2.7-2.7-5.6-5.6-8.3-8.2l-40.7 40.7c2.7 2.7 5.6 5.6 8.3 8.2zm119.6-49.1L286.4 178c2.7 2.7 5.6 5.6 8.3 8.2l40.8-40.8c-2.7-2.6-5.6-5.5-8.3-8.2zM152.7 995.6c13.7-13.7 27.4-27.4 41.3-41.2-2.7-2.8-5.6-5.7-8.5-8.5-2.9 2.2-40.4 39.8-41.2 41.3 2.9 2.9 5.7 5.8 8.4 8.4zm206.5-49.2c-13.5 13.5-27.1 27.3-40.8 41.1 1.2 1.8 7.1 7.6 8.5 8.3l40.8-40.8c-2.8-2.9-5.7-5.8-8.5-8.6zM65.8 218.7l40.8-40.8-8.2-8.2-40.8 40.8c2.7 2.6 5.6 5.6 8.2 8.2zm174 177.2c-3.6 2.9-40.1 39.7-40.9 41.4 2.8 2.9 5.7 5.8 8.6 8.7 3.8-3 40.4-39.9 41.1-41.2-3-3.1-5.8-5.9-8.8-8.9zm.1 599.6l40.8-40.8c-2.7-2.7-5.7-5.6-9-8.8L231 986.6l8.9 8.9zm-86.7-258.6c3.7-3 40-39.6 40.5-40.7-3-3.1-5.9-6-8.6-8.8-13.5 13.5-27.2 27.2-40.6 40.7 2.8 2.8 5.7 5.7 8.7 8.8zm108.6 198.8L221 976.5c2.7 2.7 5.5 5.6 8.1 8.2l40.9-40.9c-2.7-2.6-5.6-5.4-8.2-8.1zm-119.7 49.2c13.6-13.7 27.3-27.3 40.8-40.8-2.7-2.7-5.6-5.6-8.5-8.6-2.2 1.6-40.1 39.6-40.7 40.9 2.8 2.9 5.7 5.8 8.4 8.5zm-54.4-49.3C74 949.3 60.3 963 46.9 976.5l8.2 8.2 40.8-40.8c-2.6-2.7-5.5-5.6-8.2-8.3zm18.9-239.5c-2.9-2.9-5.7-5.8-8.7-8.8-3.6 2.9-39.9 39.5-40.4 40.6 3 3 5.9 6 8.6 8.7 13.4-13.5 27.1-27.2 40.5-40.5zm46.5-476.9c13.8-13.7 27.5-27.4 40.9-40.8l-9.1-9.1c-13.5 13.5-27.3 27.2-40.8 40.8 3 3.1 5.9 6 9 9.1zm8.2 185.4c-2.7-2.7-5.6-5.6-8.4-8.3L112.2 437c2.7 2.8 5.6 5.7 8.3 8.4 13.5-13.6 27.2-27.3 40.8-40.8zM66 396.2l-41.1 41.1 8.4 8.4 41.1-41.1c-2.8-2.7-5.7-5.7-8.4-8.4zm56.4 569.9c1.5 1.4 3.1 2.8 4.5 4.2 1.5 1.4 2.9 2.9 4.2 4.2l41.3-41.3c-1.3-1.9-7.3-7.7-8.6-8.5l-41.4 41.4zm-45.6-41.2L36 965.7c2.7 2.7 5.6 5.6 8.3 8.4l40.8-40.8c-2.6-2.7-5.5-5.6-8.3-8.4zm8.4-768.3c-2.9-2.9-5.8-5.8-8.3-8.4l-40.7 40.7c2.7 2.7 5.6 5.6 8.3 8.4 13.5-13.6 27.2-27.2 40.7-40.7zm165.6-8.6L210 188.8c2.7 2.7 5.6 5.6 8.3 8.4l40.8-40.8c-2.7-2.8-5.6-5.7-8.3-8.4zM240 914.1l-40.8 40.8c2.7 2.7 5.6 5.7 8.4 8.4l40.7-40.7c-2.7-2.8-5.6-5.7-8.3-8.5zm76.1-188.2c13.5-13.5 27.2-27.3 40.8-40.8l-8.3-8.3-40.9 40.9c2.7 2.6 5.7 5.5 8.4 8.2zM120.5 963.3l40.8-40.8c-2.7-2.7-5.6-5.6-8.4-8.3l-40.7 40.7c2.7 2.7 5.6 5.6 8.3 8.4zm-86.8.4c2.9-2.3 40.1-39.7 40.8-41l-8.8-8.8c-2.7 2.1-39.9 39.6-40.8 41l8.8 8.8zm271.7-766.6l41.1-41.1c-2.7-2.8-5.7-5.7-8.4-8.4l-41 41c2.6 2.9 5.5 5.8 8.3 8.5zm-44 479.4c-1.8 1.2-39.9 39.4-40.7 40.7 3 3 5.9 5.9 8.7 8.6l40.6-40.6c-2.8-2.8-5.7-5.7-8.6-8.7zM131.1 456.1l41.2-41.2c-2.6-2.7-5.5-5.6-8.4-8.4-2.8 2.1-40.4 39.8-41.2 41.3 2.9 2.9 5.8 5.7 8.4 8.3zm87.2 518l40.8-40.8c-2.7-2.7-5.6-5.6-8.5-8.6-1.9 1.3-40 39.5-40.8 40.8 2.9 3 5.8 5.8 8.5 8.6zm0-517.9l40.9-40.9c-2.7-2.7-5.6-5.7-8.3-8.3L210 447.9l8.3 8.3zM66 655.2l-41.1 41.1 8.3 8.3 41.1-41.1c-2.7-2.6-5.6-5.6-8.3-8.3zM33.9 186.8c13.8-13.6 27.5-27.2 41-40.6-3.3-3.3-6.3-6.2-9.2-9.1-2 1.5-39.9 39.5-40.6 40.8 2.8 2.9 5.7 5.8 8.8 8.9zm121-51.7c.5.5 1 1.1 1.6 1.7 5 5 9.9 10 14.9 14.9 7.3 7.3 14.7 14.7 22.1 22 .6.6.9 1.5 2.2 1.2v-16.6c0-.5-.4-1.2-.8-1.6L165.2 127c-.4-.4-.9-.8-1.3-1-3 3.1-5.9 6-9 9.1zm40.2 558.1c.2-.1.4-.2.6-.4v-16.5c0-.5-.4-1.2-.8-1.6-9.9-10-19.9-19.9-29.9-29.8-.4-.4-.8-.7-.9-.8l-9 9c13.1 13.3 26.5 26.7 40 40.1zm-118-567c-3.1 3.2-6.1 6.1-9 9 2.2 2.8 38.7 39.1 40.3 39.9.1-.3.3-.6.3-.9 0-5.2.1-10.4 0-15.6 0-.7-.5-1.5-1.1-2l-28.8-28.8c-.6-.6-1.3-1.2-1.7-1.6zM108.4 693c.1-.2.3-.4.3-.6 0-5.3.1-10.6 0-15.8 0-.6-.4-1.3-.9-1.8-9.8-9.9-19.7-19.7-29.5-29.5-.5-.5-1-.9-1.1-1-3.2 3.1-6.1 5.9-8.9 8.6l40.1 40.1zm134 218.6l40.2 40.2c-.1.2 0 0 0-.1 0-5.4.1-10.9 0-16.3 0-.6-.5-1.3-.9-1.8l-28.8-28.8c-.7-.7-1.4-1.3-1.9-1.8l-8.6 8.6zm40.3-477.4v-16.6c0-.6-.4-1.4-.8-1.8-9.7-9.7-19.4-19.5-29.2-29.2-.6-.6-1.2-1.1-1.9-1.8-3.1 3-6 6-8.7 8.7 13.5 13.7 27 27.1 40.6 40.7zm55.3-49.1l-9 9c.2.2.4.6.8.9 13.1 13 26.2 26.1 39.2 39.1h.2c.1 0 .1-.1.4-.2v-16.7c0-.6-.6-1.3-1-1.7l-29-29c-.6-.5-1.2-1-1.6-1.4zM328.8 912c13.4 13.4 26.9 26.8 40.3 40.3.3-.4.4-.6.4-.7 0-5.4.1-10.9 0-16.3 0-.6-.5-1.3-1-1.8l-29.3-29.3c-.5-.5-1-.9-1.4-1.2l-9 9zm39.4-669.1c-3.2-3.2-6.1-6.1-9.1-9.2-.2.1-.5.3-.8.6-9.7 9.7-19.4 19.4-29.2 29.1-.8.8-1.1 1.7-1.1 2.8v14.4c0 .5.2 1 .3 1.5l.6.3c13.2-13.2 26.3-26.4 39.3-39.5zm-9.3 508.8c-.4.3-1 .9-1.5 1.4-2.9 2.9-5.8 5.8-8.7 8.6-6.4 6.4-12.8 12.8-19.2 19.1-.9.9-1.6 1.7-1.6 3.1.1 4.9 0 9.7 0 14.6 0 .5.2.9.6 2 13.5-13.5 26.7-26.6 39.7-39.7-3.2-3.1-6.2-6.1-9.3-9.1zm-86.9-259c-.2.2-.6.5-.9.8l-28.8 28.8c-.9.9-1.2 1.8-1.2 3v14.4c0 .5.1 1 .2 1.6 2.8-2 38.9-38.4 39.6-39.7l-8.9-8.9zm-117.9 48.5l39.6-39.6-8.8-8.8c.1 0-.2.1-.3.2l-29.5 29.5c-.8.8-.9 1.6-.9 2.6v12.7c-.1 1.1-.1 2.2-.1 3.4zm39.7 478.3l-8.8-8.8c-.1.1-.4.3-.7.6l-29 29c-.8.8-1.1 1.6-1.1 2.8v14.9c0 .4.1.9.1 1.2 13.3-13.5 26.5-26.7 39.5-39.7zm87.2-.4c-2.2-2.7-7.4-7.7-8.9-8.5-.2.1-.4.3-.6.4-9.8 9.8-19.6 19.5-29.4 29.3-.8.8-1 1.7-1 2.8v14.6c0 .4.1.9.1 1.1 13.3-13.1 26.4-26.3 39.8-39.7zM241.2 390l39.6-39.6c-1.2-1.7-7.1-7.5-8.7-8.5-.2.1-.4.2-.6.4-9.8 9.8-19.6 19.6-29.4 29.3-.8.8-1.1 1.7-1.1 2.8v14.2c.1.5.2 1 .2 1.4zm44.7 478.9c.1.1.3.5.6.7 12.8 12.8 25.7 25.6 38.6 38.4h.2c.1 0 .1 0 .4-.1 0-.6.1-1.3.1-2 0-4.3-.1-8.6 0-13 0-1.7-.5-2.8-1.7-4-9.3-9.2-18.4-18.4-27.7-27.6-.6-.6-1.2-1.1-1.6-1.5-3 3.2-5.9 6.1-8.9 9.1zm39.9-478.6v-2.5c0-4.2-.1-8.3 0-12.5 0-1.7-.5-3-1.7-4.2-9.3-9.2-18.5-18.4-27.7-27.6-.6-.6-1.2-1.1-1.6-1.5l-8.7 8.7c13.1 13 26.2 26.1 39.7 39.6zm-84.6 517.6l39.6-39.6c-1.1-1.7-7.1-7.5-8.7-8.5-.2.1-.4.2-.6.4-9.8 9.8-19.6 19.6-29.4 29.3-.8.8-1.1 1.7-1.1 2.8v14.2c.1.5.2 1 .2 1.4zm87.2-366.3c13.5-13.5 26.7-26.7 40.3-40.2-3.1-3.2-6.1-6.2-9.1-9.2-.8.7-1.2 1-1.5 1.4-9.5 9.5-19.1 19.1-28.7 28.6-.9.9-1.4 1.9-1.3 3.2.1 4.6 0 9.3 0 13.9 0 .5.1 1.1.3 2.3zm-.1 517.6c3.1-2.3 39-38.4 39.6-39.7l-8.9-8.9c-.2.2-.6.4-.9.8l-28.8 28.8c-.9.9-1.2 2-1.2 3.2v13.4c0 .7.1 1.4.2 2.4zM195.4 952c.1-.1.2-.3.2-.4 0-5.4.1-10.9 0-16.3 0-.6-.5-1.3-1-1.8l-28.8-28.8c-.7-.7-1.4-1.3-1.9-1.8l-8.8 8.8 40.3 40.3zm-127-40.4l40.2 40.2s.1-.3.1-.6c0-5.2.1-10.4 0-15.6 0-.7-.5-1.5-1-2-9.7-9.8-19.5-19.6-29.3-29.3-.5-.5-1.1-.9-1.4-1.2-3.1 3-6 5.9-8.6 8.5zm0-517.9l40.2 40.2s.2-.3.2-.6c0-5.2.1-10.4 0-15.6 0-.7-.5-1.5-1-2-9.7-9.8-19.5-19.6-29.3-29.3-.5-.5-1.1-.9-1.4-1.2-3.2 3-6.1 5.9-8.7 8.5zm86.5.3c.3.4.6.8 1 1.1 13 13 26 26 39 38.9.1.1.1.1.2.1s.2.1.2 0c.1 0 .1-.1.4-.2v-16.6c0-.5-.4-1.2-.9-1.6l-29.5-29.5c-.5-.5-1.1-.9-1.5-1.2-3 3.1-5.9 6-8.9 9zM67.2 649.4c2.4-1.6 39-38.3 39.9-40l-9-9c-1.9 2-3.5 3.9-5.3 5.6l-24.1 24.1c-.6.6-1.4 1.5-1.4 2.3-.2 5.6-.1 11.1-.1 17zm87 150.5l39.7-39.7c-1.8-2.3-7.4-7.7-8.9-8.6-.2.1-.4.2-.6.4-9.8 9.8-19.6 19.6-29.4 29.3-.8.8-1 1.7-1 2.8v14.4c.1.5.2 1 .2 1.4zM67.3 131l39.3-39.3-8.6-8.6c-.1.1-.4.2-.6.4-9.7 9.8-19.4 19.5-29.2 29.2-.8.8-1.1 1.7-1.1 2.8v14.4c.1.4.2.9.2 1.1zm84.3 517.9s.1-.3.1-.6v-15.4c0-1.2-.6-1.9-1.4-2.6L122 602c-.4-.4-.9-.8-1-.8-3.1 3.1-6 6-8.6 8.5 12.9 13 26.1 26.1 39.2 39.2zm0-517.8c0-.5.1-1.2.1-1.8 0-4.5-.1-9 0-13.4 0-1.6-.5-2.7-1.6-3.8-9.3-9.2-18.6-18.5-27.8-27.8-.5-.5-1-1-1.4-1.3l-8.7 8.7 39.4 39.4zM98.1 751.6c-.2.1-.4.2-.5.4l-29.3 29.3c-.8.8-1 1.7-1 2.8v14.4c0 .5.1 1 .2 1.4 13.2-13.2 26.4-26.4 39.4-39.5l-8.8-8.8zm56.2-469.5c1.9-1.1 38.7-37.9 39.6-39.4-3-3-5.9-6-8.9-9-.1.1-.5.3-.8.6l-29 29c-.8.8-1.1 1.7-1.1 2.8v14.6c0 .5.1.9.2 1.4zm-56.2-48.4c-.3.3-.6.5-.9.8l-28.8 28.8c-.9.9-1.2 1.8-1.2 3v14.4c0 .5.1 1 .2 1.3 13.2-13.2 26.4-26.4 39.4-39.5-2.7-2.8-5.6-5.8-8.7-8.8zm270.7-58.2l.9-.6v-16.5c0-.6-.5-1.3-1-1.8l-29.2-29.2c-.5-.5-1.1-1-1.8-1.6-3 3.1-6.1 5.9-8.9 9 13.4 13.7 26.7 27.2 40 40.7zm.5 517.5l.3-.6c0-5.3.1-10.6 0-15.8 0-.7-.5-1.5-1-2-9.7-9.7-19.3-19.4-29-29-.6-.6-1.2-1.1-1.6-1.5-3 3-5.9 6-8.9 8.9 1.3 1.8 38.6 39 40.2 40zm-86.7-517.9v-16.8c0-.5-.4-1-.7-1.4l-29.7-29.7c-.4-.4-.9-.8-1.2-1.1-3 3-5.9 5.9-8.7 8.6 13.4 13.4 26.8 26.8 40.3 40.4zM242 653c3 3.8 38.9 39.3 40.4 40 .1-.1.2-.3.2-.4 0-5.4.1-10.7 0-16.1 0-.6-.4-1.3-.9-1.8l-28.8-28.8c-.7-.7-1.4-1.3-1.9-1.8-3 2.9-5.9 5.8-9 8.9zm-43.5-219.3c2.7-2.7 5.2-5.1 7.6-7.7.5-.5.6-1.5.6-2.2V364c0-1.2-.4-2.1-1.2-3-2-1.9-4-4-6-5.9-.3-.3-.7-.5-1.1-.8-.6 2-.6 76.8.1 79.4zm0 517.9c2.7-2.7 5.2-5.2 7.6-7.7.5-.5.6-1.5.6-2.2v-59.8c0-1.2-.4-2.1-1.2-3-2-1.9-4-4-5.9-5.9-.3-.3-.7-.5-1.1-.8-.7 2.1-.7 76.9 0 79.4zm127.2-302.3c0-.7.1-1.3.1-2 0-4.5-.1-9 0-13.4 0-1.5-.4-2.5-1.5-3.6-9.4-9.3-18.8-18.7-28.2-28.1-.5-.5-1-.9-1.2-1-3.1 3.1-6 6-8.8 8.6 13.1 13 26.2 26.1 39.6 39.5zM272 601c-.1.1-.4.3-.7.5-9.7 9.7-19.4 19.4-29.2 29.1-.8.8-1 1.7-1 2.8v14.4c0 .4.1.9.1 1.1 13.2-13.2 26.4-26.4 39.4-39.5-2.6-2.5-5.6-5.4-8.6-8.4zM198.2 94.8c-.1 1-.2 1.4-.2 1.7 0 25.9.1 51.8.1 77.6 0 .1.1.1.1.2.1 0 .1.1.4.2 2.1-2.1 4.2-4.3 6.4-6.3 1.3-1.2 1.7-2.5 1.7-4.2-.1-14.5 0-28.9 0-43.4v-15.3c0-.8-.1-1.9-.6-2.4-2.4-2.7-5-5.2-7.9-8.1zm40.5 554.4c.1-.6.2-1.2.2-1.8 0-4.5-.1-9 0-13.4 0-1.6-.6-2.7-1.6-3.8-9.4-9.3-18.7-18.6-28-28-.5-.5-1-.9-1.3-1.2-3 3.1-5.9 6-8.7 8.7 12.9 13 26 26.2 39.4 39.5zM359.1 83c-.2.2-.5.4-.7.6-9.7 9.7-19.4 19.4-29.2 29.1-.9.9-1.2 1.8-1.2 3v14.1c0 .5.2 1 .4 1.9 13.4-13.5 26.7-26.6 39.7-39.8-3.1-3-5.9-5.9-9-8.9zm-120.4 48.3c.1-.7.1-1.3.2-1.9V116c0-1.5-.5-2.5-1.5-3.6-9.5-9.4-18.9-18.9-28.3-28.3-.4-.4-.9-.8-1-.9-3.1 3-6 5.9-8.8 8.7 12.9 13 26 26.1 39.4 39.4zM272 83.2c-.1.1-.5.4-.9.7l-28.8 28.8c-.9.9-1.2 1.8-1.2 3 .1 4.7 0 9.4 0 14.1 0 .5.1 1 .2 1.3l39.4-39.4c-2.8-2.7-5.7-5.6-8.7-8.5zm-30.7 198.6c13.2-13.2 26.3-26.4 39.4-39.4-2.7-2.6-5.6-5.5-8.7-8.6-.1 0-.4.3-.7.5l-29 29c-.9.9-1.1 1.8-1.1 3v13.9c-.1.7 0 1.3.1 1.6zm-.1 518.1l39.8-39.8c-2.8-2.7-5.7-5.7-8.7-8.7-.5.4-.8.6-1 .8-9.7 9.7-19.4 19.4-29.2 29.1-.8.8-1.1 1.7-1.1 2.8v14.4c.1.5.2.9.2 1.4zM359.1 601c-.2.2-.5.4-.8.7l-29 29c-.9.9-1.2 1.8-1.2 3v14.1c0 .5.2 1 .2 1.2 13.2-13.1 26.4-26.3 39.5-39.4-2.8-2.7-5.7-5.6-8.7-8.6zm-160.7 91.7c2.2-2.2 4.3-4.4 6.5-6.5 1.4-1.2 1.8-2.6 1.8-4.4-.1-18.1 0-36.3 0-54.4 0-2 .5-4.2-.3-5.9-.8-1.8-2.7-3.1-4.1-4.6-1.3-1.3-2.6-2.5-4-3.9-.5 2.4-.5 77.5.1 79.7zm87.8-601.1c13.1 13.1 26.3 26.3 39.4 39.5 0-.5.1-1.3.1-2 0-4.2-.1-8.5 0-12.7 0-1.8-.5-3-1.7-4.2-9.3-9.2-18.4-18.4-27.7-27.6-.6-.6-1.2-1.1-1.5-1.4-3 2.9-5.9 5.8-8.6 8.4zm-47.5 816.5c0-.9.1-1.6.1-2.4 0-4.2-.1-8.3 0-12.5 0-1.7-.5-3-1.7-4.2-9.3-9.2-18.5-18.4-27.7-27.6-.6-.6-1.2-1.1-1.6-1.5-3 3-5.9 6-8.7 8.7 13.1 13 26.2 26.1 39.6 39.5zm120.4-48.2c-.1.1-.4.2-.5.4-9.9 9.8-19.7 19.7-29.6 29.5-.7.7-1 1.6-1 2.6v14.4c0 .5.2 1 .3 1.1 13.2-13.2 26.3-26.3 39.4-39.3-2.6-2.8-5.5-5.7-8.6-8.7zM238.7 390.2c0-.9.1-1.6.1-2.4 0-4.2-.1-8.3 0-12.5 0-1.7-.5-3-1.7-4.2-9.3-9.2-18.5-18.4-27.7-27.6-.6-.6-1.2-1.1-1.6-1.5-3 3-5.9 6-8.6 8.7l39.5 39.5zm89.5-.2c13.3-13.3 26.5-26.4 39.4-39.3-2.7-2.7-5.6-5.7-8.6-8.6-.2.2-.6.5-.9.8-9.6 9.5-19.1 19.1-28.7 28.6-1 1-1.3 2.1-1.3 3.4v13.2c0 .7.1 1.4.1 1.9zm-230 469.9c-.3.2-.5.4-.8.6-9.7 9.7-19.4 19.4-29.2 29.1-.9.9-1.1 1.9-1.1 3v13.7c0 .6.1 1.2.2 1.9 2.1-1.3 38.7-37.9 39.5-39.5-2.8-2.9-5.6-5.8-8.6-8.8zM24.7 92.1c12.9 12.8 25.7 25.6 38.5 38.4.3.3.6.5.9.8h.2c.1 0 .1-.1.4-.2 0-5.4 0-10.9-.1-16.4 0-.7-.6-1.6-1.2-2.2C54 103 44.6 93.6 35.1 84.2c-.5-.5-1.1-.9-1.4-1.2-3 3.1-5.9 6-9 9.1zm129.4 39.1l39.8-39.8c-2.7-2.8-5.6-5.7-8.5-8.6-.5.4-.8.5-1 .7-9.8 9.8-19.6 19.5-29.4 29.3-.8.8-.9 1.6-.9 2.6v15.8zM24.9 350.8c1.3 1.9 38 38.5 39.7 39.4.1-.7.1-1.3.1-1.9v-13.7c0-1.4-.5-2.4-1.4-3.3-9.4-9.4-18.8-18.8-28.2-28.1-.5-.5-1-.9-1.4-1.2l-8.8 8.8zm73.2 141.9c-.2.1-.4.2-.6.4-9.8 9.8-19.6 19.5-29.4 29.3-.7.7-1 1.6-1 2.6v14.6c0 .5.2 1 .3 1.2l39.3-39.3c-2.7-2.8-5.6-5.8-8.6-8.8zm56 156.5c.4 0 .7 0 .8-.1 13.1-13.1 26.2-26.1 39.1-39-3.1-3.1-6-6-9-9.1-.4.4-1 .9-1.6 1.4l-8.6 8.6c-6.4 6.4-12.8 12.8-19.2 19.1-.7.7-1.5 1.4-1.5 2.6.1 5.6 0 11 0 16.5zM24.7 868.8c.6.7 1.2 1.3 1.9 1.9l17 17 19 19c.6.6 1 1.4 2.2 1.3v-15.4c0-1.4-.4-2.4-1.4-3.4-9.4-9.4-18.8-18.8-28.2-28.1-.5-.5-1.1-.9-1.5-1.3-3 3.1-5.9 5.9-9 9zm40-219.5c0-5.7 0-11.2-.1-16.7 0-.7-.6-1.6-1.2-2.2-9.4-9.5-18.8-18.9-28.3-28.3-.5-.5-1.1-.9-1.5-1.3-2.8 2.2-7.9 7.5-8.6 8.8l39.7 39.7zm86.9 258.5c0-.4.2-1.1.2-1.8v-13.2c0-1.6-.5-2.7-1.6-3.8-9.3-9.3-18.6-18.6-28-27.9-.5-.5-1-.9-1.3-1.1-3 3.1-5.9 6-8.5 8.6 12.9 12.9 26 26.1 39.2 39.2zm2.7-517.6l39.8-39.8c-2.8-2.8-5.7-5.8-8.7-8.6-.4.3-.6.3-.7.5-9.9 9.8-19.7 19.7-29.6 29.5-.8.8-1 1.7-1 2.8v13.9c0 .5.1 1.1.2 1.7zm-2.7-.3c0-.5.1-1.3.1-2 0-4.2-.1-8.3 0-12.5 0-1.8-.5-3.1-1.8-4.4-9.2-9.1-18.4-18.3-27.5-27.5-.6-.6-1.2-1.1-1.6-1.5-3 3.1-5.9 6-8.5 8.7 13 12.9 26.1 26 39.3 39.2zm-53.4-48c-.4.3-.8.6-1.1.9l-28.6 28.6c-.9.9-1.3 1.9-1.2 3.2v13.7c0 .6.1 1.2.2 1.9 2-1.2 38.6-37.8 39.6-39.5-3-2.9-5.9-5.7-8.9-8.8zm95.3 526.7l-8.6-8.6s-.3.2-.5.4c-9.7 9.7-19.5 19.4-29.2 29.1-.8.8-1.1 1.7-1 2.8v14.4c0 .4.1.9.1 1.2 13.2-13.1 26.3-26.3 39.2-39.3zm-86.4 151.1c-3.1-3.2-6-6.1-9-9.1-.2.2-.6.4-.9.7l-28.8 28.8c-.9.9-1.1 1.8-1.1 3v13.9c0 .6.1 1.2.2 1.8.2.2.5.3.7.5 12.9-13.2 26-26.4 38.9-39.6zm206.8-466.9c.5-3.7.4-78.1-.1-79.9-.5.3-.9.6-1.3 1-1.7 1.6-3.2 3.4-4.9 4.9-1.4 1.2-1.8 2.6-1.8 4.4.1 17.2 0 34.4 0 51.5v8.4c0 .7.1 1.6.5 2 2.4 2.4 4.9 4.9 7.6 7.7zm.2-338.9c-.2-.1-.3-.1-.5-.2-2.1 2.1-4.1 4.2-6.3 6.2-1.1 1.1-1.6 2.2-1.6 3.8.1 9.1 0 18.2 0 27.3v32.1c0 1.8.5 3.2 1.9 4.4 1.7 1.5 3.3 3.3 4.9 4.9.4.3.8.6 1.5 1 .1-26.7.1-53.1.1-79.5zm-.3 597.4c.6-2 .6-77.4 0-79.8-2.1 2.1-4.1 4.2-6.2 6.1-1.4 1.2-1.8 2.6-1.8 4.4.1 15.6 0 31.2 0 46.8v12.9c0 1.4.4 2.4 1.4 3.4 1.8 1.7 3.5 3.5 5.3 5.2.3.3.8.6 1.3 1zm0 179.4c-.5.3-.9.6-1.3 1-1.5 1.5-3 3.1-4.6 4.5-1.6 1.4-2.1 2.9-2.1 5 .1 19.5 0 39 0 58.5v1.9c.1.5.2 1 .5 1.3 2.4 2.5 4.9 5 7.5 7.6.6-2.2.6-77.7 0-79.8zM372.2 175c2.5-2.5 4.5-4.6 6.7-6.6 1.4-1.2 1.8-2.6 1.8-4.4-.1-15.8 0-31.7 0-47.5V105c0-1.2-.3-2.1-1.2-3-1.5-1.4-2.8-2.8-4.3-4.2-.9-.9-1.8-1.7-3-3V175zm28.9 38.9c-.2-.1-.4-.2-.5-.3-2.1 2.1-4.1 4.3-6.2 6.3-1.2 1.1-1.6 2.4-1.6 4 .1 13.9 0 27.8 0 41.7v18c0 1.4.4 2.4 1.4 3.4 1.9 1.7 3.6 3.6 5.5 5.4.4.4.8.6 1.5 1-.1-26.7-.1-53.1-.1-79.5zm-348 517.5c-.7.6-1.1.8-1.4 1.1-1.9 1.9-3.7 3.8-5.6 5.6-1 1-1.4 2-1.4 3.4.1 4.9 0 9.8 0 14.6v45.1c0 1.6.4 2.9 1.6 4 1.8 1.7 3.5 3.5 5.3 5.2.3.3.8.5 1.5.9v-79.9zm-.3-437.7c.6-3.3.5-78.3-.1-80.1-2.2 2.1-4.2 4.3-6.3 6.3-1.2 1.1-1.7 2.4-1.6 4 .1 12.1 0 24.2 0 36.2v23.5c0 .8.1 1.9.6 2.5 2.3 2.5 4.7 4.9 7.4 7.6zM401.1 473c-.1-.1-.3-.2-.4-.3-2.1 2.1-4.1 4.2-6.3 6.2-1.2 1.1-1.6 2.4-1.6 4 .1 11.5 0 23 0 34.5v25.2c0 1.4.4 2.4 1.4 3.4 1.5 1.3 2.8 2.8 4.3 4.2.8.8 1.5 1.5 2.7 2.6-.1-27-.1-53.4-.1-79.8zM24.7 613l-.6.3c0 .4-.1.8-.1 1.1 0 25.9.1 51.8.1 77.7 0 .1.1.1.1.2.1 0 .1 0 .6.2 1.9-1.9 3.8-4.1 5.9-6 1.4-1.3 1.9-2.7 1.9-4.6-.1-19.4 0-38.7 0-58.1 0-.6.1-1.1 0-1.7-.1-.6-.3-1.3-.7-1.7-2.4-2.5-4.8-4.9-7.2-7.4zm87-517.9l-.6.3c0 .4-.1.8-.1 1.1 0 25.9.1 51.8.1 77.7 0 .1.1.1.1.2.1 0 .1 0 .6.2 1.8-1.9 3.6-4 5.7-5.8 1.6-1.5 2.2-3.1 2.1-5.3-.1-19 0-38.1 0-57.1 0-.6.1-1.3 0-1.9-.1-.7-.3-1.4-.8-1.9-2.3-2.6-4.7-5.1-7.1-7.5zm-87.6 79.2c.1.1.3.2.4.3 2-2 4-4.1 6.1-6 1.5-1.3 2.1-2.8 2-4.8-.1-11.9 0-23.8 0-35.8 0-7.4-.1-14.9 0-22.3 0-1.8-.5-3.2-1.9-4.4-1.8-1.7-3.5-3.5-5.3-5.2-.4-.3-.8-.6-1.4-1 .1 26.6.1 52.9.1 79.2zm376.7 637.3c.6-3.5.5-78.3-.1-80.1-2.1 2.1-4.2 4.3-6.3 6.3-1.2 1.1-1.6 2.4-1.6 4 .1 12.7 0 25.4 0 38.1v21.6c0 .8.1 1.9.6 2.5 2.3 2.5 4.7 4.9 7.4 7.6zM53.1 473c-.1-.1-.3-.2-.4-.3-2.1 2.1-4.1 4.2-6.3 6.2-1.2 1.1-1.6 2.4-1.6 4 .1 11.8 0 23.7 0 35.5v24.2c0 1.4.4 2.4 1.4 3.4 1.6 1.5 3.1 3 4.6 4.6.7.6 1.3 1.3 2.3 2.2V473zm87 0c-.2-.1-.3-.2-.5-.3-2.1 2.1-4.2 4.3-6.4 6.4-1.1 1-1.5 2.1-1.4 3.6.1 8.7 0 17.4 0 26.2v33.6c0 1.5.4 2.6 1.5 3.6 1.9 1.7 3.6 3.6 5.5 5.4.4.4.8.6 1.4 1-.1-26.7-.1-53.1-.1-79.5zm-87 517.9c-.2-.1-.3-.1-.5-.2-2.4 2.4-4.9 4.8-7.2 7.3-.4.4-.5 1.3-.6 2-.1 1.7 0 3.4 0 5v55.2c0 1.6.4 2.9 1.6 4 1.8 1.7 3.5 3.5 5.3 5.2.4.4.8.6 1.4 1v-79.5zm86.9-.3c-.5.3-.8.4-1 .6l-6.3 6.3c-.8.7-1 1.6-1 2.6v59.8c0 1.9.5 3.3 2 4.6 1.7 1.5 3.2 3.2 4.8 4.7.4.4.9.7 1.6 1.3-.1-26.8-.1-53.2-.1-79.9zm232.2-297.7c2.6-2.6 4.7-4.8 6.9-6.8 1.1-1.1 1.6-2.2 1.6-3.8-.1-4.7 0-9.4 0-14.2v-43.9c0-2.2-.4-3.8-2.1-5.3-1.7-1.4-3.2-3.1-4.8-4.7-.4-.4-.9-.8-1.6-1.3v80zm28.4 377.5c.1-.1.3-.2.4-.3v-79.6c-.7.5-1.1.8-1.5 1.1-1.4 1.3-2.6 2.8-4.1 4-2.1 1.7-2.8 3.7-2.7 6.4.1 19 .1 38.1.1 57.1 0 .7-.1 1.4 0 2.2.1.5.1 1.2.5 1.5 2.4 2.7 4.9 5.1 7.3 7.6zM111.3 612.6c-.2 1-.3 1.3-.3 1.6 0 26 .1 52 .1 78 0 .1.1.1.1.2.1 0 .1 0 .5.2 1.8-1.9 3.7-4 5.7-5.9 1.6-1.5 2.2-3.1 2.2-5.3-.1-19 0-38.1 0-57.1 0-.7.1-1.5-.1-2.2-.1-.6-.3-1.3-.7-1.7-2.3-2.5-4.7-4.9-7.5-7.8zm28.4 198.6c.2-.3.4-.4.4-.5 0-25.8.1-51.7.1-77.5 0-.4-.1-.8-.1-1.2 0-.1-.1-.1-.1-.2-.1 0-.1 0-.5-.1-1.9 2-3.9 4.1-6 6-1.3 1.2-1.8 2.5-1.8 4.2.1 12.1 0 24.2 0 36.2v23c0 1.7.5 2.9 1.7 4 1.7 1.6 3.3 3.3 4.9 4.9.4.5.9.9 1.4 1.2zm.4-597.2c-.2-.1-.3-.2-.5-.2-2.1 2.1-4.2 4.3-6.4 6.4-1.1 1-1.5 2.1-1.5 3.6.1 5.7 0 11.4 0 17v42.5c0 1.6.4 2.9 1.6 4 1.8 1.7 3.5 3.5 5.3 5.2.4.3.8.6 1.5 1V214zm-28.7 140.2c-.5 2.4-.5 77.2 0 79.2l1.5-1.2c1.6-1.6 3.1-3.2 4.8-4.7 1.5-1.3 2.1-2.8 2-4.8-.1-11.1 0-22.2 0-33.3v-24.9c0-1.5-.4-2.7-1.5-3.8-1.8-1.7-3.5-3.5-5.3-5.2-.5-.5-1-.8-1.5-1.3zm174-.3c-.6 4.6-.4 77.6.2 79.6 1.9-1.9 3.7-3.9 5.7-5.6 1.9-1.6 2.5-3.4 2.5-5.8-.1-18.2-.2-36.5 0-54.7 0-3.7-.7-6.6-3.7-8.9-1.7-1.2-3-2.8-4.7-4.6zm-.2 597.2c.2.1.3.2.5.2 2.1-2.1 4.1-4.2 6.3-6.2 1.3-1.2 1.7-2.5 1.7-4.2-.1-17.8 0-35.7 0-53.5 0-2.4.6-5.1-.3-7.1-.9-2.1-3.2-3.7-4.9-5.4l-3.2-3.2c-.1 26.9-.1 53.2-.1 79.4zm-261-517.9c.2.1.3.2.5.2l6.6-6.6c1-1 1.4-2 1.4-3.4-.1-3.8 0-7.5 0-11.3v-47.7c0-1.6-.4-2.9-1.6-4-1.9-1.7-3.6-3.6-5.5-5.4-.4-.4-.8-.6-1.4-1v79.2zm87 438.8v79.6c.7-.6 1.3-1 1.7-1.4 1.4-1.4 2.7-2.9 4.3-4.2 2.1-1.7 2.6-3.7 2.6-6.3-.1-9.6 0-19.2-.1-28.8v-28c0-1.9-.4-3.4-1.9-4.6-1.7-1.5-3.3-3.3-4.9-4.9-.5-.5-1-.8-1.7-1.4zm261-.2v79.8c.7-.6 1.2-.9 1.6-1.4 1.5-1.5 3-3.1 4.6-4.5 1.6-1.4 2.2-3 2.2-5.2-.1-18.1 0-36.1-.1-54.2 0-2 .5-4.2-.3-5.9-.8-1.8-2.7-3.1-4.1-4.6-1-1.3-2.3-2.5-3.9-4zm0-517.9v79.7c.7-.5 1.1-.8 1.5-1.2 1.5-1.5 3-3.1 4.6-4.5 1.8-1.5 2.4-3.3 2.4-5.6-.1-18 0-36-.1-53.9 0-2 .5-4.2-.3-5.9-.8-1.8-2.7-3.1-4.1-4.6-1.1-1.3-2.4-2.5-4-4zm-348 517.9v79.8c.7-.5 1.1-.8 1.5-1.2 1.4-1.3 2.7-2.7 4.1-4.1 3.5-3.6 2.9-2 2.9-6.8 0-17.9-.1-35.8.1-53.7.1-4.1-.8-7.2-4.1-9.7-1.6-1.2-2.8-2.7-4.5-4.3zm261-697.7c.2.1.4.2.6.2 2.4-2.4 4.9-4.8 7.2-7.3.5-.5.6-1.4.6-2.2.1-3 0-6.1 0-9.1v-50.2c0-1.6-.4-2.9-1.6-4-1.8-1.7-3.5-3.5-5.3-5.2-.4-.4-.8-.6-1.5-1.1v78.9zm.6 439.2c-.2.1-.5.2-.7.2v77.2c.1.5.2 1 .4 1.9 2.3-2.3 4.3-4.4 6.4-6.3 1.4-1.2 1.8-2.6 1.8-4.4-.1-19.4 0-38.7 0-58.1 0-.6.1-1.1 0-1.7-.1-.5-.3-1.1-.6-1.5l-7.3-7.3zm-59.1 377.2c-2.4 2.4-4.5 4.5-6.7 6.6-.9.8-1.3 1.8-1.2 3 .1.9 0 1.8 0 2.6v52.3c0 2.5.1 4.9.1 7.4 1.8 1.8 3.5 3.7 5.3 5.5l1.2 1.2c.4.3.8.6 1.3.9.7-2.1.7-77 0-79.5zm-.3-179.3c.2-.1.4-.1.6-.2.1-.8.2-1.5.2-2.3v-75.4c-.1-.5-.2-1-.5-1.9-2.1 2.1-3.9 4.1-5.9 5.8-1.6 1.4-2.1 3-2.1 5 .1 19.4 0 38.9 0 58.3 0 .6-.1 1.3 0 1.9.1.6.3 1.3.7 1.7 2.4 2.5 4.7 4.8 7 7.1zm0-259c.2-.1.4-.2.7-.3 0-1.1.1-2.2.1-3.3v-74.3c-.1-.5-.2-1-.5-1.8-2.1 2.1-3.9 4.1-5.9 5.8-1.6 1.4-2.1 3-2.1 5 .1 19.4 0 38.9 0 58.3 0 .6-.1 1.3 0 1.9.1.5.2 1.2.5 1.5l7.2 7.2zm.8-338c-.3-.1-.5-.2-.8-.3-1.8 1.8-3.6 3.8-5.6 5.5-1.6 1.4-2.1 2.9-2.1 5 .1 18.1 0 36.1 0 54.2 0 2.3-.5 4.9.3 6.9.9 2.1 3.1 3.5 4.8 5.3.6.6 1.2 1.3 1.9 1.9l1.5 1v-79.5zM11.3 708.3l-8.9 8.9c2.4 3.1 18.4 18.9 20 19.8L42 717.4l-9.1-9.1c-3.4 3.4-7 6.9-10.8 10.6-3.7-3.5-7.2-6.9-10.8-10.6zm339.6-508.8c6.4 6.4 12.9 12.9 19.3 19.2l19.7-19.7c-1.5-2.1-7.3-7.7-8.9-8.5-3.8 3.4-7.1 7.3-11 10.7-3.6-3.6-7.1-7-10.4-10.3-3.1 2.9-6 5.8-8.7 8.6zm-339.3-8.7c-3.1 3.1-6 6-8.6 8.7 6.4 6.3 12.9 12.8 19.1 19 6.4-6.4 13-13 19.5-19.4l-8.7-8.7c-3.5 3.4-7.1 7-10.9 10.7-3.6-3.6-7-7-10.4-10.3zM390 716.7c-2.8-2.8-5.7-5.8-8.8-8.7-3.9 3.8-7.5 7.4-11.2 11.1l-10.4-10.4-8.7 8.7c6.3 6.3 12.9 12.8 19.2 19.2l19.9-19.9zm-213.3-258c1.8 2.4 18 18.4 19.7 19.3l19.6-19.6c-3.1-3.2-6-6.1-9.1-9.2-3.5 3.4-7.1 7-10.8 10.8-3.7-3.6-7.2-7-10.6-10.4-3 3.2-5.9 6.1-8.8 9.1zm19.2 536.8l19.6-19.6c-2.7-2.7-5.6-5.7-8.6-8.8l-10.8 10.8c-3.6-3.6-7.1-7.1-10.5-10.4-3.1 3.2-6 6.1-8.7 8.9 6.2 6.4 12.7 12.8 19 19.1zM109 201.2l-10.5-10.5-8.7 8.7 19.2 19.2 19.6-19.6-8.7-8.7c-3.4 3.5-7 7.1-10.9 10.9zm11 506.9c-3.6 3.6-7.2 7.2-11 10.9-3.7-3.7-7.2-7.1-10.5-10.4-3.1 3.1-6 6.1-9.1 9.1l19.4 19.4c3.4-2.8 19.1-18.8 20-20.2l-8.8-8.8zm143.5 268.4c1.9 2.5 18.1 18.5 19.8 19.5 6.6-6.6 13.2-13.2 20-19.9-3.1-3.2-6-6.1-9.1-9.1-3.8 3.8-7.4 7.4-11.2 11.1l-10.5-10.5c-3.1 3-6 5.9-9 8.9zm.1-517.9c1.6 2.2 18.1 18.5 19.2 19.1l20.1-20.1c-2.7-2.7-5.6-5.6-8.7-8.6-3.8 3.8-7.4 7.4-11.2 11.1l-10.5-10.5c-3.1 3.1-5.9 6-8.9 9zM128.7 975.8c-2.7-2.7-5.7-5.6-8.8-8.6l-5.2 5.2c-1.9 1.8-3.6 3.8-5.7 5.5-3.7-3.6-7.1-7.1-10.7-10.7l-8.7 8.7 19.5 19.5 19.6-19.6zm135.2-258.4l19.1 19.1c6.5-6.4 13.1-13.1 19.6-19.6l-8.7-8.7c-1.6 1.6-3.4 3.5-5.2 5.2-1.9 1.8-3.6 3.8-5.7 5.5-3.6-3.6-7.1-7-10.4-10.3-3.1 3.1-6 6.1-8.7 8.8zM294 190.2c-3.6 3.6-7.2 7.2-11 10.9-3.7-3.7-7.1-7.1-10.5-10.4-3.1 3.2-6 6.1-8.6 8.7l19 19 19.6-19.6c-2.5-2.6-5.4-5.5-8.5-8.6zM185.7 708.7c-3.2 3.2-6 6.1-8.8 8.9l19.3 19.3c2.2-1.6 18.9-18.5 19.8-20.2l-8.8-8.8c-3.8 3.8-7.4 7.4-11.2 11.1-3.6-3.6-7.1-7-10.3-10.3zM89.8 458.3l19.3 19.3c6.4-6.5 13.1-13.1 19.5-19.6l-8.7-8.7-5.2 5.2c-1.9 1.8-3.5 3.9-5.8 5.4-3.6-3.5-7.1-7-10.4-10.3l-8.7 8.7zm125.7-259.1c-2.8-2.9-5.7-5.8-8.6-8.9l-10.8 10.8c-3.7-3.7-7.2-7.1-10.4-10.2-3.1 3.1-6 6-8.9 8.8 6.3 6.3 12.8 12.7 19.1 19 6.6-6.4 13.2-13.1 19.6-19.5zM390 975.7c-2.8-2.8-5.7-5.8-8.8-8.8L370.1 978c-3.8-3.6-7.1-7.2-10.8-10.6-3.1 3.1-6.1 6-8.6 8.6l19.5 19.5 19.8-19.8zM22 978c-3.7-3.6-7.1-7.1-10.4-10.3-3.1 3.1-6 6-8.9 9 1.7 2.4 18 18.4 19.2 19.1l19.7-19.7c-2.7-2.8-5.6-5.7-8.8-8.8-3.4 3.4-7 7-10.8 10.7zm348.1-500.4c6.4-6.5 13.1-13.1 19.5-19.5l-8.7-8.7c-3.4 3.4-7 7-10.8 10.7-3.7-3.7-7.2-7.1-10.3-10.3l-8.7 8.7c6.2 6.3 12.7 12.8 19 19.1zM33 449.2c-3.6 3.6-7.2 7.1-10.9 10.9-3.7-3.7-7.2-7.1-10.3-10.3l-8.7 8.7c6.3 6.3 12.8 12.7 19.1 19 6.4-6.4 13.1-13.1 19.5-19.6-2.7-2.6-5.6-5.5-8.7-8.7zm162.4 222.2c.1-.2.2-.4.2-.6 0-5.3.1-10.5 0-15.8 0-.6-.4-1.3-.9-1.8-6.1-6.2-12.3-12.3-18.5-18.5-.6-.6-1.2-1.1-1.6-1.4-3.1 3-6 6-8.9 8.9 1.7 2.2 28.2 28.5 29.7 29.2zm-29.5-547.1c1.6 2.3 28 28.5 29.6 29.2.1-.2.2-.4.2-.6 0-5.3.1-10.5 0-15.8 0-.6-.4-1.3-.9-1.8-6.1-6.2-12.3-12.3-18.5-18.5-.6-.6-1.2-1.1-1.6-1.4-3 3-5.9 5.9-8.8 8.9zm173.9 258.9c1.4 2 28 28.5 29.6 29.3.1-.2.2-.4.2-.7V396c0-.9-.4-1.4-1-2-6.2-6.1-12.3-12.3-18.5-18.5-.5-.5-1-.9-1.4-1.2-3 3-5.8 5.9-8.9 8.9zm29.7 547s.1-.2.1-.4c0-5.4.1-10.7 0-16.1 0-.6-.5-1.3-.9-1.8l-18.6-18.6c-.4-.4-.9-.8-1.4-1.2-2.2 1.4-8.1 7.5-8.6 8.6 9.8 9.9 19.6 19.7 29.4 29.5zM78.6 642.3l4.2 4.2 4.2 4.2 4.2 4.2 4.2 4.2 4.2 4.2c1.4 1.4 2.8 2.9 4.2 4.2 1.4 1.3 2.5 3 4.4 4 .1-.5.3-.8.3-1.1 0-5.1.1-10.2 0-15.3 0-.7-.5-1.5-1-2-6.1-6.2-12.3-12.3-18.5-18.5-.5-.5-1.1-1-1.6-1.4-2.8 3.1-5.7 5.9-8.8 9.1zm29.8-488.9c.1-.2.3-.5.3-.9 0-5.1.1-10.2 0-15.3 0-.7-.5-1.5-1-2l-18.3-18.3c-.6-.6-1.3-1.1-1.6-1.4-3.1 3.1-5.9 6.1-8.5 8.7 9.5 9.6 19.3 19.4 29.1 29.2zm87.1 777.1c.1-.3.2-.5.2-.7V914c0-.6-.4-1.4-.8-1.8l-18.6-18.6c-.5-.5-1.1-1-1.8-1.6-3.1 3.1-6 6-8.7 8.8 9.9 10 19.7 19.8 29.7 29.7zm-87-.2s.2-.2.2-.4c0-5.4.1-10.7 0-16.1 0-.6-.5-1.3-1-1.8-6.2-6.2-12.4-12.5-18.7-18.7-.4-.4-.9-.8-1.4-1.2-2.2 1.5-8 7.5-8.6 8.6 9.9 10 19.7 19.8 29.5 29.6zM78.8 383.2c1.9 2.6 28.2 28.6 29.6 29.3.1-.1.2-.3.2-.4 0-5.4.1-10.7 0-16.1 0-.6-.5-1.3-.9-1.8-6.3-6.4-12.7-12.7-19-19-.4-.4-.8-.7-1.1-.9-2.9 3-5.8 5.9-8.8 8.9zm87 .1c2.8 3.5 28.1 28.5 29.6 29.2.1-.1.2-.3.2-.4 0-5.3.1-10.7 0-16 0-.6-.4-1.4-.9-1.8l-18.6-18.6c-.5-.5-1-1-1.4-1.3l-8.9 8.9zM281.9 413c.2-.1.5-.3.7-.4v-16.7c0-.5-.4-1.2-.8-1.6L263.5 376c-.6-.6-1.3-1.2-1.7-1.6-3.1 3.1-6 6-9.3 9.2 9.7 9.7 19.6 19.5 29.4 29.4zm0 517.9c.2-.2.5-.3.7-.5v-16.5c0-.8-.3-1.3-.9-1.8l-18.3-18.3c-.6-.6-1.3-1.2-1.7-1.5-3.1 3.1-6 6-9.2 9.1 9.8 9.7 19.6 19.6 29.4 29.5zm14.6-590.8c.4.4.7.9 1.1 1.3 9.2 9.1 18.3 18.2 27.5 27.4l.2.1c.1 0 .1-.1.3-.1 0-.2.1-.4.1-.7v-15.3c0-1.3-.6-2.1-1.4-2.9l-17.6-17.6c-.4-.4-.9-.8-1.3-1-2.9 2.9-5.8 5.8-8.9 8.8zm.2 518c1.9 2.5 27.4 27.7 28.9 28.5 0-.3.1-.6.1-.9v-15.1c0-1.3-.6-2.1-1.4-2.9-5.9-5.9-11.9-11.8-17.8-17.8-.4-.4-.8-.7-1-.7-2.9 3.1-5.8 6-8.8 8.9zm-55.5 28.4l28.6-28.6c-2.7-2.7-5.6-5.7-8.6-8.7-.1.1-.4.2-.6.4l-18.5 18.5c-.8.8-1.1 1.7-1.1 2.8v14.4c.1.5.2.9.2 1.2zM269.8 340c-2.7-2.8-5.6-5.7-8.6-8.7 0 0-.2.1-.4.3-6.2 6.2-12.4 12.4-18.7 18.6-.8.8-1 1.7-1 2.8v14.2c0 .5.1 1.1.1 1.4l28.6-28.6zm12.6 331.4c.1-.1.2-.3.2-.4 0-5.4.1-10.7 0-16.1 0-.6-.4-1.3-.9-1.8l-18.3-18.3c-.6-.6-1.3-1.2-1.7-1.6-3.1 3.1-6 6-8.7 8.8l29.4 29.4zm.2-517.8v-16.9c0-.5-.4-1-.7-1.4l-19-19c-.4-.4-.9-.8-1.2-.9-3 3.1-5.9 6-8.5 8.7 9.6 9.7 19.4 19.5 29.4 29.5zm86.8-.1c.1-.2.2-.5.2-.7v-15.6c0-1-.5-1.6-1.1-2.2l-18-18c-.6-.6-1.3-1.2-1.7-1.6l-8.7 8.7c9.6 9.6 19.4 19.4 29.3 29.4zm0 517.8c.1-.1.2-.3.2-.4 0-5.4.1-10.7 0-16.1 0-.6-.5-1.3-.9-1.8-6.1-6.2-12.3-12.3-18.5-18.5-.5-.5-1.1-.9-1.4-1.2-3 3-6 5.9-8.7 8.7l29.3 29.3zm-246.9-72.2c.3.4.6.8 1 1.1 9.2 9.1 18.3 18.3 27.5 27.4l.2.1c.1 0 .2-.1.3-.1 0-.3.1-.6.2-.9v-15.1c0-1.3-.7-2.1-1.5-2.9l-17.3-17.3c-.5-.5-1-.9-1.5-1.3-2.9 3-5.8 5.9-8.9 9zm-55.3 28.5c9.8-9.8 19.3-19.3 28.8-28.7-2.7-2.7-5.7-5.6-8.7-8.7-.5.4-1.1 1-1.7 1.6-4.8 4.7-9.3 9.7-14.3 14.2-3.2 2.8-4.4 5.8-4.1 10 .2 3.8 0 7.7 0 11.6zm28.7 489.1l-8.6-8.6c-.2.2-.6.5-1 .8l-18 18c-.9.9-1.2 1.8-1.2 3v14.2c0 .5.1 1 .2 1.3 9.6-9.6 19.1-19.1 28.6-28.7zm26.7.2c2.5 3.3 27.4 27.8 29 28.6.1-.3.2-.6.2-.9v-15.1c0-1.2-.5-1.9-1.3-2.7-5.9-5.9-11.8-11.8-17.7-17.6-.4-.4-.9-.8-1.3-1.1-3 3-5.9 5.8-8.9 8.8zm.1-1035.8c9.4 9.7 18.8 19.3 28.2 29 .2-.1.4-.3.6-.4.1-.6.2-1.2.2-1.8V94.2c0-1.5-.5-2.5-1.6-3.6-5.7-5.7-11.4-11.4-17.2-17.1-.5-.5-1.1-.9-1.5-1.3-2.8 3.1-5.7 6-8.7 8.9zM67.4 110c3.4-2.7 28-27.6 28.6-28.6l-8.9-8.9s-.3.2-.5.4c-6.1 6-12.2 12.1-18.3 18.2-.8.8-1.1 1.7-1.1 2.8v14.4c0 .5.1.9.2 1.7zm173.8 150.1l28.5-28.5-8.4-8.4s-.3.2-.5.4c-6.2 6.2-12.4 12.4-18.7 18.6-.7.7-1 1.5-1 2.6v14.4c0 .4.1.8.1.9zm-2.6 367.6c.1-.4.2-.6.2-.9v-15.1c0-1.2-.5-1.9-1.3-2.7l-18-18c-.4-.4-.8-.6-1.5-1.1-1.5 1.6-2.9 3.1-4.3 4.6-1.4 1.5-3 2.8-4.1 4.2l29 29zm58.1-28.5c2.9 3.6 27.2 27.6 29 28.5 0-.9.1-1.6.1-2.4 0-4.2-.1-8.3 0-12.5 0-1.8-.5-3.1-1.8-4.4-5.7-5.5-11.2-11.2-16.8-16.7-.6-.6-1.1-1.1-1.6-1.5-3 3-5.9 6-8.9 9zm-55.6 179l28.6-28.6-8.4-8.4s-.3.2-.5.4c-6.2 6.2-12.4 12.4-18.7 18.6-.8.8-1 1.7-1 2.8v15.2zm20.3 329.9c-.2.1-.4.2-.6.4l-18.8 18.8c-.8.8-.9 1.6-.9 2.6v14.1c0 .5.1 1.1.2 1.7 1.9-1.1 27.9-27.1 28.9-28.8l-8.8-8.8zm64.2 37.5c.1-.7.2-1.3.2-1.9V1130c0-1.4-.4-2.4-1.4-3.4-5.9-5.8-11.8-11.7-17.6-17.6-.4-.4-.9-.8-1.7-1.4-1.5 1.6-2.9 3.2-4.3 4.7s-2.9 2.9-4.3 4.3c2.3 3.2 27.4 28.1 29.1 29zm2.6-.1c9.7-9.7 19.2-19.3 29-29l-8.6-8.6c-.4.3-.6.3-.7.5-6.3 6.3-12.6 12.5-18.9 18.8-.9.9-1 1.9-1 3v13.4c.1.7.2 1.3.2 1.9zm.1-1035.7c2.1-1.4 28.1-27.4 28.7-28.6l-8.9-8.9c.1 0-.2.1-.3.2-6.2 6.2-12.4 12.4-18.7 18.6-.8.8-1.1 1.7-1.1 2.8V108c.1.7.2 1.2.3 1.8zm-2.6-.1c0-.7.1-1.3.1-1.9 0-4.5-.1-8.9 0-13.4 0-1.5-.5-2.5-1.5-3.6-5.8-5.7-11.5-11.5-17.3-17.3-.5-.5-1-.9-1.4-1.2-3 3.1-5.9 6-8.6 8.7l28.7 28.7zm-84.4.1c2.1-1.3 28-27.3 28.7-28.5-3-3-5.9-5.9-8.8-8.9.1-.1-.1 0-.2.1-6.3 6.3-12.7 12.6-19 18.9-.7.7-.9 1.4-.9 2.4v14.4c0 .5.1 1 .2 1.6zm28.8 489.1c-.6-1.2-6.2-7-8.6-8.7-.2.2-.5.3-.7.5-6.2 6.2-12.4 12.4-18.7 18.6-.7.7-1 1.6-1 2.6v14.4c0 .5.2 1 .2 1.4 9.6-9.7 19.2-19.2 28.8-28.8zm-31.4-489.3c0-.5.2-1.2.2-1.9V94.5c0-1.6-.4-2.7-1.6-3.8-5.8-5.7-11.5-11.5-17.3-17.3-.5-.5-1-.9-1.3-1.1-3 3.1-6 6-8.6 8.6 9.4 9.5 18.9 19.1 28.6 28.7zm-20 998.5c-3.1 3.1-5.9 6.1-9 9.2 9.3 9.4 18.8 19.1 28.3 28.7.2-.1.5-.3.7-.4.1-.7.2-1.4.2-2.1v-13.2c0-1.6-.5-2.7-1.6-3.8-5.8-5.7-11.5-11.5-17.3-17.3-.5-.3-1-.8-1.3-1.1zm109.4-480.6c.3.2.6.3.8.5 9.6-9.6 19.1-19.2 28.9-29l-9.1-9.1c-.4.3-.6.4-.7.5-6.3 6.3-12.6 12.5-18.9 18.8-.8.8-1 1.7-1 2.8v15.5zm.3-108c3.2-2.4 28-27.5 28.9-29.2l-8.5-8.5c-.5.4-.8.6-1 .8-6.2 6.2-12.4 12.4-18.7 18.6-.7.7-1 1.5-1 2.6v14.1c0 .4.1.9.3 1.6zm-67-37.4c-.2.1-.5.4-.8.6l-18.5 18.5c-.8.8-1 1.7-1 2.8v13.7c0 .5.1 1 .2 1.6 1.7-.9 27.6-26.7 28.8-28.5-2.8-2.9-5.7-5.7-8.7-8.7zm87-150.9c-.4.3-.8.6-1.2 1L329.4 350c-.9.9-1.3 1.9-1.3 3.2v13.4c0 .7.1 1.3.2 1.9 9.6-9.7 19.2-19.2 28.6-28.7-2.6-2.6-5.5-5.5-8.5-8.6zm-138.7 9c2.2 2.8 27.2 27.6 28.9 28.5.1-.8.2-1.5.2-2.2v-13.2c0-1.5-.5-2.6-1.5-3.6-5.8-5.7-11.5-11.5-17.3-17.3-.5-.5-1.1-.9-1.4-1.2-3 3.2-5.9 6.1-8.9 9zm118.7 697.6c10-10 19.5-19.5 28.8-28.7-3.1-3.1-5.9-6-8.9-8.9 0 0-.3.2-.5.4-6.2 6.2-12.4 12.4-18.7 18.6-.8.8-1.1 1.7-1.1 2.8v13.7c.1.4.2.9.4 2.1zm-89.8-151.4c.1-.3.2-.6.2-.9v-15.1c0-1.2-.7-1.9-1.4-2.7-5.8-5.8-11.6-11.6-17.5-17.4-.5-.5-1.1-.9-1.3-1.1-3.1 3.1-6 6.1-8.5 8.7 9.3 9.4 18.9 18.9 28.5 28.5zm118.6-28.9l-8.5-8.5c-.5.3-.8.4-.9.5-6.3 6.3-12.6 12.5-18.8 18.8-.5.6-.9 1.5-.9 2.3-.1 4.9 0 9.8 0 14.6 0 .4.2.8.3 1.1 9.5-9.5 19.1-19 28.8-28.8zm-115.9 179.6c.2.1.3.2.5.3 9.6-9.5 19.1-19.1 28.5-28.5-3-3-5.9-5.9-8.9-8.8-.1 0-.3.2-.6.4-6.3 6.3-12.6 12.6-18.9 18.8-.8.8-.9 1.6-.9 2.6v13.7l.3 1.5zm-87-408.9l28.9-28.9c-3.2-3.2-6.1-6.1-9.1-9 .1 0-.1 0-.2.1-6.3 6.3-12.7 12.6-19 18.9-.7.7-.9 1.5-.9 2.4v14.9c.1.3.2.7.3 1.6zm-89.6 517.4v-2.2c0-4.3-.1-8.6 0-12.9 0-1.6-.4-2.8-1.6-4-5.7-5.6-11.3-11.3-17-16.9-.6-.6-1.1-1.1-1.5-1.4l-8.7 8.7c9.5 9.4 19.1 18.9 28.8 28.7zm89.4.2c2.4-1.6 28.2-27.5 28.9-28.8-3-3-5.9-5.8-9-8.8.2-.1.1-.1.1 0-6.4 6.4-12.8 12.7-19.2 19.1-.5.5-.8 1.2-.8 1.9v16.6zM87.4 223.1c-.1 0-.3.1-.4.3l-18.8 18.8c-.8.7-1 1.6-1 2.6v14.4c0 .4.2.8.2.9l28.5-28.5-8.5-8.5zM64.6 627.8c0-.8.1-1.5.1-2.2 0-4.4-.1-8.8 0-13.2 0-1.6-.5-2.7-1.6-3.8L46 591.5c-.5-.5-1-1-1.6-1.4-2.4 1.8-8 7.5-8.7 8.9 9.7 9.5 19.2 19 28.9 28.8zM35.8 340.2c1.4 2.1 27.1 27.6 28.8 28.5.1-.7.1-1.3.1-1.9v-13.7c0-1.4-.4-2.4-1.4-3.3-5.8-5.7-11.5-11.5-17.3-17.3-.5-.5-1-.9-1.3-1.2-3.1 3-6 5.9-8.9 8.9zm118.5-230.4c2.1-1.3 28.1-27.4 28.8-28.7l-8.8-8.8s-.3.1-.4.3c-6.2 6.2-12.4 12.4-18.7 18.6-.8.8-1 1.7-1 2.8v14.1c-.1.6 0 1.1.1 1.7zM35.7 81.2c2.7 3.4 27.3 27.7 28.9 28.5 0-.8.1-1.5.1-2.1 0-4.4-.1-8.8 0-13.2 0-1.6-.5-2.7-1.6-3.8l-17-17c-.5-.5-1-1-1.4-1.3-3.1 3-6 5.9-9 8.9zm28.9 805.4c.1-.7.1-1.3.1-1.9V871c0-1.4-.5-2.4-1.4-3.3-5.8-5.7-11.5-11.5-17.3-17.3-.5-.5-1-.9-1.3-1.2l-8.9 8.9c1.5 2.2 27.1 27.6 28.8 28.5zm22.7-37.4c-.1.1-.4.3-.6.5l-18.5 18.5c-.8.8-1 1.6-1 2.6v14.4c0 .5.2 1 .2 1.1l28.5-28.5c-2.6-2.7-5.5-5.6-8.6-8.6zm63.6 37.6c.2-.1.4-.2.7-.3.1-.4.2-.7.2-1.1v-14.8c0-1.2-.5-1.9-1.3-2.7-5.9-5.9-11.9-11.8-17.8-17.8-.4-.4-.8-.7-1-.8-3 3-6 5.9-9.2 9.1 9.3 9.4 18.8 18.9 28.4 28.4zm3.4-.2c1.7-.9 27.4-26.4 28.8-28.5l-8.9-8.9c-.1.1-.5.3-.8.7-6.1 6-12.1 12.1-18.2 18.1-.8.8-1.1 1.7-1.1 2.8v14.4c0 .4.1.9.2 1.4zm-2.7-518.1c.1-.4.2-.8.2-1.2v-14.6c0-1.3-.5-2.1-1.4-2.9l-17.6-17.6c-.4-.4-.9-.8-1-.8-3.1 3-6.1 5.9-8.8 8.5 9.4 9.4 18.9 19 28.6 28.6zm-84.4.2c9.8-9.8 19.3-19.4 28.7-28.8l-8.6-8.6s-.3.1-.5.4c-6.2 6.2-12.4 12.4-18.7 18.6-.8.8-.9 1.6-.9 2.6v15.8zm106.9-37.4s-.1 0-.2.1l-18.8 18.8c-.7.7-.9 1.4-.9 2.3v14.9c0 .4.1.7.1 1.2 1.6-.8 27.2-26.2 28.8-28.4-2.9-2.9-5.9-5.8-9-8.9zm-19.8-70.9c.2.1.4.3.6.4 9.5-9.6 19-19.3 28.5-28.8-1.5-2.3-7.4-8.1-9-8.9-.1.1-.3.1-.4.2l-19 19c-.7.7-.9 1.4-.9 2.4v14.6c0 .4.1.7.2 1.1zm-87 517.9c2.1-1.3 28-27.3 28.6-28.5-2.9-3-5.8-5.8-8.7-8.7 0 0-.2.1-.4.3-6.2 6.2-12.4 12.4-18.7 18.6-.8.8-1.1 1.7-1.1 2.8v14.1c.2.5.3.9.3 1.4zm107-37.2s-.3.2-.5.4c-6.2 6.2-12.4 12.5-18.7 18.6-.8.8-1 1.7-1 2.8v13.9c0 .5.1 1 .1 1.3l28.6-28.6c-2.6-2.6-5.5-5.5-8.5-8.4zM95.9 490.6l-8.5-8.5c-.1.1-.5.3-.7.6l-18.5 18.5c-.7.7-1 1.6-1 2.6v14.1c0 .5.2 1 .3 1.2 9.5-9.6 19-19.1 28.4-28.5zM87.4 1000c-.2.2-.5.4-.7.6l-18.5 18.5c-.8.8-1.1 1.7-1.1 2.8v13.9c0 .5.2 1 .3 1.9 9.8-9.9 19.4-19.4 28.7-28.8-2.9-3.1-5.7-6-8.7-8.9zm240.8-221.4c3.2-2.4 28.2-27.6 29-29.3-2.8-2.8-5.7-5.6-8.5-8.4-.5.3-.7.4-.9.6L329 760.3c-.8.8-1 1.7-1 2.8V777c.1.3.2.8.2 1.6zm.1-518.2c.2.2.4.3.7.5 9.6-9.6 19.2-19.3 28.5-28.7-3.3-3.2-6.1-6.1-9.1-9-.1.1-.5.3-.7.6-6.2 6.1-12.3 12.3-18.5 18.4-.8.8-1.1 1.7-1.1 2.8v13.9c0 .4.1 1 .2 1.5zm-153.9 739.7c-.1.1-.5.3-.7.6l-18.5 18.5c-.7.7-1 1.5-1 2.6v14.4c0 .4.1.7.1 1.2 1.7-.9 27.5-26.6 28.8-28.5-2.9-3-5.8-5.9-8.7-8.8zm8.5-509.5l-8.5-8.5c-.1 0-.4.2-.6.4-6.3 6.3-12.6 12.6-18.9 18.8-.7.7-.8 1.5-.8 2.4v14.4c0 .4.2.8.2 1 9.7-9.5 19.2-19.1 28.6-28.5zM42 224.4c-2.6 2.6-5 4.9-7.3 7.3-.4.4-.6 1.3-.6 2v39.8c0 .6 0 1.4.4 1.8 2.4 2.5 4.9 5 7.4 7.6.8-2.2.8-56.1.1-58.5zm347.9 576.3c.2-.1.3-.1.5-.2 0-.9.1-1.8.1-2.8V744c0-.5-.3-1-.5-1.8-2.2 2.2-4.1 4.3-6.2 6.1-1.3 1.2-1.7 2.5-1.7 4.2.1 12.1.1 24.3 0 36.4 0 2.8.6 4.9 2.8 6.7 1.8 1.6 3.3 3.4 5 5.1zM42 1001.2c-2.6 2.6-5.1 5-7.5 7.6-.4.4-.4 1.2-.4 1.8v39.8c0 1.1.4 2 1.2 2.7 1.7 1.6 3.3 3.3 4.9 4.9.5.5 1.1 1 1.8 1.6.7-2.2.7-56.1 0-58.4zm87.3-.3c-2.8 2.8-5.3 5.2-7.6 7.7-.4.4-.6 1.3-.6 2v39.8c0 .9.2 1.7.9 2.4 2.1 2 4.1 4.1 6.1 6.1.3.2.6.4 1.2.7v-58.7zM41.9 541.7c.3-.5.5-.7.5-.8 0-18.2.1-36.4.1-54.7 0-.8-.1-1.6-.1-2.4 0-.1-.1-.1-.1-.2-.1 0-.1-.1-.4-.2-2.1 2.1-4.3 4.4-6.5 6.5-.9.8-1.2 1.8-1.2 3 .1 2.7 0 5.4 0 8.2v30.7c0 .8 0 1.9.5 2.5 2.2 2.5 4.7 4.9 7.2 7.4zm348.4 459.9c-.2-.1-.3-.2-.5-.2-2.1 2.1-4.2 4.3-6.4 6.4-1 1-1.4 2-1.4 3.4.1 3.4 0 6.7 0 10.1v28.5c0 1-.1 2 .8 2.9 2.2 2.2 4.4 4.4 6.7 6.6.1.1.4.1.8.1v-57.8zm-261-517.9c-.2-.1-.3-.1-.5-.2-2.4 2.4-4.8 4.7-7.1 7.1-.5.5-.7 1.4-.7 2.2v39.6c0 1.1.3 2 1.1 2.8 1.9 1.8 3.7 3.7 5.6 5.6.4.3.8.6 1.5 1 .1-19.7.1-38.9.1-58.1zm260.6 58c.3-.5.5-.7.5-.8 0-18.1.1-36.1.1-54.2 0-1-.1-1.9-.1-2.9 0-.1-.1-.1-.1-.2-.1 0-.1-.1-.4-.2-2.1 2.1-4.3 4.4-6.5 6.5-.9.8-1.2 1.8-1.2 3 .1 2.7 0 5.4 0 8.2v30.7c0 .8 0 1.9.5 2.5 2.2 2.5 4.7 4.9 7.2 7.4zm-348 259c.2-.1.3-.1.5-.2 0-.9.1-1.8.1-2.8V744c0-.5-.2-1-.5-1.8-2.6 2.6-5 4.9-7.3 7.4-.4.4-.6 1.3-.6 2v39.8c0 .6 0 1.4.4 1.8 2.4 2.5 4.9 5 7.4 7.5zm87.4-58.4c-.8.6-1.3.9-1.6 1.3-1.6 1.6-3.1 3.2-4.8 4.7-1.4 1.2-1.9 2.5-1.9 4.4.1 10.9 0 21.9 0 32.8 0 2.4-.6 5.1.3 7.1.9 2.1 3.2 3.7 4.9 5.4.9.9 1.8 1.7 3 3 .1-19.8.1-39 .1-58.7zm260.7-518c-2.6 2.6-5 4.9-7.3 7.4-.4.4-.6 1.3-.6 2v39.8c0 1 .3 1.8 1 2.6 2 1.9 4 4 5.9 5.9.3.3.7.5 1.1.7.6-2.7.5-56.1-.1-58.4zm-260.7.3c-.5.2-.8.3-1 .5-2.2 2.1-4.4 4.2-6.4 6.5-.5.5-.7 1.4-.7 2.1v39.8c0 .8.3 1.8.9 2.3 2.1 2.2 4.3 4.3 6.4 6.5.2.2.5.2.9.4-.1-19.5-.1-38.7-.1-58.1zm86.8 835.2c.6-3.3.5-56.7-.1-58.6-2.5 2.5-4.9 4.9-7.3 7.4-.4.5-.6 1.3-.6 2v39.6c0 .7.1 1.6.5 2 2.3 2.5 4.8 4.9 7.5 7.6zm.2-576.2c-.1-.1-.3-.1-.4-.2-2.4 2.4-4.8 4.7-7.1 7.1-.5.6-.7 1.6-.7 2.4V532c0 1.2.3 2.1 1.2 3 1.9 1.8 3.7 3.7 5.6 5.6.4.4.8.6 1.5 1-.1-19.5-.1-38.7-.1-58zm-.4-200.9c.1-.1.3-.2.4-.3v-58c-.7.6-1.2.9-1.7 1.3l-5.1 5.1c-1.1 1-1.5 2.1-1.5 3.6.1 5 0 10.1 0 15.1v23.3c0 .8 0 2 .5 2.5 2.4 2.5 4.9 5 7.4 7.4zm.4 460c-.2-.1-.3-.2-.5-.2-2.4 2.4-4.8 4.7-7 7.1-.5.6-.7 1.6-.7 2.4v39.1c0 1.2.4 2.1 1.3 2.9 1.9 1.8 3.7 3.7 5.6 5.6.4.4.8.6 1.4 1-.1-19.4-.1-38.7-.1-57.9zm-6.8 140.5c-.6 2-.7 54.8-.1 56.9.2 0 .5 0 .6-.2 2.2-2.1 4.4-4.2 6.4-6.5.5-.6.8-1.6.8-2.4v-38.8c0-1.1-.3-2-1.1-2.8-2-1.9-3.8-3.8-5.8-5.7-.1-.1-.5-.2-.8-.5zm-.1-461c.2 0 .5 0 .6-.2 2.2-2.1 4.4-4.2 6.4-6.5.5-.6.8-1.6.8-2.4v-38.8c0-1.1-.3-2-1.1-2.8-2-1.9-3.8-3.8-5.8-5.7-.3-.3-.6-.4-1-.6-.5 2.1-.5 55 .1 57zm-.3-258.5c.6-.5 1-.7 1.3-1 1.9-1.9 3.7-3.8 5.6-5.6.9-.8 1.2-1.8 1.2-3v-38.6c0-1.2-.4-2.1-1.3-2.9l-5.4-5.4c-.4-.4-.8-.6-1.4-1v57.5zm.6 460.3c-.3.1-.5.2-.8.3v38.1c0 6.3-.2 12.6.2 19.6 2.6-2.6 4.7-4.8 6.9-6.9 1-.9 1.3-1.9 1.2-3.2-.1-1.7 0-3.4 0-5V634c0-1 .1-2.1-.7-2.9-2.3-2.4-4.5-4.7-6.8-7.1zm93.1 176.6c.1-.1.3-.2.4-.3v-58c-.7.5-1.1.8-1.5 1.2-1.5 1.5-3 3.1-4.6 4.5-1.5 1.3-2.1 2.8-2 4.8.1 10.9 0 21.9 0 32.8 0 1.8-.1 3.7 0 5.5 0 .8.2 1.7.6 2.2 2.3 2.6 4.7 4.9 7.1 7.3zm.4 201c-.2-.1-.4-.3-.6-.4-1.7 1.9-3.4 3.8-5.3 5.5-1.7 1.5-2.4 3.1-2.3 5.4.2 4.5 0 9.1 0 13.7v23.7c0 1.5.3 2.7 1.5 3.8 1.7 1.6 3.3 3.3 4.9 4.9.4.4.9.7 1.7 1.3.1-19.5.1-38.7.1-57.9zm-.5-460.1c.2-.1.5-.2.7-.2v-38.5c0-6.4.2-12.8-.1-19.8-2.4 2.4-4.3 4.5-6.4 6.4-1.3 1.2-1.8 2.4-1.8 4.2.1 5 0 10.1 0 15.1v23c0 .9 0 2.1.6 2.7 2.2 2.5 4.6 4.8 7 7.1zm.5-316.8c-.4.2-.7.2-.8.3-2.2 2.1-4.4 4.2-6.4 6.4-.5.6-.8 1.6-.8 2.4-.1 13.2 0 26.4-.1 39.6 0 1.2.4 2.1 1.3 2.9 1.9 1.8 3.6 3.6 5.4 5.4.4.4.8.6 1.4 1v-58zM35.3 105.9c-.6 4.3-.4 55.9.3 58 2.1-2.2 4-4.4 6.1-6.4 1.1-1 1.5-2.1 1.5-3.6-.1-6.9 0-13.9 0-20.8v-17.3c0-.9-.1-2.1-.7-2.7-2.2-2.3-4.6-4.6-7.2-7.2zm-.1 575.4c.1.1.3.2.4.2 1.9-1.9 3.6-3.8 5.6-5.5 1.5-1.3 2.1-2.8 2-4.8-.1-11.1 0-22.2-.1-33.3 0-2.1.4-4.3-.3-6.1-.7-1.7-2.6-2.9-4-4.4-1.1-1.1-2.2-2.2-3.7-3.6.1 19.5.1 38.5.1 57.5zm348-517.3c2.3-2.3 4.2-4.4 6.3-6.2 1.3-1.2 1.7-2.5 1.7-4.2-.1-11.6-.2-23.2.1-34.7.1-3.7-.8-6.5-3.7-8.7-1.5-1.1-2.7-2.6-4.4-4.3V164zM122.1 681.2c.1.1.3.2.4.3 1.9-1.9 3.7-3.9 5.7-5.7 1.4-1.3 2-2.7 2-4.6-.1-7.9 0-15.8 0-23.7 0-4.6-.1-9.1 0-13.7 0-1.6-.5-2.7-1.6-3.8-1.8-1.6-3.4-3.4-5.1-5.1-.3-.3-.8-.5-1.4-.9v57.2zm261 0c.2.1.3.2.5.3 2.1-2.1 4.1-4.2 6.2-6.2 1-1 1.4-2 1.4-3.4-.1-3.8 0-7.7 0-11.5v-26.6c0-1.1 0-2.2-.9-3.1-2.1-2-4.1-4.1-6.1-6.1-.2-.2-.6-.3-1-.4-.1 19.2-.1 38.1-.1 57zM122.2 163.7c.7-.5 1.1-.8 1.5-1.2 1.8-1.7 3.5-3.5 5.3-5.2 1-.9 1.3-1.9 1.3-3.2v-38.6c0-1.2-.3-2.1-1.2-3-1.9-1.8-3.6-3.6-5.4-5.4-.4-.3-.8-.6-1.4-1-.1 19.3-.1 38.3-.1 57.6zm174 776.4c.2.1.4.2.5.2 2.3-2.3 4.7-4.6 6.9-7 .5-.5.6-1.5.6-2.2v-38.8c0-1.2-.4-2.1-1.3-2.9-1.8-1.7-3.5-3.5-5.3-5.2-.4-.4-.8-.6-1.5-1.1.1 19.2.1 38.1.1 57zm.5-574.8c-.2.1-.5.2-.7.3v54.3c0 .8.1 1.6.2 3l3.6-3.6c1.4-1.4 3.3-2.7 4-4.4.7-1.7.3-3.9.3-5.9v-34c0-.8 0-1.9-.5-2.5-2.1-2.5-4.5-4.9-6.9-7.2zm86.5 574.8c.2.1.3.2.5.3 2.3-2.4 4.7-4.7 7-7.1.4-.4.5-1.2.5-1.8v-39.3c0-1-.3-1.8-1.1-2.5-1.6-1.6-3.2-3.2-4.8-4.7-.6-.6-1.2-1.1-2.2-2 .1 19.3.1 38.2.1 57.1zm-260.8-57c-.2.4-.3.6-.3.8 0 18.7.1 37.4.1 56.1 0 .1.1.1.2.2.1 0 .1 0 .5.1 1.8-1.8 3.7-3.8 5.7-5.6 1.4-1.2 1.8-2.6 1.8-4.4-.1-7.2 0-14.4 0-21.6v-16.1c0-1.4-.4-2.4-1.4-3.4-1.7-1.6-3.3-3.3-4.9-4.9-.7-.4-1.2-.7-1.7-1.2zm260.8-518.2v57.7c.7-.5 1.1-.8 1.5-1.2 1.5-1.5 2.9-3 4.4-4.4 1.5-1.3 2.1-2.8 2-4.8-.1-11.6-.2-23.2 0-34.8.1-3.4-.7-6-3.4-8.1-1.4-1.2-2.7-2.7-4.5-4.4zm-261 57.3c.2.1.3.1.5.2.7-.7 1.4-1.3 2-2 1.8-1.8 4.2-3.4 5.1-5.6.9-2.2.4-5 .4-7.6v-20.8c0-3.8-.1-7.7 0-11.5 0-1.6-.4-2.7-1.6-3.8-1.6-1.5-3.2-3.2-4.8-4.7-.4-.4-.9-.8-1.7-1.4.1 19.4.1 38.3.1 57.2zm-87 0c.2.1.3.2.5.3 2.4-2.4 4.7-4.7 7-7.1.4-.4.5-1.2.5-1.8v-39.3c0-1-.3-1.8-1.1-2.5-1.7-1.6-3.3-3.3-4.9-4.9-.5-.5-1.1-1-2-1.8v57.1zm0 517.9c.2.1.3.2.5.2 2.3-2.3 4.7-4.6 6.9-7 .5-.5.6-1.5.6-2.2v-38.9c0-1.2-.4-2.1-1.3-2.9-1.8-1.7-3.5-3.5-5.3-5.2-.4-.4-.8-.6-1.5-1.1.1 19.3.1 38.2.1 57.1zm261.6-833.7l-.6.3c0 .9-.1 1.7-.1 2.6v51.3c0 .9.1 1.8.2 2.7.2.1.4.1.5.2 2-2 4-4.1 6.1-6 1-1 1.4-2 1.4-3.4v-38.4c0-.8-.1-1.7-.5-2.2-2.4-2.5-4.7-4.8-7-7.1zm0 517.9l-.6.3c0 .9-.1 1.7-.1 2.6v51.4c0 .9.1 1.8.2 2.7.2.1.4.1.5.2 2-2 4-4.1 6.1-6 1-1 1.4-2 1.4-3.4-.1-7.5 0-15 0-22.5V634c0-.8-.1-1.9-.6-2.5-2.2-2.6-4.6-4.9-6.9-7.2zm-77-248.4c-.5 3.6-.3 34.1.2 35.7 1.6-.8 16.8-16 18-17.9-2.2-2.7-16.6-16.8-18.2-17.8zm.1 518.1c-.1.1-.3.2-.3.4 0 .6-.1 1.3-.1 1.9 0 11 .1 22 .1 33.1 0 .1.1.1.1.2.1.1.1.1.2.1l.5.5c5.9-6 11.8-12 17.6-18-1.5-2.6-16.6-17.5-18.1-18.2zM45.7 117.1c0 .2-.1.6-.1 1 0 11.5.1 23 .1 34.5 0 .1.1.1.1.2.1 0 .1.1-.2-.1l17.9-17.9c-5.7-5.7-11.7-11.7-17.8-17.7zM238 652.5c-6-5.9-11.9-12-18.3-18.1-.1 1-.2 1.5-.2 1.9 0 11.4.1 22.8.1 34.2 0 .1.1.1.1.2.1 0 .1.1 0 0 6.1-6 12.1-12 18.3-18.2zm-105.3 18.1l18.2-18.2-18.2-18.2v36.4zm-68.9-18.1c-1.9-2.6-16.6-17-18-17.6v35.6l18-18zm87-517.7c-.9-1.5-16.3-16.9-18-17.8-.4 2.9-.3 34.3.1 35.7 5.9-5.9 11.8-11.9 17.9-17.9zm87.1-.1c-3.1-3.8-16.6-17-18.3-17.8v2.7c0 11 .1 22 .1 33 0 .1.1.1.2.2.1 0 .1 0 0 0 5.9-6.1 11.9-12 18-18.1zm156 499.9c-.6 4-.4 34.6.2 36.3.3-.2.5-.4.8-.6l15.9-15.9c1.4-1.5 1.4-1.6 0-3.1l-15.9-15.9c-.3-.3-.6-.4-1-.8zm-.1-481.5c.5-.4.9-.6 1.1-.8l15.9-15.9c1.4-1.4 1.4-1.6-.1-3.1-5.2-5.3-10.5-10.5-15.7-15.7-.3-.3-.7-.5-1.2-.7v36.2zM132.7 411.5l18-18c-3.3-4-16.5-16.8-18-17.4v35.4zm174.2 482.8c-.6 1.8-.5 33.5.1 35 5.9-5.9 11.8-11.8 17.5-17.4l-17.6-17.6zm-243-500.6C61 390 47.2 376.6 45.6 376v24c0 2-.1 4 0 6 .1 1.9-.4 3.9.3 5.7 6-6 12-11.9 18-18zm68.9 500.1c-.1.3-.2.6-.2.9 0 11.6.1 23.1.1 34.7 0 .1.1.1.2.2.1 0 .1 0 0 0l18-18c-1.5-2-16.5-16.8-18.1-17.8zm-87.1 35.8l18.1-18.1c-2.3-3-16.5-16.9-18.1-17.6v35.7zm279.2-535.9c-3-3.6-16.5-16.9-18.1-17.6-.1.3-.2.6-.2.9v33.6c0 .4.3.8.4 1.1 6-6.1 11.9-12 17.9-18zm-18.3 277.2c2.8-1.8 17.5-16.7 18.3-18.3-2.9-3.6-16.3-16.7-18.3-17.7v36zm.2-553.6c-.1.5-.2 1-.2 1.5V151c0 .6.2 1.1.3 1.5l17.6-17.6c-5.8-5.7-11.7-11.6-17.7-17.6zM195.7 650.2v-17c0-.5-.4-1.2-.8-1.6l-8.1-8.1c-.4-.4-.9-.8-1.1-.9-3.1 3.1-6 6-8.8 8.7 6 6.2 12.3 12.4 18.8 18.9zm-.3-518.1c0-.1.2-.2.2-.4 0-5.4.1-10.9 0-16.3 0-.5-.4-1.2-.8-1.6l-8.1-8.1c-.4-.4-.9-.8-1.1-.9-3.1 3.1-6 6-8.8 8.7 6.1 6.1 12.4 12.3 18.6 18.6zm155.2 240.4c.2.2.4.6.8.9 5.9 5.8 11.8 11.7 17.7 17.5h.2c.1 0 .1-.1.4-.2v-16.6c0-.5-.5-1.1-.9-1.6-2.2-2.3-4.5-4.5-6.8-6.8-.8-.8-1.7-1.6-2.4-2.3-3.1 3.2-6 6.1-9 9.1zm0 517.9c1.5 2.2 17.3 17.8 18.8 18.5.1-.1.2-.3.2-.4 0-5.3.1-10.7 0-16 0-.6-.4-1.3-.9-1.8-1.6-1.7-3.4-3.4-5.1-5.1-1.4-1.4-2.8-2.8-4.1-4-3 2.9-5.9 5.8-8.9 8.8zm-339-526.8l-8.7 8.7 18.5 18.5c0 .1.1-.1.1-.3v-16c0-.5-.2-1.1-.6-1.5-3-3.3-6.2-6.4-9.3-9.4zm9.8 545.2c0-.1.1-.2.1-.4 0-5.3.1-10.7 0-16 0-.6-.4-1.3-.9-1.8-2.4-2.5-4.8-4.9-7.3-7.3-.7-.7-1.4-1.3-1.9-1.8l-8.7 8.7c6.2 6 12.5 12.3 18.7 18.6zm77.2-286.3c-3.1 3.1-6 6-8.7 8.6l18.5 18.5c0-.2.2-.6.3-1v-14.8c0-.9-.3-1.6-1-2.3-2.4-2.3-4.6-4.6-7-6.9-.8-.8-1.6-1.5-2.1-2.1zm-8.8-509.4l18.6 18.6c0-.2.3-.6.3-1.1v-14.8c0-.9-.3-1.6-1-2.3-2.4-2.3-4.6-4.6-7-6.9-.8-.8-1.6-1.5-2.3-2.2-3 3.1-5.8 6-8.6 8.7zm105.6 795.8c.1-.1.1-.1.1-.2 0-5.5.1-11 .1-16.5 0-.5-.3-1-.7-1.4-2.8-2.8-5.6-5.7-8.5-8.5-.4-.4-.9-.6-1.4-1-3 3-5.9 5.9-8.6 8.7 6.5 6.4 12.7 12.6 19 18.9zm-18.9-536.5c2.3 3.1 17.4 17.9 18.9 18.6.1-.1.2-.3.2-.4 0-5.3.1-10.7 0-16 0-.6-.4-1.3-.9-1.8-2.6-2.7-5.3-5.3-7.9-8-.5-.5-1.1-.9-1.5-1.2l-8.8 8.8zm87.5-.3c6 6.1 12.3 12.4 18.5 18.8-.1.1 0 0 0 0 0-5.6.1-11.2.1-16.7 0-.5-.4-1-.7-1.4l-7.8-7.8c-.6-.5-1.1-1.1-1.6-1.4l-8.5 8.5zM282.6 909v-16.9c0-.5-.3-1-.7-1.4l-8.1-8.1c-.5-.5-1-.9-1.6-1.4-3.1 3-6 5.9-8.6 8.5 6.4 6.6 12.6 12.8 19 19.3zM108.5 390.9c.1-.2.2-.4.2-.7 0-5.2.1-10.4 0-15.6 0-.7-.5-1.5-1-2-2.4-2.5-4.8-4.9-7.3-7.3-.7-.7-1.4-1.3-1.9-1.8l-8.7 8.7 18.7 18.7zm0 517.8s.2-.3.2-.6c0-5.2.1-10.4 0-15.6 0-.7-.5-1.5-1-2-2.5-2.6-5.1-5.1-7.6-7.6-.5-.5-1.1-1-1.5-1.4l-8.6 8.6c6.1 6.1 12.3 12.4 18.5 18.6zm219.8 107.1l17.8-17.8-8.8-8.8c-2.7 2.7-5.6 5.5-8.4 8.5-.6.6-.8 1.7-.9 2.6-.1 4.6 0 9.3 0 13.9.1.6.2 1.2.3 1.6zm-64.7-902.3c.3.3.5.7.8 1l16.7 16.7c.3.3.8.5 1.5.9v-16.8c0-.6-.5-1.3-.9-1.8-2.4-2.5-4.8-4.9-7.3-7.3-.7-.7-1.3-1.3-1.9-1.8-3 3.2-5.9 6-8.9 9.1zm18.7 536.4c.1-.1.3-.2.3-.4 0-5.4.1-10.8 0-16.3 0-.5-.4-1.2-.8-1.6-2.7-2.8-5.5-5.5-8.3-8.3-.4-.4-.8-.7-1.4-1.1l-8.8 8.8c1.9 2.6 17.5 18 19 18.9zm-41.1 107l18-18c-2.7-2.7-5.6-5.6-8.6-8.7-.3.3-.8.6-1.3 1.1-2.3 2.3-4.6 4.7-7 6.9-.9.9-1.3 1.9-1.3 3.2.1 4.7 0 9.4 0 14.1.1.5.2 1 .2 1.4zm87-259l18.2-18.2c-1.6-2.1-7.3-7.7-8.9-8.5-2.9 2.9-5.8 5.7-8.6 8.6-.6.6-.8 1.7-.8 2.6-.1 4.6 0 9.3 0 13.9 0 .6.1 1.1.1 1.6zm-68.8-276.7l-8.8-8.8s-.3.1-.5.2c-2.8 2.7-5.6 5.5-8.3 8.3-.5.6-.8 1.6-.8 2.4-.1 4.9 0 9.9 0 14.8 0 .4.2.8.2 1.2 6.3-6.2 12.3-12.2 18.2-18.1zm91.1-107.7c.5.5 1 1.1 1.5 1.6 5.6 5.6 11.2 11.1 16.8 16.7.1.1.1.1.2.1h.2c.1 0 .1-.1.4-.2v-16.4c0-.5-.4-1.2-.8-1.6-2.8-2.9-5.6-5.7-8.5-8.5-.3-.3-.7-.5-.8-.6-3.1 3-6 5.9-9 8.9zm-130 992.8c.1.1.3.5.5.7 5.7 5.6 11.3 11.3 17 16.9h.2c.1 0 .1-.1.3-.1.1-.2.2-.4.2-.6 0-5.1.1-10.2 0-15.3 0-.8-.6-1.8-1.2-2.5-1.8-1.9-3.7-3.8-5.6-5.6l-2.5-2.5c-3 3.1-5.9 6-8.9 9zm130.2-474.9c1.3 1.9 17 17.5 18.6 18.4.1-.2.2-.4.2-.6 0-5.3.1-10.5 0-15.8 0-.6-.4-1.3-.9-1.8-1.5-1.6-3.1-3.2-4.7-4.8-1.5-1.5-3-3-4.4-4.3-3 3.1-5.9 6-8.8 8.9zm-13.3 466c.1-.1-.1 0-.3.1-2.7 2.7-5.5 5.4-8.1 8.2-.5.6-.9 1.5-.9 2.3-.1 4.9 0 9.8 0 14.6 0 .4.2.8.3 1 6-6 11.9-11.9 17.8-17.7-2.8-2.6-5.7-5.5-8.8-8.5zm-316-447.6c.1-.2.2-.4.2-.6 0-5.3.1-10.5 0-15.8 0-.7-.6-1.4-1.1-2-2-2.1-4-4.1-6.1-6.1-1-1-2-2-2.8-2.7l-8.7 8.7 18.5 18.5zM238.5 606c.1-.2.3-.4.3-.6v-15.6c0-.6-.3-1.3-.7-1.7-2.9-2.9-5.9-5.8-9-8.9-3 3-6 5.9-8.7 8.8 6.1 6.1 12 12 18.1 18zm98.9-26.5c.1-.1-.1 0-.3.1-2.7 2.7-5.5 5.4-8.1 8.2-.5.6-.9 1.5-.9 2.3-.1 4.9 0 9.8 0 14.6 0 .4.2.8.3 1l17.7-17.7c-2.7-2.6-5.7-5.5-8.7-8.5zm-316-447.7c.1-.1.2-.4.2-.6 0-5.3.1-10.5 0-15.8 0-.7-.6-1.4-1.1-2-2-2.1-4-4.1-6.1-6.1-1-1-2-2-2.8-2.7l-8.7 8.7c6 6.1 12.2 12.2 18.5 18.5zm217.2-43.9c0-.2.3-.6.3-1V72.3c0-1.1-.5-1.9-1.3-2.7-2.2-2.1-4.3-4.3-6.4-6.4-.6-.6-1.2-1.2-1.6-1.5-3.1 3.1-6 6-8.7 8.6 5.7 5.7 11.7 11.6 17.7 17.6zm98.8-26.3c.1 0-.2 0-.3.2-2.7 2.7-5.5 5.4-8.1 8.2-.6.6-.9 1.7-.9 2.6-.1 4.6-.1 9.3 0 13.9 0 .6.2 1.2.2 1.6l17.8-17.8c-2.7-2.8-5.6-5.7-8.7-8.7zM64.6 864.8c0-.4.1-1.1.1-1.8v-9.4c0-2 .5-4.2-.3-5.9-.8-1.8-2.7-3.1-4.1-4.6l-4.8-4.8-8.7 8.7 17.8 17.8zm89.6-107.7c6.2-6.2 12.2-12.2 18.3-18.2-1.4-2-7.3-7.7-9-8.7-2.7 2.7-5.4 5.4-8.1 8-1 .9-1.3 1.9-1.3 3.2v14.2c0 .5.1 1 .1 1.5zm-107.4-428c5.8 5.9 11.8 11.9 17.8 18 0-.6.1-1.3.1-2 0-3.3-.3-6.6.1-9.8.4-4.1-.8-7.2-4.1-9.7-2-1.5-3.6-3.5-5.3-5.2-3 3.1-5.9 6-8.6 8.7zm116.7-116.7s-.2 0-.4.2c-2.7 2.7-5.4 5.4-8.2 8.1-.8.8-.8 1.7-.8 2.6v14.4c0 .5.1 1 .2 1.7 2.4-1.8 17.4-16.9 18.1-18.1l-8.9-8.9zm0 108.1l-.4.2c-2.7 2.7-5.5 5.4-8.1 8.1-.5.6-.8 1.5-.8 2.3-.1 4.9 0 9.9 0 14.8 0 .4.1.8.1.8l17.8-17.8c-2.7-2.5-5.6-5.4-8.6-8.4zm0 517.9l-.4.2c-2.7 2.7-5.5 5.4-8.1 8.1-.5.6-.8 1.5-.8 2.3-.1 4.9 0 9.9 0 14.8 0 .4.1.8.1.8l17.8-17.8c-2.7-2.5-5.6-5.4-8.6-8.4zM67.3 497.8l18.1-18.1c-1.9-2.4-7.3-7.7-9-8.5-2.6 2.6-5.2 5.3-7.9 7.9-1 1-1.4 2-1.4 3.4.1 4.6 0 9.1 0 13.7.1.6.2 1.2.2 1.6zm9.2 491.4l-.4.2c-2.7 2.7-5.5 5.4-8.1 8.2-.5.6-.8 1.6-.8 2.4-.1 4.9 0 9.8 0 14.6 0 .5.2 1 .4 1.8l18.1-18.1c-3.3-3.2-6.2-6.1-9.2-9.1zm251.7-232.3c6.1-6.1 12.2-12.1 18-18-2.7-2.7-5.7-5.6-8.7-8.7-.3.2-.8.6-1.2 1-2.3 2.3-4.5 4.6-6.8 6.8-1.1 1-1.5 2.1-1.5 3.6.1 4.5 0 9 0 13.4.1.8.2 1.5.2 1.9zm0-517.7l18.4-18.4c-2.8-2.8-5.7-5.8-8.9-8.9-2.9 2.9-5.6 5.7-8.4 8.3-1 1-1.4 2-1.3 3.4v13.7c.1.7.2 1.3.2 1.9zm-2.5 626c0-.9.1-1.6.1-2.3v-9.1c0-2.1.4-4.4-.3-6.1-.7-1.8-2.7-3.1-4.1-4.6l-5-5c-2.6 2-8.1 7.6-8.8 8.9 5.9 6.1 11.9 12.1 18.1 18.2zm0-518.3c-.1.2 0 0 0 0 .1-5.4.1-10.8.1-16.1 0-.5-.2-1.2-.5-1.5-2.9-3-5.9-6-8.6-8.8-3.1 3.1-6 6.1-8.6 8.7 5.7 5.8 11.6 11.8 17.6 17.7zm-84.4 777.3c2.7-2 17.3-16.8 18-18-3-3-5.9-5.8-9-8.8l-7.9 7.9c-.9.9-1.3 1.9-1.3 3.2.1 4.6 0 9.3 0 13.9 0 .5.1 1 .2 1.8zm86.9-259.3l17.9-17.9c-2.7-2.7-5.7-5.6-8.8-8.6-2.5 2.5-5.2 5.2-8 7.9-1 1-1.4 2-1.4 3.4.1 4.6 0 9.1 0 13.7.2.5.3 1.2.3 1.5zm-77.8-544.5c-2.8 2.8-5.8 5.7-8.6 8.7-.5.5-.7 1.6-.7 2.4-.1 4.7 0 9.4 0 14.2 0 .5.1 1 .1 1.3l17.9-17.9-8.7-8.7zm-78.2 677.4c-2.8-2.7-5.7-5.7-8.7-8.7-.3.3-.8.6-1.2 1.1-2.3 2.2-4.5 4.6-6.8 6.7-1 1-1.4 2-1.4 3.4.1 4.6 0 9.3 0 13.9 0 .6.1 1.2.1 1.6 6.1-6 12.1-12 18-18zM325.8 606v-16.3c0-.7-.5-1.5-1-2-1.2-1.4-2.6-2.6-3.9-3.9-1.5-1.5-3-3-4.4-4.3-3.1 3.1-6 5.9-8.7 8.6 5.8 5.8 11.8 11.8 18 17.9zm-.2 518c.1-.2.2-.4.2-.7 0-5.2.1-10.4 0-15.6 0-.8-.5-1.7-1.1-2.2-2.1-2.3-4.4-4.4-6.6-6.6-.6-.6-1.2-1.2-1.6-1.5-3.1 3.1-6 6-8.8 8.7l17.9 17.9zm-84.4-259.1l17.9-17.9-8.6-8.6c-.3.2-.7.6-1.1.9-2.3 2.3-4.6 4.7-7 6.9-1 1-1.4 2-1.4 3.4.1 4.6 0 9.1 0 13.7.1.6.2 1.2.2 1.6zm-.1 151.4c2.6-1.7 17.6-16.9 18.3-18.3-3-3-5.9-5.9-8.9-9-2.9 2.9-5.9 5.8-8.8 8.9-.5.5-.6 1.5-.6 2.2-.1 3 0 5.9 0 8.9v7.3zm.2-410c2.5-1.8 17.3-16.7 18-18-3-3-5.9-5.8-9-8.8-2.5 2.5-5.1 5.2-7.9 7.8-.9.9-1.3 1.9-1.3 3.2.1 4.6 0 9.3 0 13.9 0 .5.1 1.1.2 1.9zm-77.8-135.1c-2.9 2.9-5.9 5.8-8.7 8.7-.5.5-.6 1.4-.6 2.2-.1 4.9 0 9.7 0 14.6 0 .4.1.9.2 1.9 6.4-6.3 12.4-12.4 18.3-18.3-3.2-3.1-6.1-6-9.2-9.1zm77.8 26.9c1.9-1.1 17.2-16.4 18.2-18-2.9-3-5.9-5.9-8.9-8.9-.1 0-.4.2-.6.4-2.7 2.6-5.3 5.3-8 7.9-.8.8-1 1.7-1 2.8v13.9c.1.7.2 1.3.3 1.9zm84.3-409.9c.1-.3.2-.6.2-.9 0-5.1.1-10.2 0-15.3 0-.8-.5-1.7-1-2.3-1.7-1.9-3.6-3.6-5.4-5.4-1-1-2-2-3.2-3.1l-7.6 7.6c-.4.4-.8.9-1.2 1.4 1.5 2.2 16.5 17 18.2 18zm-75.1-26.6c-.1.1-.4.3-.7.5l-7.6 7.6c-.8.8-1.1 1.7-1.1 2.8v14.1c0 .5.1 1 .2 2.2 6.4-6.3 12.3-12.3 18.2-18.2l-9-9zm95.6 267.7c-2.9-2.8-5.8-5.7-8.9-8.7-2.7 2.7-5.6 5.5-8.4 8.5-.6.6-.8 1.7-.8 2.6-.1 4.6 0 9.3 0 13.9 0 .6.2 1.1.2 1.5 6.1-6 12.1-12 17.9-17.8zM229.1 838c-3.1 3.2-6.1 6-8.9 9 2.3 3 16.7 17.1 18.3 18 .1-.3.3-.6.3-.9v-15.3c0-.6-.3-1.3-.7-1.7-2.9-3-5.8-5.9-9-9.1zm.4-517.6l-8.7 8.7 17.8 17.8c.1-.7.2-1.4.2-2.1v-8.9c0-2.1.4-4.4-.3-6.1-.7-1.8-2.7-3.1-4.1-4.6-1.7-1.6-3.4-3.3-4.9-4.8zm-96 268c2.3 3 16.6 17 18.2 17.6 0-5.6 0-11.1-.1-16.6 0-.7-.6-1.5-1.1-2-2.2-2.3-4.5-4.5-6.8-6.8-.5-.5-1.1-.9-1.4-1.2-2.9 3.2-5.8 6.1-8.8 9zm9 508.9l-9 9c2 2.7 16.6 17 18.2 17.7v-16.6c0-.5-.3-1.1-.6-1.5l-8.6-8.6zM133.3 70.2c2.2 3 16.8 17.3 18.2 17.9.1-.1.2-.3.2-.4 0-5.3.1-10.5 0-15.8 0-.8-.6-1.7-1.1-2.2-2.4-2.5-4.8-4.9-7.3-7.3-.3-.3-.7-.5-1.3-1l-7.2 7.2c-.5.4-1 1-1.5 1.6zM46.6 1106.3c1.5 2.1 16.4 16.8 17.9 17.6.1-.1.2-.3.2-.4 0-5.3.1-10.6 0-15.8 0-.8-.5-1.7-1.1-2.2-1.7-1.9-3.6-3.7-5.4-5.5-1-.9-1.9-1.9-2.7-2.6-3 3.1-6 6-8.9 8.9zm29.9-894.1c-2.9 2.9-5.8 5.8-8.7 8.8-.4.4-.6 1.3-.6 2v14.9c0 .4.2.8.3 1.1l17.9-17.9-8.9-8.9zm-9.3 544.7l18-18-8.6-8.6s-.2 0-.4.2c-2.7 2.7-5.5 5.4-8.1 8.2-.5.6-.8 1.6-.8 2.4-.1 3 0 5.9 0 8.9-.1 2.2-.1 4.5-.1 6.9zM64.7 88.3c0-5.7 0-11.1-.1-16.5 0-.8-.6-1.6-1.1-2.2-2.3-2.4-4.7-4.8-7.1-7.1-.4-.4-.9-.6-1-.8-3 3.1-6 6-8.6 8.6 5.8 5.7 11.8 11.7 17.9 18zm89.4 517.6l18.2-18.2-8.6-8.6c-2.9 2.9-5.6 5.7-8.4 8.3-1 .9-1.3 1.9-1.2 3.2v15.3zm-77.7-26.3s-.3.1-.5.4l-7.8 7.8c-.8.8-.9 1.6-.9 2.6v14.4c0 .5.2 1 .2 1.2l17.7-17.7c-2.7-2.9-5.7-5.8-8.7-8.7zm-11.8 26.2s.1-.3.1-.6v-15.4c0-1-.4-1.7-1.1-2.3l-7.5-7.5c-.3-.3-.8-.5-1.3-.8l-8.4 8.4 18.2 18.2zm89.6 517.9c5.9-6 11.9-12 18-18-1.4-1.9-7.1-7.5-8.9-8.4-2.8 2.8-5.7 5.7-8.5 8.6-.5.5-.7 1.6-.7 2.4-.1 4.7 0 9.4 0 14.1 0 .6.1 1.1.1 1.3zM67.3 88l17.8-17.8c-2.7-2.7-5.7-5.6-8.7-8.6 0 0-.3.1-.5.4l-7.8 7.8c-.8.7-.9 1.6-.9 2.6v14.4c0 .4.1.8.1 1.2zm-.1 1036.2c2.3-1.5 17.4-16.7 18.5-18.6-1.4-1.3-3-2.7-4.5-4.2-1.5-1.4-2.9-2.9-4.5-4.4l-5.1 5.1c-1.4 1.4-3.3 2.6-4 4.4-.7 1.8-.4 4.1-.4 6.1-.1 3.8 0 7.5 0 11.6zm66.3-794.9c1.7 2.4 16.4 16.8 17.9 17.6.1-.2.2-.4.2-.6 0-5.2.1-10.4 0-15.6 0-.8-.6-1.6-1.1-2.2-2-2.2-4.1-4.2-6.2-6.3-.7-.7-1.4-1.3-1.9-1.8-3.1 3-5.9 5.9-8.9 8.9zm-66.3 17.6L85 329.1c-2.7-2.7-5.6-5.6-8.6-8.7-2.8 2.8-5.7 5.7-8.6 8.7-.5.5-.6 1.5-.6 2.2-.1 2.6 0 5.1 0 7.7v7.9zm96.2-285.5c-2.6 2.6-5.2 5.3-7.9 7.9-1 1-1.4 2-1.3 3.4.1 4.5 0 9.1 0 13.6 0 .6.1 1.2.1 1.7 6-6.1 11.9-12.1 17.7-18-2.5-2.5-5.5-5.4-8.6-8.6zm-29.9 785.8c1.8 2.5 16.4 16.9 18 17.7.1-.2.2-.4.2-.6 0-5.2.1-10.4 0-15.6 0-.7-.5-1.5-1-2.1-1.6-1.7-3.2-3.3-4.9-5-1.2-1.2-2.4-2.3-3.4-3.3-3.1 3-5.9 5.9-8.9 8.9zm-48 .3c-3.1-3.1-6-6.1-8.9-9.1-.3.2-.7.6-1.1.9-2.3 2.3-4.6 4.7-7 6.9-.9.9-1.3 1.9-1.3 3.2v13.7c0 .6.1 1.2.3 2.4l18-18zm207-575.1v-37.6c-2.9 2.9-5.4 5.4-7.9 8-.3.3-.4 1-.4 1.6v18.5c0 .7.2 1.5.7 1.9l7.6 7.6zm-87.1-.1c.6-3.4.4-35.3-.2-37.2-2.6 2.6-5 5-7.4 7.6-.4.4-.5 1.2-.5 1.8v18.4c0 .7.2 1.5.6 1.9l7.5 7.5zm.2 740c-.2-.1-.3-.1-.5-.2-2.4 2.4-4.9 4.8-7.2 7.3-.5.5-.7 1.4-.7 2.2-.1 6 0 12 0 18 0 1.1.4 2 1.2 2.7 2 1.9 3.8 3.8 5.8 5.7.3.3.8.5 1.4.9v-36.6zm87 36.9v-37.1c-.3.1-.6.2-.7.3-2.3 2.2-4.6 4.5-6.8 6.8-.5.6-.8 1.6-.8 2.4-.1 5.9 0 11.8-.1 17.7 0 1.2.4 2.1 1.2 2.9 1.6 1.5 3.1 3 4.6 4.6.7.7 1.5 1.4 2.6 2.4zm0-555c-.3.1-.6.2-.7.3-2.3 2.2-4.6 4.5-6.8 6.8-.5.5-.8 1.4-.8 2.1-.1 6.1 0 12.1-.1 18.2 0 1.1.3 1.8 1.1 2.5 1.6 1.6 3.2 3.2 4.8 4.7.7.7 1.4 1.4 2.5 2.4v-37zm-87.2 296c.6-3.6.4-35.3-.2-37.2-2.6 2.6-5 5-7.4 7.6-.4.4-.5 1.2-.5 1.8v18.4c0 .7.2 1.5.7 1.9 2.3 2.5 4.8 4.8 7.4 7.5zm87.1.1c.5-4.8.3-35.4-.3-37.3-2.6 2.6-5.1 5-7.5 7.6-.4.4-.5 1.2-.5 1.8v18.5c0 .6.2 1.3.5 1.7 2.5 2.5 5 4.9 7.8 7.7zm-86.9-259.2v-36.9c-.4.2-.6.2-.8.3-2.3 2.2-4.6 4.5-6.8 6.8-.5.5-.8 1.4-.8 2.1-.1 6.1 0 12.1-.1 18.2 0 1.1.4 2 1.2 2.7l5.4 5.4c.6.4 1.1.8 1.9 1.4zm174.1-295.6c-.2-.1-.5-.2-.7-.2-2.2 2.2-4.3 4.5-6.5 6.6-.9.9-1.3 1.9-1.3 3.2 0 5.7.1 11.5 0 17.2 0 1.3.4 2.3 1.4 3.1 1.8 1.7 3.5 3.5 5.3 5.2.4.4.9.8 1.9 1.5-.1-12.5-.1-24.6-.1-36.6zm-348.2-.3c-.5.3-.7.4-.9.6-2.2 2.1-4.3 4.3-6.5 6.4-.8.7-.9 1.6-.9 2.6v17.5c0 1.2.3 2.1 1.2 3 1.9 1.8 3.7 3.7 5.6 5.6.4.4.8.6 1.5 1.1v-36.8zm86.5 813.6l.6-.3c0-.8.1-1.6.1-2.4v-31.2c0-.9.3-1.9-.7-2.8-2.2 2.2-4.3 4.4-6.5 6.5-1 1-1.4 2-1.4 3.4v14.6c0 5.1-.5 3.6 3 7.2 1.7 1.8 3.3 3.4 4.9 5zm-86.4-36.6c-.5.2-.8.3-.9.4-2.2 2.2-4.5 4.3-6.6 6.6-.5.6-.8 1.6-.8 2.4-.1 5.9 0 11.8-.1 17.7 0 1.1.3 2 1.1 2.7 2 1.9 3.8 3.8 5.8 5.7.4.4.8.6 1.5 1.1v-36.6zm347.7 36.9c.6-3.1.4-34.9 0-36.6-.1 0-.4 0-.4.1-2.3 2.3-4.7 4.6-7 6.9-.4.5-.7 1.3-.7 1.9v18.2c0 .7.2 1.5.6 2l7.5 7.5zm.2-554.7c-.4.1-.7.1-.8.3-2.3 2.2-4.6 4.4-6.8 6.8-.5.5-.7 1.4-.7 2.2-.1 6 0 12 0 18 0 1 .3 1.8 1.1 2.5 1.6 1.6 3.2 3.2 4.8 4.7.7.7 1.4 1.4 2.5 2.4-.1-12.7-.1-24.7-.1-36.9zM31.1 530.9l.6-.3v-18.2c0-6 .2-12-.4-18.1-2.3 1.9-4.3 4-6.4 6-1.3 1.2-1.8 2.4-1.8 4.2.1 4.5.3 9.1 0 13.6-.2 3.5.6 6.2 3.4 8.3 1.7 1.3 3.1 3 4.6 4.5zm86.9 0c.2-.1.4-.2.5-.3 0-.8.1-1.6.1-2.4v-31.1c0-.9.3-1.9-.7-2.8-2.2 2.1-4.2 4.3-6.3 6.3-1.2 1.1-1.6 2.3-1.5 3.8.1 4.6 0 9.3 0 13.9.1 5.8-.7 3.9 3.4 8.1l4.5 4.5zm261.5 222.5l-.6-.3c-2.4 2.5-4.8 4.9-7.1 7.4-.5.5-.6 1.5-.6 2.2v17.7c0 1 .2 1.8 1 2.6 2.1 2 4.1 4.1 6.1 6.1.3.3.7.4 1.3.6-.1-12.3-.1-24.3-.1-36.3zM31.3 790.1c.6-3.4.5-35.1-.1-37-2.6 2.6-5.1 5-7.4 7.5-.4.4-.5 1.3-.5 2v18c0 .6.1 1.4.5 1.8 2.3 2.5 4.8 4.9 7.5 7.7zm86.9-.1c.3-.7.5-.9.5-1.1 0-10.4.1-20.8.1-31.2 0-1.4-.1-2.7-.2-4.1 0-.1-.1-.2-.1-.2-.1 0-.1-.1-.5-.2-2.3 2.3-4.8 4.7-7.1 7.2-.5.5-.7 1.5-.7 2.2-.1 5.9 0 11.8 0 17.7 0 .7.1 1.5.6 2 2.3 2.6 4.7 5 7.4 7.7zm0-517.9c.3-.7.4-.9.5-1.1 0-1 .1-2.1.1-3.1 0-10.7-.1-21.4-.2-32.1 0-.1-.1-.2-.1-.2-.1 0-.1-.1-.5-.2-2.3 2.3-4.8 4.7-7.1 7.2-.5.5-.7 1.5-.7 2.2-.1 5.9 0 11.8 0 17.7 0 .7.1 1.5.6 2 2.3 2.5 4.7 4.9 7.4 7.6zm-17.5 175.5c2.8 2.8 5.7 5.8 8.4 8.4l8.7-8.7-8.4-8.4c-2.9 2.8-5.9 5.9-8.7 8.7zm8.7 509.1c-3 3-6 6-9 9.1 1.2 1.9 7.2 7.7 8.4 8.4 3.1-3.1 6.1-6.2 9-9-2.6-2.8-5.5-5.7-8.4-8.5zm174.1-258.8c-2.9 2.8-6 5.9-9.1 9 1.4 2 7.2 7.7 8.5 8.4l9-9-8.4-8.4zm-9.2-509c3.1 3.7 7.6 7.9 8.7 8.4 3.1-3.1 6.1-6 8.9-8.8-2.9-2.8-5.9-5.7-8.7-8.4-2.7 2.7-5.8 5.7-8.9 8.8zM117.9 706.5c-2.9-2.9-5.9-5.8-8.6-8.6l-8.9 8.9c1.2 1.8 7.3 7.7 8.7 8.5l8.8-8.8zM22.4 974.4l8.7-8.7-8.8-8.8c-2.8 2.8-5.8 5.9-8.7 8.8 2.8 2.6 5.7 5.5 8.8 8.7zm182.5-9.1c-2.9-2.8-5.8-5.7-8.5-8.4-2.9 2.8-6 5.8-8.9 8.7l8.5 8.5c3-2.9 6-5.9 8.9-8.8zm156.4.7l8.4 8.4c3.3-3.3 6.3-6.3 9.1-9.2-2.7-2.8-5.6-5.7-8.3-8.5-2.9 3-5.9 6-9.2 9.3zM22 715.3c3.1-3.1 6.1-6.1 8.9-9l-8.8-8.8-9 9c3.2 3.1 6 6 8.9 8.8zm182.9-267.9c-2.9-2.9-5.9-5.8-8.5-8.4-2.8 2.8-5.9 5.8-8.8 8.7 2.8 2.7 5.7 5.6 8.5 8.4 2.9-2.8 5.9-5.8 8.8-8.7zm165.2 9c2.2-1.5 8.3-7.7 9.1-9.4-2.9-2.9-5.8-5.7-8.4-8.4l-9.2 9.2c2.7 2.7 5.5 5.6 8.5 8.6zM292 965.2c-2.9-2.9-5.8-5.8-8.5-8.6-2.9 3-6 6.1-8.9 9.1 2.8 2.7 5.7 5.6 8.5 8.3 2.8-2.8 5.8-5.8 8.9-8.8zm-8.4-526.4c-3.1 3.1-6.1 6.1-9 8.9 2.8 2.8 5.7 5.6 8.8 8.7 2.9-2.9 6-5.9 8.8-8.9-3-3.1-5.8-6-8.6-8.7zm86.5 276.3c2.9-3 5.9-6.1 8.6-8.8-2.7-2.7-5.6-5.6-8.3-8.4-2.9 2.9-5.9 5.9-8.7 8.8l8.4 8.4zM22.5 438.8c-3 3-6 6.1-8.9 8.9 2.7 2.7 5.6 5.7 8.6 8.6 1.8-1.2 8.1-7.5 8.9-9-2.9-2.9-5.8-5.8-8.6-8.5zm86.7-259.2c-3 2.9-6.1 6-8.8 8.8 3.1 3.2 6 6.1 8.8 8.9 2.9-2.9 5.9-5.9 8.7-8.8-2.7-2.9-5.6-5.8-8.7-8.9zm-86.7.2c-3 3-6 6.1-8.9 9l8.3 8.3c2.9-2.9 5.9-6 8.8-9-2.5-2.6-5.4-5.5-8.2-8.3zm348 .1c-3 3-6 6.1-8.7 8.9l8.4 8.4 8.8-8.8-8.5-8.5zM204.9 706.4c-2.8-2.8-5.7-5.7-8.5-8.6-2.9 3-5.9 6.1-8.7 9l8.4 8.4c3-2.9 6-6 8.8-8.8zm-17.3-517.7l8.5 8.5c2.9-2.9 5.9-6 8.8-8.9l-8.4-8.4c-2.9 2.9-5.9 5.9-8.9 8.8zm-87.1 690.9c1.2 1.8 6.4 6.9 7.9 7.6.5-1.9.6-13.8.1-15.5-2.6 2.6-5.3 5.2-8 7.9zm8.1-526c-2.8 2.8-5.5 5.4-8.2 8.1 1.4 2.1 6.5 7 8.3 7.8 0-5.5.2-10.7-.1-15.9zm86.9 792.9c.5-3.2.4-14.4-.2-16-1.8 1-7 6.3-7.9 7.9l8.1 8.1zm-95.2-525.9c2 2.7 6.6 7.1 8.4 7.8v-5.3c0-1.8.1-3.7 0-5.5-.1-1.7.5-3.4-.4-4.9-2.7 2.6-5.2 5.2-8 7.9zm8.1 525.4c.5-1.7.5-13.7-.3-15.8l-7.8 7.8c2.9 2.9 5.6 5.5 8.1 8zm78.7-525.7c2.2 2.8 6.9 7.3 8.3 8.1.4-2.9.3-14.2-.3-16.2-2.7 2.8-5.3 5.4-8 8.1zm-78.7-510c.6-2.3.5-14.1-.1-15.5l-7.7 7.7c2.4 2.5 5.1 5.1 7.8 7.8zm79.1-7.9c2.7 2.7 5.4 5.3 8.1 7.9V94.7c-1.7.7-6.9 5.8-8.1 7.7zm8 785v-15.6c-2.6 2.6-5.3 5.3-7.9 7.8 2.5 2.3 5.1 5 7.9 7.8zm0-518.1c.5-3.8.3-14.3-.3-16-2.7 2.8-5.4 5.4-7.8 7.9 2.8 2.8 5.5 5.4 8.1 8.1zm174 502.3c-1.6.7-7.1 6.1-8.2 8.2l8.2 8.2v-16.4zm-95 267.1c1.8 2.4 6.6 7 8 7.6v-15.6c-2.7 2.6-5.3 5.3-8 8zm8-785.1c-2.7 2.7-5.4 5.3-7.8 7.8 2.5 2.5 5.2 5.2 7.8 7.9v-15.7zm-8 267.2c1.7 2.3 6.6 7 8 7.6v-15.7c-2.7 2.7-5.3 5.4-8 8.1zm7.9-510.1c.5-3.7.3-14.6-.2-16.1-2.3 1.7-7 6.5-7.8 8 2.6 2.7 5.3 5.3 8 8.1zm.1 760.9c-2.7 2.7-5.4 5.3-7.8 7.7 2.5 2.6 5.2 5.2 7.8 7.9v-15.6zm87.1-518c-.2-.1-.5-.2-.7-.3-1.3 1.4-2.6 2.7-3.9 4.1-1.3 1.4-2.9 2.5-3.5 3.7 2.8 2.8 5.4 5.4 8.1 8.2.1-5.2 0-10.4 0-15.7zM13.5 879.7c1.4 1.9 6.4 6.8 8 7.7v-15.7c-2.7 2.6-5.4 5.3-8 8zm8-510.2v-15.8l-7.8 7.8c2.4 2.5 5 5.2 7.8 8zm-.1-259.2c.5-2.5.4-13.8-.1-15.3-2.5 2.6-5.2 5.2-7.6 7.7 2.3 2.3 5 4.9 7.7 7.6zm339.9-7.7c2 2.6 6.5 6.9 8.3 7.9v-5.3c0-1.8.1-3.7 0-5.5-.1-1.7.4-3.4-.4-5-2.7 2.6-5.2 5.2-7.9 7.9zM21.4 1146.1c.5-2.5.4-13.8-.1-15.3-2.5 2.6-5.2 5.2-7.6 7.7 2.4 2.3 5 4.9 7.7 7.6zm340-525.4c1.7 2.4 6.5 7 8 7.5.5-3.1.3-13.9-.1-15.3-2.6 2.5-5.2 5.1-7.9 7.8zm-339.9-8.1c-2.8 2.8-5.5 5.4-8.1 8.1 1.9 2.6 6.5 7 8.1 7.6v-15.7zm339.9 526c1.7 2.4 6.5 7 8 7.5.5-3.1.3-13.9-.1-15.3-2.6 2.5-5.2 5.1-7.9 7.8zM238.8 52.5c-.2-.1-.5-.2-.7-.3-2.4 2.4-4.7 4.8-6.8 6.9 2.6 2.6 4.9 4.9 7.6 7.5-.1-4.7 0-9.4-.1-14.1zm-7.4 525.2c1.6 2.1 5.7 6.1 7.1 6.7.6-2.1.5-12.4 0-13.8-2.3 2.2-4.6 4.6-7.1 7.1zm96.7-525.6c0 5-.2 9.7.1 14.3 2.5-2.5 4.9-4.9 7.2-7-2.2-2.2-4.6-4.5-7.3-7.3zm-89.7 1036.4c-2.3 2.3-4.7 4.7-7 7.2 2 2.6 5.8 6.1 7.1 6.7.6-2.5.5-12.6-.1-13.9zm97.2-511.4c-2-2.6-5.7-6.1-7.5-6.9 0 4.8-.2 9.5.2 14.3 2.5-2.5 4.8-4.9 7.3-7.4zm-7.5 511c0 5-.2 9.6.2 14.2 2.5-2.5 4.9-4.8 7.1-7-2.3-2.2-4.6-4.6-7.3-7.2zm-166.4-770l-7.4-7.4v14.8l7.4-7.4zm174.1 518.4c-1.8-2.5-6-6.5-7.5-7.2-.5 2.8-.4 12.8.3 14.5 1.8-1.8 3.6-3.5 5.3-5.3.6-.7 1.3-1.3 1.9-2zm-10.3 7.2c.5-3.4.3-13-.1-14.3l-7 7c2.3 2.3 4.6 4.7 7.1 7.3zm-84.3 0c2.3-1.6 6.6-6 7.5-7.7-2.3-2.4-4.7-4.8-7.5-7.5v15.2zm-2.6-.3c.5-2.4.4-12.6-.1-14-2.3 2.3-4.7 4.7-7.1 7 2.3 2.2 4.7 4.6 7.2 7zm-84.3-14.3c-.4 3.5-.3 12.8.1 14.2l7-7c-2.2-2.2-4.6-4.6-7.1-7.2zm174.1-517.9c-.5 3-.4 13 .1 14.3 2.4-2.3 4.8-4.7 7-7-2.3-2.3-4.7-4.8-7.1-7.3zm-2.7-.2c-2.6 2.7-5 5.1-7.4 7.6 1.4 2 5.8 6.2 7.4 7.1V311zm-77.1 7.3c-1.8-2.4-5.8-6.2-7.3-6.9-.5 3.5-.3 12.8.2 14.1 2.3-2.4 4.7-4.8 7.1-7.2zm-10.2-7.4l-7.2 7.2c2.6 2.7 5 5.1 7.3 7.5.5-1.8.5-12.3-.1-14.7zm2.8 273.5c.2.1.4.3.6.4 2.4-2.4 4.9-4.7 7.2-7-2.4-3.2-6.3-6.9-7.8-7.5v14.1zm.1 518.1c1.9-1 6.5-5.6 7.4-7.3-2.9-3.6-6-6.4-7.4-6.8v14.1zm76.9-525.2c1.6 2.4 5.9 6.5 7.4 7v-14.1c-1.6.9-5.8 4.9-7.4 7.1zm-.2-518c1.8 2.5 5.9 6.5 7.5 7.3.5-2.3.4-12.4-.2-14.5-2.5 2.4-4.8 4.7-7.3 7.2zm-76.6-6.8c-.5 2.5-.4 12.5 0 13.8 2.3-2.3 4.7-4.6 6.9-6.8-2.1-2.3-4.5-4.6-6.9-7zM64.6 843.3v-14c-2.4 2.4-4.8 4.7-7.1 7 2.2 2.3 4.7 4.7 7.1 7zm-7.4-524.5l7.4 7.4v-14.8c-2.4 2.4-4.8 4.7-7.4 7.4zM318 1095.1c1.8 2.5 5.9 6.5 7.5 7.3.5-2.3.4-12.4-.2-14.5-2.5 2.4-4.8 4.8-7.3 7.2zM67.4 584.3l7.2-7.2c-2-2.6-5.7-6.1-7.2-6.7v13.9zm7.2 511c-1-1.8-5.5-6.3-7.2-7-.6 3.6-.3 12.7.3 14.1 2.3-2.3 4.6-4.7 6.9-7.1zm76.9 7v-14.6c-2.8 2.7-5.3 5.1-7.3 7.4 2.5 2.5 4.9 4.8 7.3 7.2zm0-790.9c-.1-.1-.3-.2-.4-.2-2.4 2.4-4.8 4.8-7.2 7.3 1.4 1.4 2.5 2.6 3.7 3.8 1.2 1.1 2.3 2.3 3.9 3.8v-14.7zm2.8 790.9c2.5-2.4 4.9-4.8 7.3-7.2-1.5-2.1-5.6-6.1-7.3-6.9v14.1zM74.9 59.7c-2.2-2.9-6-6.5-7.5-7.2v14c.1.1.3.2.4.3 2.3-2.4 4.6-4.7 7.1-7.1zm79.4 525.1c2.8-2.1 6.5-6 7.4-7.6-2.5-3.2-5.9-6.3-7.4-6.8v14.4zM64.6 52.6c-2.4 2.4-4.8 4.7-7.4 7.2 2.2 2.3 4.6 4.7 7.4 7.4V52.6zm86.9 517.2c-2.8 2.7-5.2 5.1-7.5 7.5 2.3 3 6 6.5 7.5 7.1v-14.6zM74.7 318.1c-1-1.1-2.2-2.3-3.4-3.4-1.2-1.2-2.4-2.4-3.8-3.7-.5 3.3-.4 12.8 0 14.1 2.3-2.2 4.6-4.5 7.2-7zM64.5 584.2c.5-2.3.4-12.4-.2-13.7-2.3 2.3-4.6 4.7-6.8 6.9 2.3 2.2 4.7 4.5 7 6.8zm10.1 252c-1.7-2.4-5.9-6.3-7.3-6.9-.5 4.3-.3 12.6.3 13.9 2.3-2.3 4.7-4.6 7-7zm76.8 7.2c.6-2.6.5-12.5-.2-14.4-2.4 2.5-4.8 4.9-7 7.1 2.5 2.5 4.8 4.9 7.2 7.3zm2.9-791v14c2.4-2.3 4.8-4.7 7.2-7.1-1.2-1.9-5.5-6-7.2-6.9zm-10 7.3c3 3.6 5.9 6.3 7.3 6.6.4-3.9.3-12.3-.2-13.8-2.3 2.4-4.7 4.8-7.1 7.2zm-87 1035.8c1.8 2.4 5.7 6.1 7.2 6.8.4-3.1.3-12.5-.1-13.9-2.2 2.3-4.6 4.7-7.1 7.1zM7.2 0c-2 2-4 4.1-6 6.1-.3.3-.8.4-1.2.6V3.3c1.8-.5 2.7-2 3.8-3.3h3.4z" fill="#E4C590"/></svg>