<svg width="160" height="50" fill="none" xmlns="http://www.w3.org/2000/svg"><path d="M54 44.46v-7.7h2.651c.609 0 1.107.103 1.496.308.396.205.69.484.88.836.19.345.286.73.286 1.155a2.3 2.3 0 01-.385 1.298c-.25.389-.642.667-1.177.836l1.639 3.267h-1.353l-1.496-3.102h-1.375v3.102H54zm1.166-3.982h1.419c.528 0 .913-.128 1.155-.385.25-.257.374-.59.374-1.001 0-.41-.121-.737-.363-.979-.242-.25-.634-.374-1.177-.374h-1.408v2.739zm9.486 3.982v-7.7h4.895v.946h-3.729v2.398h3.4v.924h-3.4v2.486h3.73v.946h-4.896zm12.786.132c-.565 0-1.06-.099-1.485-.297a2.364 2.364 0 01-1.001-.847c-.235-.367-.356-.803-.363-1.309h1.232c.007.41.15.759.429 1.045.278.286.67.429 1.177.429.447 0 .795-.106 1.045-.319.256-.22.385-.499.385-.836 0-.271-.063-.491-.187-.66a1.334 1.334 0 00-.495-.418 4.38 4.38 0 00-.715-.297 57.825 57.825 0 01-.858-.286c-.594-.198-1.042-.455-1.342-.77-.294-.315-.44-.73-.44-1.243-.008-.433.091-.81.297-1.133a2.09 2.09 0 01.88-.748c.38-.183.825-.275 1.33-.275.5 0 .936.092 1.31.275.38.183.678.44.89.77.213.323.323.7.33 1.133h-1.231c0-.198-.052-.385-.154-.561a1.21 1.21 0 00-.451-.451 1.401 1.401 0 00-.726-.176c-.367-.007-.671.084-.913.275-.235.19-.352.455-.352.792 0 .3.088.532.264.693.176.161.418.297.726.407.308.103.66.224 1.056.363.38.125.722.275 1.023.451.3.176.539.407.715.693.183.286.275.649.275 1.089 0 .389-.1.752-.297 1.089-.198.33-.495.601-.891.814-.396.205-.884.308-1.463.308zm9.55-.132v-6.754H84.71v-.946h5.709v.946h-2.266v6.754h-1.166zm7.15 0l2.838-7.7h1.276l2.816 7.7h-1.232l-.66-1.881H96.03l-.66 1.881h-1.232zm2.222-2.805h2.486l-1.243-3.509-1.243 3.509zm12.291 2.937c-.55 0-1.049-.106-1.496-.319a2.52 2.52 0 01-1.056-1.001c-.257-.447-.385-1.016-.385-1.705V36.76h1.166v4.818c0 .675.161 1.17.484 1.485.322.315.759.473 1.309.473.542 0 .975-.158 1.298-.473.322-.315.484-.81.484-1.485V36.76h1.166v4.807c0 .69-.136 1.258-.407 1.705a2.494 2.494 0 01-1.078 1.001 3.418 3.418 0 01-1.485.319zm8.425-.132v-7.7h2.651c.609 0 1.108.103 1.496.308.396.205.69.484.88.836.191.345.286.73.286 1.155a2.3 2.3 0 01-.385 1.298c-.249.389-.641.667-1.177.836l1.639 3.267h-1.353l-1.496-3.102h-1.375v3.102h-1.166zm1.166-3.982h1.419c.528 0 .913-.128 1.155-.385.25-.257.374-.59.374-1.001 0-.41-.121-.737-.363-.979-.242-.25-.634-.374-1.177-.374h-1.408v2.739zm8.992 3.982l2.838-7.7h1.276l2.816 7.7h-1.232l-.66-1.881h-3.146l-.66 1.881h-1.232zm2.222-2.805h2.486l-1.243-3.509-1.243 3.509zm9.742 2.805v-7.7h1.166l3.861 5.797V36.76h1.166v7.7h-1.166l-3.861-5.797v5.797h-1.166zm13.519 0v-6.754h-2.277v-.946h5.709v.946h-2.266v6.754h-1.166z" fill="#E4C590"/><mask id="a" maskUnits="userSpaceOnUse" x="53" y="5" width="104" height="28" fill="#000"><path fill="#fff" d="M53 5h104v28H53z"/><path d="M70.644 18.236h5.434v.38h-.19a.73.73 0 00-.532.228 1.51 1.51 0 00-.38.494 4.99 4.99 0 00-.266.646c-.05.228-.076.43-.076.608v10.184c-.456.177-.975.33-1.558.456-.583.127-1.19.228-1.824.304a24.15 24.15 0 01-1.938.228 23.89 23.89 0 01-1.824.076c-2.28 0-4.269-.38-5.966-1.14-1.697-.76-3.103-1.748-4.218-2.964a12.605 12.605 0 01-2.508-4.18A14.273 14.273 0 0154 18.882c0-1.57.266-3.129.798-4.674a12.194 12.194 0 012.508-4.142c1.14-1.216 2.559-2.191 4.256-2.926C63.285 6.38 65.324 6 67.68 6c.887 0 1.71.076 2.47.228.76.152 1.431.291 2.014.418.33.076.608.152.836.228.253.05.469.076.646.076h.342v4.028h-.38c-.152-.785-.456-1.419-.912-1.9a4.342 4.342 0 00-1.52-1.102 6.515 6.515 0 00-1.862-.494 11.334 11.334 0 00-1.786-.152c-1.9 0-3.547.342-4.94 1.026-1.393.659-2.533 1.52-3.42 2.584a10.676 10.676 0 00-1.976 3.61 12.653 12.653 0 00-.646 3.952c0 1.47.279 2.926.836 4.37a12.75 12.75 0 002.356 3.838 12.317 12.317 0 003.648 2.736c1.444.684 3.04 1.026 4.788 1.026.481 0 1.077-.05 1.786-.152a6.648 6.648 0 002.128-.798v-8.93c0-.177-.025-.38-.076-.608a2.05 2.05 0 00-.266-.646 1.51 1.51 0 00-.38-.494.73.73 0 00-.532-.228h-.19v-.38zM85.587 31.08h.19v.38h-5.358v-.38h.19c.177 0 .342-.076.494-.228.152-.152.278-.33.38-.532a2.05 2.05 0 00.266-.646 3.52 3.52 0 00.076-.684V8.736c0-.177-.026-.38-.076-.608a2.05 2.05 0 00-.266-.646 1.51 1.51 0 00-.38-.494c-.152-.152-.317-.228-.494-.228h-.19v-.38h6.612c2.533 0 4.484.494 5.852 1.482 1.393.988 2.09 2.445 2.09 4.37 0 .963-.165 1.811-.494 2.546a5.884 5.884 0 01-1.254 1.862 6.697 6.697 0 01-1.9 1.254c-.71.304-1.47.532-2.28.684l2.736 4.18c.658 1.013 1.33 2.014 2.014 3.002a68.765 68.765 0 012.014 3.002c.177.253.367.52.57.798.228.279.456.532.684.76.253.228.506.418.76.57.278.127.557.19.836.19v.38h-1.634c-1.014 0-1.85-.24-2.508-.722a7.455 7.455 0 01-1.596-1.748 443.66 443.66 0 01-3.42-5.092 444.476 444.476 0 00-3.344-5.092c-.28-.025-.583-.05-.912-.076a48.2 48.2 0 01-.874-.152V28.99c0 .203.025.43.076.684.05.228.126.443.228.646.126.203.253.38.38.532a.73.73 0 00.532.228zM84.37 7.672v9.652h.19c.202.025.519.05.95.076h1.672c.532 0 1.089-.076 1.672-.228a5.183 5.183 0 001.672-.836 4.583 4.583 0 001.292-1.558c.354-.633.532-1.431.532-2.394 0-.963-.19-1.748-.57-2.356a3.8 3.8 0 00-1.52-1.444c-.634-.355-1.406-.595-2.318-.722a21.903 21.903 0 00-3.002-.19h-.57zm17.862-1.292h5.434v.38h-.19c-.177 0-.342.076-.494.228a1.507 1.507 0 00-.38.494c-.101.177-.19.393-.266.646-.051.228-.076.43-.076.608V28.99c0 .203.025.43.076.684.051.228.127.443.228.646.127.203.253.38.38.532a.729.729 0 00.532.228h.19v.38h-5.434v-.38h.19c.203 0 .38-.063.532-.19a2.02 2.02 0 00.38-.532c.127-.228.215-.456.266-.684.051-.253.076-.481.076-.684V8.736c0-.177-.025-.38-.076-.608a2.05 2.05 0 00-.266-.646 1.507 1.507 0 00-.38-.494.729.729 0 00-.532-.228h-.19v-.38zm10.228 24.7h.19c.203 0 .38-.063.532-.19a2.02 2.02 0 00.38-.532 2.03 2.03 0 00.266-.646c.076-.228.114-.443.114-.646V8.736c0-.177-.038-.38-.114-.608a2.027 2.027 0 00-.266-.646 1.507 1.507 0 00-.38-.494.729.729 0 00-.532-.228h-.19v-.38h5.472v.38h-.19a.73.73 0 00-.532.228 1.52 1.52 0 00-.38.494 4.99 4.99 0 00-.266.646c-.05.228-.076.43-.076.608v21.318h8.322c.482 0 .9-.114 1.254-.342.355-.228.646-.507.874-.836a3.38 3.38 0 00.532-1.102 3.72 3.72 0 00.19-1.102h.38v4.788h-15.58v-.38zm18.804 0h.19c.203 0 .38-.063.532-.19a2.02 2.02 0 00.38-.532 2.03 2.03 0 00.266-.646c.076-.228.114-.443.114-.646V8.736c0-.177-.038-.38-.114-.608a2.027 2.027 0 00-.266-.646 1.507 1.507 0 00-.38-.494.729.729 0 00-.532-.228h-.19v-.38h5.472v.38h-.19a.73.73 0 00-.532.228 1.52 1.52 0 00-.38.494 4.99 4.99 0 00-.266.646c-.05.228-.076.43-.076.608v21.318h8.322c.482 0 .9-.114 1.254-.342.355-.228.646-.507.874-.836a3.38 3.38 0 00.532-1.102 3.72 3.72 0 00.19-1.102h.38v4.788h-15.58v-.38zm18.956-24.7h5.434v.38h-.19c-.177 0-.342.076-.494.228a1.52 1.52 0 00-.38.494c-.101.177-.19.393-.266.646-.05.228-.076.43-.076.608V28.99c0 .203.026.43.076.684.051.228.127.443.228.646.127.203.254.38.38.532a.73.73 0 00.532.228h.19v.38h-5.434v-.38h.19c.203 0 .38-.063.532-.19a2.02 2.02 0 00.38-.532c.127-.228.216-.456.266-.684.051-.253.076-.481.076-.684V8.736c0-.177-.025-.38-.076-.608a2.027 2.027 0 00-.266-.646 1.507 1.507 0 00-.38-.494.729.729 0 00-.532-.228h-.19v-.38z"/></mask><path d="M70.644 18.236h5.434v.38h-.19a.73.73 0 00-.532.228 1.51 1.51 0 00-.38.494 4.99 4.99 0 00-.266.646c-.05.228-.076.43-.076.608v10.184c-.456.177-.975.33-1.558.456-.583.127-1.19.228-1.824.304a24.15 24.15 0 01-1.938.228 23.89 23.89 0 01-1.824.076c-2.28 0-4.269-.38-5.966-1.14-1.697-.76-3.103-1.748-4.218-2.964a12.605 12.605 0 01-2.508-4.18A14.273 14.273 0 0154 18.882c0-1.57.266-3.129.798-4.674a12.194 12.194 0 012.508-4.142c1.14-1.216 2.559-2.191 4.256-2.926C63.285 6.38 65.324 6 67.68 6c.887 0 1.71.076 2.47.228.76.152 1.431.291 2.014.418.33.076.608.152.836.228.253.05.469.076.646.076h.342v4.028h-.38c-.152-.785-.456-1.419-.912-1.9a4.342 4.342 0 00-1.52-1.102 6.515 6.515 0 00-1.862-.494 11.334 11.334 0 00-1.786-.152c-1.9 0-3.547.342-4.94 1.026-1.393.659-2.533 1.52-3.42 2.584a10.676 10.676 0 00-1.976 3.61 12.653 12.653 0 00-.646 3.952c0 1.47.279 2.926.836 4.37a12.75 12.75 0 002.356 3.838 12.317 12.317 0 003.648 2.736c1.444.684 3.04 1.026 4.788 1.026.481 0 1.077-.05 1.786-.152a6.648 6.648 0 002.128-.798v-8.93c0-.177-.025-.38-.076-.608a2.05 2.05 0 00-.266-.646 1.51 1.51 0 00-.38-.494.73.73 0 00-.532-.228h-.19v-.38zM85.587 31.08h.19v.38h-5.358v-.38h.19c.177 0 .342-.076.494-.228.152-.152.278-.33.38-.532a2.05 2.05 0 00.266-.646 3.52 3.52 0 00.076-.684V8.736c0-.177-.026-.38-.076-.608a2.05 2.05 0 00-.266-.646 1.51 1.51 0 00-.38-.494c-.152-.152-.317-.228-.494-.228h-.19v-.38h6.612c2.533 0 4.484.494 5.852 1.482 1.393.988 2.09 2.445 2.09 4.37 0 .963-.165 1.811-.494 2.546a5.884 5.884 0 01-1.254 1.862 6.697 6.697 0 01-1.9 1.254c-.71.304-1.47.532-2.28.684l2.736 4.18c.658 1.013 1.33 2.014 2.014 3.002a68.765 68.765 0 012.014 3.002c.177.253.367.52.57.798.228.279.456.532.684.76.253.228.506.418.76.57.278.127.557.19.836.19v.38h-1.634c-1.014 0-1.85-.24-2.508-.722a7.455 7.455 0 01-1.596-1.748 443.66 443.66 0 01-3.42-5.092 444.476 444.476 0 00-3.344-5.092c-.28-.025-.583-.05-.912-.076a48.2 48.2 0 01-.874-.152V28.99c0 .203.025.43.076.684.05.228.126.443.228.646.126.203.253.38.38.532a.73.73 0 00.532.228zM84.37 7.672v9.652h.19c.202.025.519.05.95.076h1.672c.532 0 1.089-.076 1.672-.228a5.183 5.183 0 001.672-.836 4.583 4.583 0 001.292-1.558c.354-.633.532-1.431.532-2.394 0-.963-.19-1.748-.57-2.356a3.8 3.8 0 00-1.52-1.444c-.634-.355-1.406-.595-2.318-.722a21.903 21.903 0 00-3.002-.19h-.57zm17.862-1.292h5.434v.38h-.19c-.177 0-.342.076-.494.228a1.507 1.507 0 00-.38.494c-.101.177-.19.393-.266.646-.051.228-.076.43-.076.608V28.99c0 .203.025.43.076.684.051.228.127.443.228.646.127.203.253.38.38.532a.729.729 0 00.532.228h.19v.38h-5.434v-.38h.19c.203 0 .38-.063.532-.19a2.02 2.02 0 00.38-.532c.127-.228.215-.456.266-.684.051-.253.076-.481.076-.684V8.736c0-.177-.025-.38-.076-.608a2.05 2.05 0 00-.266-.646 1.507 1.507 0 00-.38-.494.729.729 0 00-.532-.228h-.19v-.38zm10.228 24.7h.19c.203 0 .38-.063.532-.19a2.02 2.02 0 00.38-.532 2.03 2.03 0 00.266-.646c.076-.228.114-.443.114-.646V8.736c0-.177-.038-.38-.114-.608a2.027 2.027 0 00-.266-.646 1.507 1.507 0 00-.38-.494.729.729 0 00-.532-.228h-.19v-.38h5.472v.38h-.19a.73.73 0 00-.532.228 1.52 1.52 0 00-.38.494 4.99 4.99 0 00-.266.646c-.05.228-.076.43-.076.608v21.318h8.322c.482 0 .9-.114 1.254-.342.355-.228.646-.507.874-.836a3.38 3.38 0 00.532-1.102 3.72 3.72 0 00.19-1.102h.38v4.788h-15.58v-.38zm18.804 0h.19c.203 0 .38-.063.532-.19a2.02 2.02 0 00.38-.532 2.03 2.03 0 00.266-.646c.076-.228.114-.443.114-.646V8.736c0-.177-.038-.38-.114-.608a2.027 2.027 0 00-.266-.646 1.507 1.507 0 00-.38-.494.729.729 0 00-.532-.228h-.19v-.38h5.472v.38h-.19a.73.73 0 00-.532.228 1.52 1.52 0 00-.38.494 4.99 4.99 0 00-.266.646c-.05.228-.076.43-.076.608v21.318h8.322c.482 0 .9-.114 1.254-.342.355-.228.646-.507.874-.836a3.38 3.38 0 00.532-1.102 3.72 3.72 0 00.19-1.102h.38v4.788h-15.58v-.38zm18.956-24.7h5.434v.38h-.19c-.177 0-.342.076-.494.228a1.52 1.52 0 00-.38.494c-.101.177-.19.393-.266.646-.05.228-.076.43-.076.608V28.99c0 .203.026.43.076.684.051.228.127.443.228.646.127.203.254.38.38.532a.73.73 0 00.532.228h.19v.38h-5.434v-.38h.19c.203 0 .38-.063.532-.19a2.02 2.02 0 00.38-.532c.127-.228.216-.456.266-.684.051-.253.076-.481.076-.684V8.736c0-.177-.025-.38-.076-.608a2.027 2.027 0 00-.266-.646 1.507 1.507 0 00-.38-.494.729.729 0 00-.532-.228h-.19v-.38z" fill="#fff"/><path d="M70.644 18.236h5.434v.38h-.19a.73.73 0 00-.532.228 1.51 1.51 0 00-.38.494 4.99 4.99 0 00-.266.646c-.05.228-.076.43-.076.608v10.184c-.456.177-.975.33-1.558.456-.583.127-1.19.228-1.824.304a24.15 24.15 0 01-1.938.228 23.89 23.89 0 01-1.824.076c-2.28 0-4.269-.38-5.966-1.14-1.697-.76-3.103-1.748-4.218-2.964a12.605 12.605 0 01-2.508-4.18A14.273 14.273 0 0154 18.882c0-1.57.266-3.129.798-4.674a12.194 12.194 0 012.508-4.142c1.14-1.216 2.559-2.191 4.256-2.926C63.285 6.38 65.324 6 67.68 6c.887 0 1.71.076 2.47.228.76.152 1.431.291 2.014.418.33.076.608.152.836.228.253.05.469.076.646.076h.342v4.028h-.38c-.152-.785-.456-1.419-.912-1.9a4.342 4.342 0 00-1.52-1.102 6.515 6.515 0 00-1.862-.494 11.334 11.334 0 00-1.786-.152c-1.9 0-3.547.342-4.94 1.026-1.393.659-2.533 1.52-3.42 2.584a10.676 10.676 0 00-1.976 3.61 12.653 12.653 0 00-.646 3.952c0 1.47.279 2.926.836 4.37a12.75 12.75 0 002.356 3.838 12.317 12.317 0 003.648 2.736c1.444.684 3.04 1.026 4.788 1.026.481 0 1.077-.05 1.786-.152a6.648 6.648 0 002.128-.798v-8.93c0-.177-.025-.38-.076-.608a2.05 2.05 0 00-.266-.646 1.51 1.51 0 00-.38-.494.73.73 0 00-.532-.228h-.19v-.38zM85.587 31.08h.19v.38h-5.358v-.38h.19c.177 0 .342-.076.494-.228.152-.152.278-.33.38-.532a2.05 2.05 0 00.266-.646 3.52 3.52 0 00.076-.684V8.736c0-.177-.026-.38-.076-.608a2.05 2.05 0 00-.266-.646 1.51 1.51 0 00-.38-.494c-.152-.152-.317-.228-.494-.228h-.19v-.38h6.612c2.533 0 4.484.494 5.852 1.482 1.393.988 2.09 2.445 2.09 4.37 0 .963-.165 1.811-.494 2.546a5.884 5.884 0 01-1.254 1.862 6.697 6.697 0 01-1.9 1.254c-.71.304-1.47.532-2.28.684l2.736 4.18c.658 1.013 1.33 2.014 2.014 3.002a68.765 68.765 0 012.014 3.002c.177.253.367.52.57.798.228.279.456.532.684.76.253.228.506.418.76.57.278.127.557.19.836.19v.38h-1.634c-1.014 0-1.85-.24-2.508-.722a7.455 7.455 0 01-1.596-1.748 443.66 443.66 0 01-3.42-5.092 444.476 444.476 0 00-3.344-5.092c-.28-.025-.583-.05-.912-.076a48.2 48.2 0 01-.874-.152V28.99c0 .203.025.43.076.684.05.228.126.443.228.646.126.203.253.38.38.532a.73.73 0 00.532.228zM84.37 7.672v9.652h.19c.202.025.519.05.95.076h1.672c.532 0 1.089-.076 1.672-.228a5.183 5.183 0 001.672-.836 4.583 4.583 0 001.292-1.558c.354-.633.532-1.431.532-2.394 0-.963-.19-1.748-.57-2.356a3.8 3.8 0 00-1.52-1.444c-.634-.355-1.406-.595-2.318-.722a21.903 21.903 0 00-3.002-.19h-.57zm17.862-1.292h5.434v.38h-.19c-.177 0-.342.076-.494.228a1.507 1.507 0 00-.38.494c-.101.177-.19.393-.266.646-.051.228-.076.43-.076.608V28.99c0 .203.025.43.076.684.051.228.127.443.228.646.127.203.253.38.38.532a.729.729 0 00.532.228h.19v.38h-5.434v-.38h.19c.203 0 .38-.063.532-.19a2.02 2.02 0 00.38-.532c.127-.228.215-.456.266-.684.051-.253.076-.481.076-.684V8.736c0-.177-.025-.38-.076-.608a2.05 2.05 0 00-.266-.646 1.507 1.507 0 00-.38-.494.729.729 0 00-.532-.228h-.19v-.38zm10.228 24.7h.19c.203 0 .38-.063.532-.19a2.02 2.02 0 00.38-.532 2.03 2.03 0 00.266-.646c.076-.228.114-.443.114-.646V8.736c0-.177-.038-.38-.114-.608a2.027 2.027 0 00-.266-.646 1.507 1.507 0 00-.38-.494.729.729 0 00-.532-.228h-.19v-.38h5.472v.38h-.19a.73.73 0 00-.532.228 1.52 1.52 0 00-.38.494 4.99 4.99 0 00-.266.646c-.05.228-.076.43-.076.608v21.318h8.322c.482 0 .9-.114 1.254-.342.355-.228.646-.507.874-.836a3.38 3.38 0 00.532-1.102 3.72 3.72 0 00.19-1.102h.38v4.788h-15.58v-.38zm18.804 0h.19c.203 0 .38-.063.532-.19a2.02 2.02 0 00.38-.532 2.03 2.03 0 00.266-.646c.076-.228.114-.443.114-.646V8.736c0-.177-.038-.38-.114-.608a2.027 2.027 0 00-.266-.646 1.507 1.507 0 00-.38-.494.729.729 0 00-.532-.228h-.19v-.38h5.472v.38h-.19a.73.73 0 00-.532.228 1.52 1.52 0 00-.38.494 4.99 4.99 0 00-.266.646c-.05.228-.076.43-.076.608v21.318h8.322c.482 0 .9-.114 1.254-.342.355-.228.646-.507.874-.836a3.38 3.38 0 00.532-1.102 3.72 3.72 0 00.19-1.102h.38v4.788h-15.58v-.38zm18.956-24.7h5.434v.38h-.19c-.177 0-.342.076-.494.228a1.52 1.52 0 00-.38.494c-.101.177-.19.393-.266.646-.05.228-.076.43-.076.608V28.99c0 .203.026.43.076.684.051.228.127.443.228.646.127.203.254.38.38.532a.73.73 0 00.532.228h.19v.38h-5.434v-.38h.19c.203 0 .38-.063.532-.19a2.02 2.02 0 00.38-.532c.127-.228.216-.456.266-.684.051-.253.076-.481.076-.684V8.736c0-.177-.025-.38-.076-.608a2.027 2.027 0 00-.266-.646 1.507 1.507 0 00-.38-.494.729.729 0 00-.532-.228h-.19v-.38z" stroke="#fff" mask="url(#a)"/><path fill-rule="evenodd" clip-rule="evenodd" d="M32.513 42.597A19.912 19.912 0 0123 45C11.954 45 3 36.046 3 25S11.954 5 23 5c3.052 0 5.945.684 8.533 1.906a7.705 7.705 0 00-.471.673c-.692 1.11-1.237 2.453-1.592 3.884A14.94 14.94 0 0023 10c-8.284 0-15 6.716-15 15 0 8.284 6.716 15 15 15 4.291 0 8.162-1.802 10.896-4.691a29.664 29.664 0 01-1.259 3.623c-.41.877-.525 1.517-.525 2.528 0 .406.148.787.401 1.137zm-3.5-27.984c-.156 3.663 1.018 7.253 4.15 8.643.972.872 1.575 1.956 1.575 3.364v.89C33.582 32.932 28.766 37 23 37c-6.627 0-12-5.373-12-12s5.373-12 12-12c2.191 0 4.246.587 6.014 1.613z" fill="#E4C590"/><path d="M41.76 22.878c5.038-2.32 4.818-9.727 2.05-14.339-2.81-4.685-7.016-4.753-9.867 0-2.753 4.587-3.007 12.01 2.05 14.34.925.862 1.633 2.556 1.633 3.948 0 4.19.258 7.482-1.926 12.312-.391.868-.574 1.524-.574 2.067 0 2.092 1.682 3.794 3.75 3.794 2.069 0 3.751-1.702 3.751-3.794 0-.543-.183-1.2-.574-2.067-2.214-4.897-1.926-8.417-1.926-12.312 0-1.392.708-3.086 1.634-3.949z" fill="#E4C590"/></svg>